<?xml version="1.0" encoding="UTF-8" standalone="yes"?>
<!DOCTYPE svg PUBLIC "-//W3C//DTD SVG 1.0//EN" "http://www.w3.org/TR/2001/REC-SVG-20010904/DTD/svg10.dtd">
<svg width="19.474794" height="13.983153" xmlns="http://www.w3.org/2000/svg" xmlns:svg="http://www.w3.org/2000/svg" xmlns:xlink="http://www.w3.org/1999/xlink" xmlns:slic3r="http://slic3r.org/namespaces/slic3r">
  <!-- 
  Generated using Slic3r 1.2.9
  http://slic3r.org/
   -->
  <g id="layer0" slic3r:z="1.75e-07">
    <polygon slic3r:type="contour" points="0.411083,0.001817 0.428069,0.005429 0.435854,0.009398 0.451326,0.017284 0.457821,0.023134 0.470724,0.034755 0.475483,0.042086 0.484939,0.056651 0.490303,0.073168 0.491653,0.077325 0.492102,0.078709 0.492327,0.079402 0.492463,0.079818 0.493002,0.081481 2.668096,11.82699 2.736373,12.195683 2.738964,12.205244 2.778923,12.352744 2.783029,12.361758 2.846381,12.500824 2.851895,12.509052 2.936962,12.636003 2.943736,12.643227 3.048266,12.7547 3.056123,12.760731 3.177349,12.853777 3.186079,12.858452 3.32079,12.930603 3.474794,12.983152 3.474794,0.983153 9.974794,0.983153 9.974794,13.983153 3.474794,13.983153 3.474794,13.483152 3.276183,13.436503 3.260499,13.430477 3.085739,13.363334 3.071017,13.355235 2.906984,13.264997 2.8935,13.254977 2.743229,13.143316 2.731227,13.131557 2.597498,13.000539 2.587204,12.987262 2.47249,12.839307 2.464093,12.824755 2.370518,12.662604 2.364172,12.647046 2.293466,12.473697 2.246937,12.292357 2.242761,12.276083 0.069577,0.540893 0.001361,0.172525 0.001285,0.171071 0.00127,0.17078 0.001247,0.170343 0.001208,0.169615 0.001132,0.16816 0.000904,0.163797 0,0.146456 0.001817,0.137906 0.005429,0.120922 0.009398,0.113135 0.017285,0.097663 0.023134,0.091169 0.034756,0.078265 0.042085,0.073507 0.056652,0.064051 0.073168,0.058687 0.077324,0.057337 0.07871,0.056887 0.079401,0.056663 0.079818,0.056527 0.08148,0.055988 0.367486,0.003024 0.376465,0.00136 0.377919,0.001285 0.37821,0.00127 0.378646,0.001247 0.379374,0.001208 0.380828,0.001133 0.385193,0.000904 0.402535,0" style="fill: white" />
    <polygon slic3r:type="hole" points="8.901624,10.286988 8.892911,10.28884 8.758482,10.317412 8.750343,10.321036 8.624794,10.376935 8.617587,10.382172 8.506403,10.462951 8.500442,10.469572 8.408481,10.571704 8.404028,10.579417 8.335311,10.698438 8.332559,10.706909 8.29009,10.837614 8.289158,10.846474 8.274793,10.983152 8.275724,10.992012 8.29009,11.128691 8.292843,11.137164 8.335312,11.267869 8.339765,11.275582 8.408482,11.394602 8.414442,11.401223 8.506402,11.503354 8.513609,11.508591 8.624794,11.589371 8.632932,11.592994 8.758482,11.648893 8.767195,11.650745 8.901624,11.679318 9.047963,11.679318 9.056676,11.677466 9.191106,11.648892 9.199243,11.64527 9.324794,11.589371 9.331999,11.584135 9.443185,11.503355 9.449146,11.496734 9.541105,11.394603 9.545558,11.386889 9.614276,11.267868 9.617028,11.259397 9.659496,11.128692 9.660427,11.119833 9.674793,10.983153 9.673862,10.974293 9.659497,10.837615 9.656743,10.829142 9.614276,10.698438 9.609822,10.690724 9.541105,10.571704 9.535144,10.565083 9.443185,10.462951 9.435979,10.457715 9.324794,10.376936 9.316655,10.373312 9.191106,10.317413 9.182392,10.31556 9.047964,10.286988" style="fill: black" />
    <polygon slic3r:type="hole" points="8.901624,3.286987 8.892912,3.288838 8.758481,3.317413 8.750344,3.321035 8.624794,3.376934 8.617587,3.38217 8.506403,3.46295 8.500443,3.46957 8.408481,3.571703 8.404028,3.579416 8.335312,3.698436 8.332558,3.706909 8.29009,3.837614 8.289159,3.846472 8.274793,3.983151 8.275724,3.992011 8.29009,4.12869 8.292843,4.137163 8.335312,4.267868 8.339765,4.275582 8.408482,4.394603 8.414442,4.401222 8.506402,4.503353 8.513609,4.50859 8.624794,4.58937 8.632932,4.592993 8.758481,4.648891 8.767194,4.650743 8.901625,4.679318 9.047964,4.679318 9.056677,4.677465 9.191106,4.648892 9.199243,4.645269 9.324794,4.589369 9.331999,4.584134 9.443186,4.503354 9.449145,4.496735 9.541104,4.394603 9.545559,4.386887 9.614275,4.267868 9.617029,4.259396 9.659496,4.128691 9.660427,4.119832 9.674793,3.983152 9.673862,3.974293 9.659497,3.837615 9.656743,3.829142 9.614276,3.698436 9.609822,3.690723 9.541105,3.571703 9.535144,3.565082 9.443186,3.462951 9.43598,3.457716 9.324794,3.376935 9.316656,3.373312 9.191105,3.317412 9.182392,3.31556 9.047964,3.286987" style="fill: black" />
  </g>
  <g id="layer1" slic3r:z="5e-07">
    <polygon slic3r:type="contour" points="0.426958,0.005193 0.428068,0.00543 0.450316,0.01677 0.451327,0.017285 0.469881,0.033997 0.470724,0.034756 0.484321,0.0557 0.484939,0.056652 0.485289,0.05773 0.489146,0.069606 0.490432,0.073564 0.491073,0.075542 0.49146,0.076731 0.493002,0.081481 2.541297,11.142274 2.736374,12.195684 2.743772,12.222998 2.778923,12.352744 2.790653,12.378496 2.84638,12.500823 2.862133,12.524332 2.936961,12.636002 2.956319,12.656646 3.048266,12.7547 3.070716,12.771932 3.177348,12.853776 3.202295,12.867137 3.320791,12.930604 3.474794,12.983152 3.474794,0.983153 9.974794,0.983153 9.974794,13.983153 3.474794,13.983153 3.474794,13.483153 3.428062,13.472177 3.276182,13.436502 3.231372,13.419287 3.085739,13.363334 3.043678,13.340195 2.906985,13.264997 2.868453,13.236366 2.743229,13.143316 2.708939,13.109721 2.597499,13.00054 2.568084,12.962602 2.47249,12.839307 2.448498,12.797731 2.370518,12.662603 2.352387,12.618155 2.293466,12.473698 2.254691,12.32258 2.242761,12.276083 0.207189,1.283995 0.001361,0.172524 0.001143,0.168368 0.001101,0.167538 0.001036,0.166291 0.000927,0.164213 0.00071,0.160057 5.7e-05,0.147588 0,0.146456 0.005193,0.122032 0.00543,0.120922 0.01677,0.098674 0.017285,0.097664 0.033996,0.079108 0.034756,0.078265 0.0557,0.064668 0.056651,0.064051 0.05773,0.063701 0.069606,0.059844 0.075543,0.057915 0.076731,0.05753 0.08148,0.055987 0.350813,0.006112 0.376465,0.001361 0.380621,0.001143 0.381451,0.001101 0.382698,0.001036 0.384776,0.000927 0.388932,0.00071 0.401401,5.7e-05 0.402535,0" style="fill: white" />
    <polygon slic3r:type="hole" points="8.901625,10.286988 8.87673,10.292279 8.758482,10.317412 8.735232,10.327764 8.624794,10.376936 8.604204,10.391894 8.506403,10.462952 8.489372,10.481865 8.408482,10.571703 8.395756,10.593745 8.335312,10.698437 8.327446,10.722643 8.29009,10.837614 8.287429,10.862926 8.274793,10.983152 8.277454,11.008464 8.29009,11.128691 8.297954,11.152896 8.335311,11.267868 8.348037,11.28991 8.408482,11.394602 8.425512,11.413516 8.506403,11.503355 8.526992,11.518313 8.624793,11.58937 8.648044,11.599723 8.758482,11.648893 8.783376,11.654184 8.901624,11.679318 9.047963,11.679318 9.072858,11.674026 9.191105,11.648893 9.214355,11.638541 9.324794,11.58937 9.345384,11.574411 9.443186,11.503355 9.460214,11.484442 9.541104,11.394603 9.55383,11.372561 9.614275,11.267869 9.62214,11.243664 9.659497,11.128691 9.662157,11.10338 9.674794,10.983153 9.672133,10.957841 9.659497,10.837615 9.651632,10.81341 9.614275,10.698438 9.60155,10.676396 9.541105,10.571704 9.524075,10.55279 9.443186,10.462952 9.422595,10.447992 9.324794,10.376936 9.301543,10.366583 9.191106,10.317413 9.166211,10.312121 9.047964,10.286988" style="fill: black" />
    <polygon slic3r:type="hole" points="8.901625,3.286987 8.876731,3.292278 8.758482,3.317412 8.735232,3.327763 8.624793,3.376935 8.604204,3.391893 8.506403,3.462951 8.489372,3.481865 8.408482,3.571702 8.395757,3.593743 8.335312,3.698436 8.327446,3.722642 8.29009,3.837614 8.287429,3.862926 8.274792,3.983151 8.277454,4.008463 8.29009,4.12869 8.297954,4.152895 8.335311,4.267867 8.348036,4.289908 8.408482,4.394603 8.425512,4.413516 8.506402,4.503353 8.526993,4.518314 8.624793,4.58937 8.648044,4.599722 8.758482,4.648892 8.783376,4.654184 8.901624,4.679318 9.047963,4.679318 9.072857,4.674027 9.191106,4.648892 9.214355,4.638541 9.324794,4.589369 9.345384,4.57441 9.443186,4.503354 9.460215,4.48444 9.541105,4.394603 9.553829,4.372562 9.614275,4.267868 9.622141,4.243663 9.659497,4.128691 9.662157,4.103379 9.674794,3.983152 9.672133,3.95784 9.659497,3.837615 9.651632,3.81341 9.614276,3.698437 9.60155,3.676395 9.541105,3.571703 9.524075,3.552789 9.443186,3.462951 9.422595,3.447991 9.324794,3.376935 9.301543,3.366582 9.191105,3.317413 9.166211,3.31212 9.047964,3.286987" style="fill: black" />
  </g>
  <g id="layer2" slic3r:z="8e-07">
    <polygon slic3r:type="contour" points="0.416078,0.002879 0.428069,0.00543 0.440406,0.011719 0.451327,0.017285 0.461616,0.026552 0.470724,0.034756 0.478263,0.046369 0.484939,0.056652 0.486832,0.062481 0.488889,0.068814 0.489917,0.071981 0.493002,0.081481 2.43181,10.551043 2.736374,12.195684 2.748212,12.239387 2.778922,12.352743 2.797693,12.393948 2.846381,12.500824 2.871585,12.538438 2.936961,12.636002 2.967933,12.669031 3.048267,12.754701 3.064667,12.767289 3.177349,12.853777 3.290722,12.9145 3.290722,12.914499 3.320791,12.930604 3.474794,12.983153 3.474794,0.983153 9.974794,0.983153 9.974794,13.983153 3.474794,13.983153 3.474794,13.483153 3.400022,13.465591 3.276182,13.436502 3.204486,13.408957 3.085739,13.363334 2.944491,13.28563 2.906984,13.264997 2.845335,13.219187 2.743229,13.143316 2.688365,13.089564 2.597499,13.00054 2.550436,12.93984 2.47249,12.839307 2.434102,12.772784 2.370518,12.662603 2.341509,12.591485 2.293466,12.473697 2.261849,12.350478 2.242761,12.276083 0.313207,1.856498 0.001361,0.172525 0.001014,0.165876 0.000943,0.164545 0.000839,0.16255 0.000666,0.159226 0.000318,0.152575 0,0.146455 0.002879,0.132912 0.00543,0.120921 0.011719,0.108584 0.017284,0.097664 0.026551,0.087374 0.034756,0.078265 0.046369,0.070726 0.056651,0.064051 0.062481,0.062157 0.068813,0.060102 0.071981,0.059072 0.07388,0.058456 0.08148,0.055987 0.335423,0.008962 0.376465,0.001361 0.383115,0.001013 0.384445,0.000943 0.386439,0.00084 0.389763,0.000666 0.396414,0.000318 0.402534,0" style="fill: white" />
    <polygon slic3r:type="hole" points="8.758482,10.317412 8.721282,10.333975 8.624793,10.376936 8.59185,10.40087 8.506403,10.462951 8.479154,10.493213 8.408482,10.571704 8.388121,10.606968 8.335311,10.698438 8.322727,10.737166 8.29009,10.837614 8.285833,10.878113 8.274792,10.983152 8.279049,11.02365 8.29009,11.128691 8.302673,11.167419 8.335311,11.267868 8.355671,11.303133 8.408481,11.394603 8.43573,11.424864 8.506403,11.503355 8.539347,11.52729 8.624793,11.589371 8.661994,11.605934 8.758481,11.648892 8.798313,11.657359 8.901624,11.679318 9.047963,11.679318 9.087795,11.670851 9.191105,11.648893 9.228306,11.632329 9.324794,11.589371 9.357737,11.565436 9.443186,11.503355 9.470433,11.473093 9.541104,11.394603 9.561466,11.359337 9.614275,11.267869 9.626859,11.22914 9.659497,11.128692 9.663753,11.088194 9.674794,10.983152 9.670537,10.942655 9.659497,10.837615 9.646913,10.798886 9.614276,10.698438 9.593915,10.663173 9.541105,10.571703 9.513857,10.541442 9.443186,10.462952 9.410242,10.439017 9.324794,10.376936 9.287593,10.360372 9.191106,10.317413 9.151274,10.308946 9.047964,10.286988 8.922068,10.286988 8.922068,10.282642" style="fill: black" />
    <polygon slic3r:type="hole" points="8.901624,3.286987 8.861793,3.295454 8.758482,3.317413 8.721281,3.333975 8.624793,3.376935 8.59185,3.400869 8.506403,3.46295 8.479155,3.493212 8.408482,3.571703 8.388121,3.606967 8.335311,3.698437 8.322727,3.737165 8.290089,3.837615 8.285833,3.878112 8.274792,3.983151 8.279049,4.023649 8.29009,4.12869 8.302674,4.167418 8.335312,4.267868 8.355671,4.303133 8.408481,4.394602 8.435729,4.424863 8.506403,4.503354 8.539346,4.527288 8.624793,4.58937 8.661994,4.605933 8.758482,4.648892 8.798313,4.657359 8.901624,4.679318 9.047963,4.679318 9.087795,4.670851 9.191106,4.648892 9.228306,4.632329 9.324794,4.58937 9.357737,4.565435 9.443186,4.503354 9.470433,4.473092 9.541105,4.394603 9.561466,4.359336 9.614276,4.267867 9.626858,4.229141 9.659497,4.12869 9.663753,4.088193 9.674794,3.983152 9.670537,3.942655 9.659497,3.837615 9.646913,3.798886 9.614276,3.698437 9.593914,3.663171 9.541105,3.571702 9.513857,3.541441 9.443186,3.462951 9.410242,3.439016 9.324794,3.376935 9.287593,3.360371 9.191106,3.317413 9.151274,3.308946 9.047964,3.286987" style="fill: black" />
  </g>
  <g id="layer3" slic3r:z="1.1e-06">
    <polygon slic3r:type="contour" points="0.405198,0.000565 0.428069,0.00543 0.430495,0.006666 0.451326,0.017284 0.45335,0.019107 0.470724,0.034756 0.472208,0.037041 0.484938,0.056651 0.487346,0.064065 0.488759,0.068418 0.489608,0.07103 0.493002,0.081481 2.314765,9.918997 2.736374,12.195684 2.752653,12.255777 2.778922,12.352744 2.804732,12.4094 2.846381,12.500824 2.881037,12.552544 2.936962,12.636003 2.979548,12.681418 3.048266,12.7547 3.097654,12.792607 3.177349,12.853777 3.23223,12.883171 3.32079,12.930603 3.474794,12.983152 3.474794,0.983153 9.974794,0.983153 9.974794,13.983153 3.474794,13.983153 3.474794,13.483152 3.371983,13.459005 3.276182,13.436502 3.1776,13.398627 3.085738,13.363334 2.993207,13.31243 2.906985,13.264998 2.822217,13.20201 2.743228,13.143315 2.667791,13.069407 2.597498,13.000539 2.532788,12.917078 2.47249,12.839307 2.419704,12.747837 2.370518,12.662604 2.330632,12.564816 2.293465,12.473697 2.269007,12.378377 2.242761,12.276083 0.43015,2.487988 0.001361,0.172525 0.000884,0.163382 0.000787,0.161552 0.000644,0.158809 0.000405,0.154238 0,0.146456 0.000566,0.14379 0.00543,0.120922 0.006667,0.118494 0.017285,0.097664 0.019108,0.095638 0.034755,0.078266 0.037041,0.076782 0.056652,0.064051 0.064063,0.061644 0.068418,0.060229 0.071031,0.059381 0.08148,0.055987 0.320033,0.011811 0.376464,0.001361 0.385607,0.000884 0.387437,0.000787 0.39018,0.000644 0.394752,0.000405 0.402534,0" style="fill: white" />
    <polygon slic3r:type="hole" points="8.901624,10.286988 8.846857,10.298628 8.758482,10.317413 8.707332,10.340186 8.624793,10.376936 8.579497,10.409845 8.506403,10.462952 8.468938,10.50456 8.408481,10.571704 8.33727,10.695043 8.337271,10.695043 8.335312,10.698438 8.318009,10.751688 8.29009,10.837615 8.284236,10.893299 8.274792,10.983153 8.280645,11.038836 8.29009,11.128692 8.307391,11.181941 8.335312,11.267869 8.363306,11.316358 8.408482,11.394603 8.445946,11.436211 8.506403,11.503355 8.551699,11.536264 8.624794,11.589371 8.675943,11.612144 8.758482,11.648893 8.813249,11.660533 8.901624,11.679318 9.047964,11.679318 9.102731,11.667676 9.191106,11.648893 9.242255,11.626119 9.324793,11.589371 9.370092,11.55646 9.443186,11.503355 9.480651,11.461745 9.541105,11.394603 9.5691,11.346113 9.614276,11.267869 9.631578,11.214618 9.659497,11.128691 9.665349,11.073008 9.674794,10.983152 9.66894,10.927468 9.659497,10.837615 9.642194,10.784364 9.614276,10.698437 9.571875,10.624998 9.541105,10.571704 9.50364,10.530095 9.443186,10.462952 9.397888,10.430042 9.324793,10.376935 9.273643,10.354161 9.191106,10.317413 9.136338,10.305771 9.047964,10.286988" style="fill: black" />
    <polygon slic3r:type="hole" points="8.901624,3.286987 8.846857,3.298627 8.758482,3.317413 8.707332,3.340185 8.624793,3.376935 8.579497,3.409844 8.506402,3.462951 8.468937,3.504561 8.408481,3.571703 8.33727,3.695042 8.337271,3.695042 8.335312,3.698437 8.31801,3.751686 8.29009,3.837615 8.284237,3.893298 8.274793,3.983152 8.280645,4.038836 8.290089,4.12869 8.307391,4.18194 8.335312,4.267868 8.363306,4.316357 8.408482,4.394603 8.445946,4.436211 8.506402,4.503353 8.5517,4.536265 8.624793,4.589369 8.675943,4.612143 8.758481,4.648892 8.81325,4.660534 8.901624,4.679318 9.047964,4.679318 9.102731,4.667676 9.191106,4.648892 9.242255,4.626119 9.324793,4.58937 9.370092,4.556459 9.443186,4.503354 9.480651,4.461744 9.541105,4.394603 9.612316,4.271262 9.612315,4.271262 9.614276,4.267868 9.631578,4.214617 9.659497,4.12869 9.665349,4.073007 9.674794,3.983151 9.66894,3.927467 9.659496,3.837615 9.642194,3.784363 9.614276,3.698436 9.571875,3.624997 9.541105,3.571703 9.50364,3.530094 9.443186,3.462951 9.397888,3.430041 9.324793,3.376934 9.273644,3.354161 9.191106,3.317413 9.136338,3.305771 9.047964,3.286987" style="fill: black" />
  </g>
  <g id="layer4" slic3r:z="1.4e-06">
    <polygon slic3r:type="contour" points="0.419853,0.003682 0.428068,0.00543 0.443844,0.013471 0.451327,0.017285 0.464482,0.029134 0.470723,0.034756 0.480366,0.049607 0.484939,0.056652 0.485803,0.059314 0.487602,0.064855 0.488683,0.068181 0.493002,0.081481 2.190161,9.246138 2.736374,12.195683 2.757092,12.272164 2.778923,12.352744 2.811771,12.424852 2.846381,12.500823 2.890489,12.566649 2.936962,12.636003 2.991162,12.693803 3.048266,12.7547 3.111123,12.802946 3.177349,12.853777 3.247199,12.891188 3.32079,12.930603 3.399801,12.957564 3.474794,12.983153 3.474794,0.983153 9.974794,0.983153 9.974794,13.983153 3.474794,13.983153 3.474794,13.483153 3.343944,13.452419 3.276182,13.436502 3.150714,13.388298 3.085738,13.363334 2.967972,13.298548 2.906985,13.264998 2.799099,13.184831 2.743229,13.143316 2.647218,13.049251 2.597499,13.00054 2.515141,12.894317 2.472491,12.839307 2.405308,12.72289 2.370517,12.662603 2.319755,12.538148 2.293466,12.473698 2.276166,12.406275 2.242761,12.276082 0.547092,3.119477 0.001361,0.172524 0.000753,0.160888 0.000631,0.15856 0.000448,0.155069 0.000145,0.149252 0,0.146455 0.003682,0.129137 0.00543,0.120922 0.013471,0.105146 0.017285,0.097663 0.029135,0.084506 0.034755,0.078266 0.049607,0.068624 0.056652,0.064051 0.059314,0.063187 0.064855,0.061387 0.068181,0.060306 0.08148,0.055987 0.304642,0.014662 0.376464,0.001361 0.388102,0.000752 0.390429,0.000631 0.393921,0.000448 0.399738,0.000145 0.402535,0" style="fill: white" />
    <polygon slic3r:type="hole" points="8.901625,10.286988 8.831921,10.301803 8.758482,10.317413 8.693381,10.346398 8.624794,10.376935 8.567143,10.418821 8.506402,10.462952 8.458719,10.515909 8.408482,10.571703 8.37285,10.633418 8.335312,10.698438 8.313291,10.76621 8.29009,10.837615 8.282641,10.908485 8.274793,10.983152 8.282241,11.054023 8.29009,11.128691 8.31211,11.196464 8.335312,11.267869 8.370942,11.329583 8.408481,11.394602 8.456164,11.447559 8.506402,11.503355 8.643284,11.602805 8.643284,11.597603 8.689894,11.618356 8.758481,11.648893 8.828185,11.663708 8.901625,11.679318 9.047964,11.679318 9.117668,11.664501 9.191105,11.648893 9.256205,11.619908 9.324793,11.589371 9.382445,11.547485 9.443186,11.503354 9.490868,11.450397 9.541105,11.394603 9.576736,11.332888 9.614275,11.267869 9.636297,11.200095 9.659496,11.128692 9.662249,11.102504 9.674794,10.983153 9.667344,10.912281 9.659497,10.837615 9.637475,10.769841 9.614276,10.698437 9.578644,10.636723 9.541105,10.571704 9.493422,10.518746 9.443186,10.462952 9.385533,10.421065 9.324793,10.376936 9.259693,10.34795 9.191106,10.317413 9.121401,10.302596 9.047964,10.286988" style="fill: black" />
    <polygon slic3r:type="hole" points="8.901625,3.286987 8.831921,3.301802 8.758481,3.317413 8.693381,3.346397 8.624794,3.376935 8.567143,3.41882 8.506402,3.462951 8.45872,3.515908 8.408481,3.571703 8.37285,3.633417 8.335312,3.698437 8.324494,3.73173 8.290089,3.837615 8.276847,3.963601 8.274793,3.983151 8.282241,4.054022 8.29009,4.12869 8.31211,4.196463 8.335312,4.267868 8.385346,4.354531 8.408482,4.394603 8.456164,4.447559 8.506403,4.503354 8.643284,4.602804 8.643284,4.597602 8.689894,4.618355 8.758481,4.648892 8.828185,4.663707 8.901625,4.679318 9.047964,4.679318 9.117667,4.664502 9.191106,4.648892 9.256206,4.619907 9.324794,4.58937 9.382445,4.547484 9.443186,4.503353 9.490867,4.450397 9.541105,4.394603 9.619951,4.258038 9.617469,4.258038 9.636297,4.200094 9.659496,4.128691 9.662249,4.102503 9.674794,3.983151 9.667345,3.912282 9.659497,3.837614 9.637476,3.769841 9.614276,3.698436 9.578644,3.636722 9.541105,3.571703 9.493422,3.518745 9.443186,3.462951 9.385533,3.421064 9.324793,3.376935 9.259693,3.347949 9.191106,3.317413 9.121402,3.302597 9.047963,3.286987" style="fill: black" />
  </g>
  <g id="layer5" slic3r:z="1.7e-06">
    <polygon slic3r:type="contour" points="0.408974,0.001369 0.428068,0.005429 0.433933,0.008419 0.451326,0.017285 0.456219,0.021691 0.470723,0.034755 0.474309,0.040278 0.484939,0.056651 0.486447,0.061294 0.487757,0.06533 0.493002,0.081481 2.080674,8.654907 2.736374,12.195684 2.761532,12.288553 2.778923,12.352744 2.81881,12.440303 2.846381,12.500824 2.899942,12.580756 2.936962,12.636003 3.002776,12.706189 3.048267,12.754701 3.124593,12.813284 3.177349,12.853777 3.262166,12.899204 3.320791,12.930604 3.383731,12.952081 3.474794,12.983153 3.474794,0.983153 9.974794,0.983153 9.974794,2.042431 19.474794,2.042431 19.474794,2.923874 9.974794,2.923874 9.974794,7.045989 19.474794,7.045989 19.474794,7.920316 9.974794,7.920316 9.974794,12.042432 19.474794,12.042432 19.474794,12.923875 9.974794,12.923875 9.974794,13.983153 3.474794,13.983153 3.474794,13.483153 3.315904,13.445832 3.276183,13.436503 3.123828,13.377968 3.085738,13.363334 2.942736,13.284665 2.906984,13.264997 2.743227,13.143314 2.626644,13.029094 2.597498,13.000539 2.497493,12.871554 2.472491,12.839308 2.390912,12.697944 2.370517,12.662603 2.308877,12.511479 2.293465,12.473697 2.242761,12.276083 0.664035,3.750967 0.001361,0.172525 0.000623,0.158395 0.000475,0.155569 0.000253,0.151329 0,0.146456 0.001369,0.140016 0.005429,0.120922 0.008419,0.115057 0.017285,0.097664 0.021691,0.092771 0.034755,0.078266 0.040276,0.074682 0.056652,0.064051 0.061293,0.062544 0.06533,0.061233 0.081479,0.055988 0.289252,0.017511 0.376464,0.001361 0.390596,0.000622 0.393421,0.000475 0.397661,0.000253 0.402534,0" style="fill: white" />
    <polygon slic3r:type="hole" points="8.901624,10.286988 8.816984,10.304977 8.758481,10.317413 8.679431,10.352609 8.624793,10.376936 8.554789,10.427797 8.506403,10.462951 8.448502,10.527257 8.408482,10.571704 8.365216,10.646641 8.335312,10.698438 8.308571,10.780734 8.29009,10.837615 8.281045,10.923671 8.274792,10.983152 8.283837,11.06921 8.290089,11.128691 8.316829,11.210987 8.335312,11.267868 8.378577,11.342807 8.408481,11.394602 8.466383,11.458909 8.506403,11.503355 8.576407,11.554216 8.624794,11.589371 8.703844,11.624567 8.758481,11.648893 8.843122,11.666882 8.901625,11.679318 9.047963,11.679318 9.132604,11.661327 9.191106,11.648892 9.270156,11.613696 9.324793,11.589371 9.394799,11.538509 9.443186,11.503354 9.501085,11.439049 9.541105,11.394603 9.58437,11.319665 9.614276,11.267869 9.641014,11.185573 9.659497,11.128691 9.668541,11.042634 9.674794,10.983153 9.665748,10.897095 9.659497,10.837615 9.632758,10.755319 9.614275,10.698437 9.571009,10.623499 9.541105,10.571704 9.483204,10.507397 9.443186,10.462952 9.373179,10.412089 9.324794,10.376936 9.245743,10.341739 9.191106,10.317413 9.106465,10.299422 9.047963,10.286988" style="fill: black" />
    <polygon slic3r:type="hole" points="9.046191,3.286987 8.901625,3.286987 8.816984,3.304977 8.758482,3.317413 8.679431,3.352608 8.624793,3.376935 8.554789,3.427796 8.506403,3.46295 8.448502,3.527256 8.408482,3.571703 8.365216,3.64664 8.335312,3.698437 8.308571,3.780733 8.290089,3.837615 8.281045,3.923671 8.274793,3.983152 8.283837,4.069209 8.290089,4.12869 8.316829,4.210986 8.335312,4.267868 8.378576,4.342806 8.408482,4.394603 8.466382,4.458907 8.506403,4.503354 8.576407,4.554215 8.624794,4.58937 8.703844,4.624566 8.758481,4.648891 8.843122,4.666882 8.901625,4.679318 9.047964,4.679318 9.132603,4.661327 9.191106,4.648892 9.270156,4.613696 9.324793,4.58937 9.3948,4.538508 9.443186,4.503354 9.501086,4.439048 9.541104,4.394603 9.58437,4.319664 9.614276,4.267868 9.641014,4.185572 9.659497,4.12869 9.668541,4.042633 9.674794,3.983152 9.665749,3.897095 9.659496,3.837614 9.632758,3.755318 9.614275,3.698436 9.571009,3.623498 9.541105,3.571703 9.483204,3.507397 9.443186,3.462951 9.373179,3.412088 9.324794,3.376935 9.245743,3.341738 9.191106,3.317413 9.046191,3.28661" style="fill: black" />
  </g>
  <g id="layer6" slic3r:z="2e-06">
    <polygon slic3r:type="contour" points="0.423627,0.004485 0.428068,0.005429 0.447282,0.015224 0.451327,0.017285 0.46735,0.031717 0.470724,0.034756 0.482466,0.052843 0.484939,0.056652 0.48529,0.057731 0.486832,0.062481 0.493001,0.08148 1.956071,7.982048 2.736374,12.195684 2.765972,12.304942 2.778922,12.352743 2.825849,12.455755 2.846381,12.500824 2.909393,12.594861 2.936962,12.636003 3.014391,12.718576 3.048266,12.754701 3.138062,12.823622 3.177349,12.853777 3.277134,12.907221 3.320791,12.930604 3.36766,12.946596 3.474794,12.983153 3.474794,0.983153 9.974794,0.983153 9.974794,2.042431 19.474794,2.042431 19.474794,2.923874 9.974794,2.923874 9.974794,7.045989 19.474794,7.045989 19.474794,7.920316 9.974794,7.920316 9.974794,12.042432 19.474794,12.042432 19.474794,12.923875 9.974794,12.923875 9.974794,13.983153 3.474794,13.983153 3.474794,13.483153 3.287865,13.439246 3.276183,13.436503 3.09694,13.367637 3.085738,13.363333 2.9175,13.270782 2.906985,13.264998 2.752861,13.150473 2.743229,13.143316 2.60607,13.008938 2.597499,13.00054 2.479845,12.848792 2.472491,12.839308 2.376517,12.672998 2.370518,12.662604 2.297999,12.48481 2.293465,12.473697 2.290482,12.462073 2.242761,12.276083 0.77342,4.341644 0.00136,0.172524 0.000492,0.1559 0.000319,0.152576 5.7e-05,0.147588 0,0.146456 0.004486,0.125361 0.00543,0.120922 0.015224,0.101707 0.017285,0.097663 0.031717,0.08164 0.034756,0.078266 0.052844,0.066523 0.056652,0.06405 0.05773,0.063701 0.062481,0.062157 0.08148,0.055988 0.214875,0.031285 0.376465,0.001361 0.393089,0.000492 0.396413,0.000319 0.4014,5.8e-05 0.402535,0" style="fill: white" />
    <polygon slic3r:type="hole" points="8.901624,10.286988 8.802047,10.308152 8.758482,10.317412 8.665481,10.35882 8.624794,10.376936 8.542434,10.436773 8.506403,10.462952 8.438284,10.538605 8.408482,10.571704 8.35758,10.659867 8.335312,10.698437 8.303852,10.795257 8.290089,10.837615 8.279449,10.938858 8.274793,10.983153 8.285434,11.084397 8.29009,11.128691 8.321548,11.22551 8.335312,11.267868 8.386213,11.356032 8.408481,11.394602 8.4766,11.470256 8.506403,11.503355 8.588761,11.563191 8.624793,11.58937 8.717794,11.630778 8.758482,11.648893 8.858059,11.670057 8.901625,11.679318 9.047964,11.679318 9.14754,11.658153 9.191105,11.648893 9.284106,11.607485 9.324793,11.589371 9.407154,11.529533 9.443186,11.503354 9.511303,11.427701 9.541105,11.394603 9.592007,11.306439 9.614275,11.267869 9.645734,11.171049 9.659497,11.128692 9.670138,11.027446 9.674794,10.983152 9.664153,10.881909 9.659497,10.837615 9.628038,10.740795 9.614276,10.698438 9.563373,10.610274 9.541105,10.571703 9.472987,10.49605 9.443186,10.462952 9.360825,10.403114 9.324794,10.376936 9.231794,10.335529 9.191105,10.317412 9.091528,10.296247 9.047964,10.286988" style="fill: black" />
    <polygon slic3r:type="hole" points="8.901625,3.286987 8.802046,3.308153 8.758481,3.317413 8.665482,3.358818 8.624793,3.376935 8.542434,3.436772 8.506403,3.462951 8.438284,3.538604 8.408482,3.571703 8.35758,3.659866 8.335312,3.698436 8.303852,3.795256 8.29009,3.837615 8.279449,3.938857 8.274793,3.983152 8.285434,4.084396 8.29009,4.12869 8.321548,4.225509 8.335312,4.267867 8.386213,4.356031 8.408481,4.394602 8.4766,4.470255 8.506403,4.503354 8.588761,4.56319 8.624793,4.589369 8.717794,4.630777 8.758481,4.648892 8.858059,4.670057 8.901625,4.679318 9.047964,4.679318 9.147541,4.658151 9.191106,4.648892 9.284105,4.607486 9.324794,4.58937 9.407154,4.529532 9.443186,4.503353 9.511303,4.427701 9.541105,4.394603 9.592007,4.306439 9.614275,4.267868 9.645734,4.171048 9.659497,4.128691 9.670137,4.027447 9.674794,3.983152 9.664153,3.881909 9.659496,3.837614 9.628038,3.740794 9.614276,3.698437 9.563373,3.610273 9.541105,3.571702 9.472986,3.496049 9.443186,3.462951 9.360825,3.403113 9.324794,3.376935 9.231793,3.335527 9.191106,3.317412 9.091529,3.296247 9.047964,3.286987" style="fill: black" />
  </g>
  <g id="layer7" slic3r:z="2.3e-06">
    <polygon slic3r:type="contour" points="0.412749,0.002172 0.428068,0.00543 0.437372,0.010172 0.451327,0.017285 0.459086,0.024274 0.470724,0.034756 0.47641,0.043514 0.484939,0.056652 0.485906,0.05963 0.493001,0.08148 1.839024,7.350002 2.736374,12.195684 2.770412,12.321331 2.778923,12.352744 2.832888,12.471207 2.846381,12.500824 2.918845,12.608966 2.936961,12.636002 3.026006,12.730961 3.048267,12.754701 3.151532,12.833961 3.177349,12.853777 3.292102,12.915238 3.320791,12.930604 3.35159,12.941113 3.474794,12.983152 3.474794,0.983153 9.974794,0.983153 9.974794,2.042431 19.474794,2.042431 19.474794,2.923874 9.974794,2.923874 9.974794,7.045989 19.474794,7.045989 19.474794,7.920316 9.974794,7.920316 9.974794,12.042432 19.474794,12.042432 19.474794,12.923875 9.974794,12.923875 9.974794,13.983153 3.474794,13.983153 3.474794,13.483153 3.285771,13.438755 3.276183,13.436503 3.266988,13.43297 3.085738,13.363334 3.077109,13.358587 2.906985,13.264998 2.899079,13.259123 2.743228,13.143315 2.736193,13.136422 2.597498,13.00054 2.591463,12.992755 2.472491,12.839308 2.467568,12.830776 2.370518,12.662604 2.366799,12.653484 2.293466,12.473698 2.291018,12.464158 2.24276,12.276082 0.89792,5.013947 0.001361,0.172525 0.000362,0.153408 0.000162,0.149583 0,0.146455 0.002171,0.136241 0.005429,0.120922 0.010171,0.111618 0.017285,0.097664 0.024273,0.089905 0.034756,0.078265 0.043514,0.072579 0.056652,0.06405 0.059631,0.063083 0.081479,0.055988 0.299284,0.015653 0.376465,0.001361 0.395583,0.000361 0.399407,0.000162 0.402534,0" style="fill: white" />
    <polygon slic3r:type="hole" points="8.901625,10.286988 8.787111,10.311327 8.758482,10.317412 8.651532,10.36503 8.624794,10.376936 8.530081,10.445748 8.506402,10.462952 8.428066,10.549953 8.408481,10.571704 8.349945,10.673091 8.335312,10.698438 8.299135,10.809779 8.29009,10.837614 8.277852,10.954045 8.274793,10.983153 8.287031,11.099584 8.29009,11.128692 8.326267,11.240034 8.335312,11.267869 8.393847,11.369255 8.408482,11.394603 8.486818,11.481604 8.506402,11.503354 8.601115,11.572167 8.624794,11.589371 8.731743,11.636988 8.758482,11.648892 8.83347,11.664831 8.901624,11.679318 9.047963,11.679318 9.162478,11.654977 9.191106,11.648892 9.298055,11.601275 9.324794,11.58937 9.419507,11.520558 9.443185,11.503355 9.52152,11.416353 9.541104,11.394603 9.599642,11.293215 9.614276,11.267868 9.671676,11.091207 9.663437,11.091207 9.671734,11.012261 9.674793,10.983153 9.662555,10.866722 9.659496,10.837614 9.623319,10.726272 9.614275,10.698437 9.555738,10.59705 9.541105,10.571704 9.462769,10.484701 9.443186,10.462952 9.348471,10.394138 9.324793,10.376935 9.217844,10.329318 9.191106,10.317413 9.076592,10.293073 9.047963,10.286988" style="fill: black" />
    <polygon slic3r:type="hole" points="9.016317,3.286987 8.901624,3.286987 8.787111,3.311327 8.758482,3.317413 8.651532,3.365029 8.624794,3.376934 8.530081,3.445747 8.506402,3.462951 8.428066,3.549952 8.408481,3.571703 8.349945,3.67309 8.335312,3.698437 8.299135,3.809778 8.29009,3.837614 8.277853,3.954044 8.274793,3.983152 8.287031,4.099583 8.29009,4.128691 8.326267,4.240033 8.335311,4.267867 8.408482,4.394603 8.486819,4.481604 8.506402,4.503353 8.601115,4.572166 8.624794,4.58937 8.731743,4.636987 8.758482,4.648892 8.872995,4.673232 8.901624,4.679318 9.047964,4.679318 9.162477,4.654977 9.191106,4.648892 9.298055,4.601275 9.324794,4.589369 9.419507,4.520557 9.443186,4.503354 9.521521,4.416352 9.541104,4.394603 9.599642,4.293214 9.614276,4.267867 9.671676,4.091206 9.663437,4.091206 9.671734,4.01226 9.674793,3.983152 9.662555,3.866721 9.659497,3.837615 9.623319,3.726271 9.614275,3.698436 9.555738,3.597049 9.541105,3.571703 9.462769,3.484701 9.443186,3.462951 9.348471,3.394137 9.324793,3.376934 9.217844,3.329317 9.191105,3.317412 9.016317,3.28026" style="fill: black" />
  </g>
  <g id="layer8" slic3r:z="2.6e-06">
    <polygon slic3r:type="contour" points="0.427403,0.005289 0.428069,0.00543 0.450719,0.016975 0.451326,0.017284 0.470217,0.034299 0.470724,0.034756 0.484568,0.056081 0.484939,0.056651 0.48498,0.05678 0.493002,0.081481 1.721979,6.717956 2.736374,12.195684 2.774852,12.33772 2.778923,12.352744 2.839927,12.486659 2.846381,12.500824 2.928298,12.623073 2.936962,12.636003 3.03762,12.743347 3.048266,12.7547 3.165002,12.8443 3.177349,12.853777 3.307069,12.923254 3.320791,12.930604 3.335522,12.93563 3.474794,12.983153 3.474794,0.983153 9.974794,0.983153 9.974794,2.042431 19.474794,2.042431 19.474794,2.923874 9.974794,2.923874 9.974794,7.045989 19.474794,7.045989 19.474794,7.920316 9.974794,7.920316 9.974794,12.042432 19.474794,12.042432 19.474794,12.923875 9.974794,12.923875 9.974794,13.983153 3.474794,13.983153 3.474794,13.483152 3.302208,13.442616 3.276182,13.436502 3.251227,13.426914 3.085738,13.363333 3.062316,13.350449 2.906984,13.264997 2.885528,13.249053 2.743229,13.143315 2.724132,13.124606 2.597499,13.00054 2.581118,12.979412 2.472491,12.839308 2.459128,12.816153 2.370517,12.662603 2.360422,12.637851 2.293466,12.473698 2.286821,12.447803 2.242761,12.276083 1.025787,5.704425 0.001361,0.172525 0.000231,0.150913 5e-06,0.146591 0,0.146456 0.005289,0.121587 0.00543,0.120921 0.016975,0.09827 0.017284,0.097664 0.034299,0.078772 0.034756,0.078265 0.056081,0.064421 0.056652,0.064051 0.05678,0.064009 0.08148,0.055988 0.243081,0.026061 0.376465,0.001361 0.398076,0.000232 0.402399,5e-06 0.402534,0" style="fill: white" />
    <polygon slic3r:type="hole" points="8.901624,10.286988 8.772174,10.314502 8.758482,10.317413 8.637581,10.371242 8.624793,10.376936 8.517727,10.454723 8.506402,10.462951 8.386162,10.596492 8.391239,10.601569 8.34231,10.686316 8.335312,10.698438 8.294416,10.824301 8.290089,10.837615 8.276256,10.969231 8.274792,10.983153 8.288626,11.11477 8.29009,11.128692 8.330985,11.254555 8.335312,11.267868 8.401483,11.382481 8.408482,11.394603 8.497036,11.492952 8.506403,11.503355 8.613469,11.581142 8.624793,11.58937 8.745694,11.6432 8.758482,11.648893 8.887932,11.676407 8.901625,11.679318 9.047963,11.679318 9.177413,11.651803 9.191105,11.648893 9.312006,11.595063 9.324794,11.58937 9.431862,11.511582 9.443185,11.503355 9.531739,11.405004 9.541105,11.394603 9.607276,11.279991 9.614276,11.267869 9.655171,11.142005 9.659497,11.128691 9.67333,10.997074 9.674794,10.983153 9.66096,10.851536 9.659496,10.837614 9.618601,10.711751 9.614276,10.698438 9.548103,10.583825 9.541105,10.571704 9.452551,10.473353 9.443185,10.462951 9.336118,10.385164 9.324794,10.376936 9.203894,10.323106 9.191106,10.317413 9.061655,10.289897 9.047963,10.286988" style="fill: black" />
    <polygon slic3r:type="hole" points="8.901624,3.286987 8.772174,3.314502 8.758481,3.317413 8.637582,3.37124 8.624793,3.376935 8.517727,3.454723 8.506403,3.46295 8.386162,3.596491 8.391239,3.601568 8.34231,3.686315 8.335312,3.698437 8.294416,3.824301 8.290089,3.837614 8.276256,3.96923 8.274792,3.983152 8.288626,4.114769 8.29009,4.12869 8.330986,4.254556 8.335311,4.267867 8.401483,4.38248 8.408481,4.394602 8.497037,4.492952 8.506403,4.503354 8.61347,4.581143 8.624793,4.589369 8.745694,4.643199 8.758482,4.648892 8.887932,4.676407 8.901625,4.679318 9.047963,4.679318 9.177414,4.651802 9.191106,4.648891 9.312005,4.595064 9.324794,4.589369 9.431862,4.511581 9.443186,4.503353 9.531738,4.405005 9.541105,4.394602 9.607277,4.27999 9.614275,4.267868 9.655172,4.142002 9.659497,4.12869 9.67333,3.997073 9.674794,3.983151 9.66096,3.851536 9.659497,3.837615 9.6186,3.711749 9.614276,3.698437 9.548103,3.583824 9.541105,3.571703 9.452552,3.473354 9.443185,3.462951 9.336117,3.385161 9.324794,3.376935 9.203893,3.323105 9.191106,3.317413 9.061655,3.289897 9.047963,3.286987" style="fill: black" />
  </g>
  <g id="layer9" slic3r:z="2.9e-06">
    <polygon slic3r:type="contour" points="0.416523,0.002974 0.428069,0.005429 0.440809,0.011924 0.451327,0.017285 0.461952,0.026855 0.470724,0.034756 0.478512,0.046751 0.484938,0.056651 0.485674,0.058918 0.493001,0.081481 1.604933,6.085911 2.736374,12.195684 2.778924,12.352748 2.846379,12.50082 2.936961,12.636001 3.048269,12.754703 3.177349,12.853777 3.320791,12.930604 3.474794,12.983153 3.474794,0.983153 9.974794,0.983153 9.974794,2.042431 19.474794,2.042431 19.474794,2.923874 9.974794,2.923874 9.974794,7.045989 19.474794,7.045989 19.474794,7.920316 9.974794,7.920316 9.974794,12.042432 19.474794,12.042432 19.474794,12.923875 9.974794,12.923875 9.974794,13.983153 3.474794,13.983153 3.474794,13.483153 3.318643,13.446475 3.276182,13.436503 3.235467,13.42086 3.085738,13.363333 3.047522,13.342309 2.906984,13.264997 2.871975,13.238983 2.743229,13.143316 2.712072,13.11279 2.597498,13.000539 2.570773,12.96607 2.472491,12.839307 2.450689,12.801529 2.370518,12.662604 2.354045,12.622217 2.293466,12.473697 2.282626,12.431449 2.242761,12.276083 1.131805,6.276928 0.001361,0.172524 0.000102,0.14842 0,0.146456 0.002974,0.132466 0.005429,0.120922 0.011924,0.10818 0.017284,0.097664 0.026856,0.087036 0.034755,0.078266 0.04675,0.070479 0.056652,0.064051 0.058918,0.063315 0.081479,0.055988 0.22769,0.028911 0.376464,0.001361 0.40057,0.000101 0.402534,0" style="fill: white" />
    <polygon slic3r:type="hole" points="8.901626,10.286988 8.758482,10.317412 8.624795,10.376935 8.506405,10.46295 8.408482,10.571703 8.335312,10.698437 8.29009,10.837614 8.274792,10.983153 8.29009,11.128692 8.335312,11.267869 8.408483,11.394605 8.506404,11.503356 8.624794,11.589371 8.758483,11.648893 8.901624,11.679318 9.047962,11.679318 9.191105,11.648893 9.324792,11.589371 9.443183,11.503356 9.541104,11.394603 9.614275,11.267869 9.659496,11.128692 9.674794,10.983152 9.659496,10.837614 9.614275,10.698437 9.541103,10.571701 9.443184,10.46295 9.324793,10.376935 9.191104,10.317412 9.047964,10.286988" style="fill: black" />
    <polygon slic3r:type="hole" points="8.901626,3.286987 8.758478,3.317413 8.624795,3.376934 8.506405,3.462949 8.408482,3.571702 8.335312,3.698436 8.290089,3.837615 8.274792,3.983152 8.29009,4.128691 8.335312,4.267868 8.408481,4.394602 8.506404,4.503355 8.624794,4.58937 8.758483,4.648892 8.901625,4.679318 9.047967,4.679318 9.191109,4.648891 9.324792,4.58937 9.443186,4.503353 9.541104,4.394603 9.614275,4.267868 9.659496,4.128691 9.674793,3.983152 9.659496,3.837612 9.614275,3.698436 9.541103,3.5717 9.443184,3.462949 9.324793,3.376934 9.191104,3.317412 9.047964,3.286987" style="fill: black" />
  </g>
  <g id="layer10" slic3r:z="3.2e-06">
    <polygon slic3r:type="contour" points="0.405642,0.000659 0.428069,0.00543 0.4309,0.006874 0.451326,0.017285 0.453687,0.019411 0.470723,0.034755 0.472455,0.037422 0.484939,0.056652 0.485135,0.057256 0.486447,0.061294 0.493001,0.08148 1.487888,5.453866 2.736374,12.195684 2.774112,12.334988 2.778923,12.352744 2.786548,12.369483 2.84638,12.500823 2.85662,12.516105 2.936961,12.636003 2.949543,12.64942 3.048266,12.7547 3.062858,12.7659 3.177349,12.853777 3.193564,12.862462 3.32079,12.930603 3.3382,12.936544 3.474794,12.983153 3.474794,0.983153 9.974794,0.983153 9.974794,2.042431 19.474794,2.042431 19.474794,2.923874 9.974794,2.923874 9.974794,7.045989 19.474794,7.045989 19.474794,7.920316 9.974794,7.920316 9.974794,12.042432 19.474794,12.042432 19.474794,12.923875 9.974794,12.923875 9.974794,13.983153 3.474794,13.983153 3.474794,13.483153 3.33508,13.450336 3.276182,13.436503 3.219706,13.414805 3.085738,13.363333 3.032729,13.334172 2.906985,13.264998 2.858422,13.228912 2.743229,13.143316 2.700012,13.100975 2.597499,13.00054 2.560428,12.952726 2.472491,12.839308 2.44225,12.786905 2.370518,12.662604 2.347667,12.606583 2.293466,12.473697 2.278429,12.415095 2.242761,12.276083 1.248748,6.908417 0.00136,0.172524 3.2e-05,0.14709 0,0.146455 0.00066,0.143346 0.005429,0.120922 0.006872,0.11809 0.017285,0.097663 0.019411,0.095302 0.034756,0.078266 0.037421,0.076536 0.056652,0.06405 0.057256,0.063854 0.061293,0.062544 0.08148,0.055987 0.2123,0.031761 0.376464,0.00136 0.4019,3.1e-05 0.402535,0" style="fill: white" />
    <polygon slic3r:type="hole" points="8.901624,10.286988 8.885444,10.290426 8.758482,10.317412 8.743369,10.324141 8.624794,10.376936 8.611411,10.386659 8.506402,10.462952 8.495333,10.475246 8.408481,10.571704 8.40021,10.58603 8.335311,10.698438 8.3302,10.71417 8.290089,10.837615 8.28836,10.854067 8.274792,10.983153 8.276521,10.999604 8.29009,11.128692 8.295201,11.144424 8.335312,11.267869 8.343582,11.282194 8.408481,11.394602 8.41955,11.406896 8.506402,11.503354 8.519786,11.513079 8.624793,11.58937 8.639907,11.5961 8.758482,11.648893 8.774663,11.652332 8.901624,11.679318 9.047964,11.679318 9.064144,11.675879 9.191105,11.648893 9.206219,11.642163 9.324793,11.589371 9.338177,11.579646 9.443186,11.503354 9.454255,11.49106 9.541104,11.394603 9.549377,11.380276 9.614276,11.267869 9.640611,11.186816 9.659497,11.128691 9.661225,11.11224 9.674794,10.983152 9.673065,10.966701 9.659497,10.837614 9.654385,10.821882 9.614276,10.698437 9.606003,10.684111 9.541105,10.571704 9.530035,10.559409 9.443186,10.462952 9.429803,10.453228 9.324794,10.376936 9.30968,10.370206 9.191106,10.317413 9.174924,10.313973 9.047964,10.286988" style="fill: black" />
    <polygon slic3r:type="hole" points="8.901625,3.286987 8.885443,3.290427 8.758481,3.317413 8.743369,3.32414 8.624794,3.376935 8.61141,3.386658 8.506403,3.46295 8.495334,3.475244 8.408481,3.571703 8.400211,3.586029 8.335311,3.698437 8.330199,3.71417 8.290089,3.837615 8.288361,3.854066 8.274793,3.983152 8.276521,3.999604 8.29009,4.128691 8.295201,4.144423 8.335312,4.267868 8.343583,4.282195 8.408481,4.394602 8.41955,4.406895 8.506403,4.503353 8.519786,4.513078 8.624793,4.589369 8.639907,4.596099 8.758481,4.648892 8.774663,4.652332 8.901624,4.679318 9.047964,4.679318 9.064144,4.675879 9.191106,4.648891 9.206218,4.642164 9.324793,4.58937 9.338176,4.579647 9.443185,4.503354 9.454255,4.49106 9.541104,4.394603 9.549377,4.380275 9.614276,4.267868 9.640611,4.186815 9.659497,4.12869 9.661225,4.112239 9.674794,3.983151 9.673065,3.9667 9.659497,3.837614 9.654385,3.821881 9.614275,3.698436 9.606004,3.68411 9.541105,3.571703 9.530035,3.559408 9.443186,3.462951 9.429803,3.453228 9.324794,3.376935 9.30968,3.370205 9.191106,3.317413 9.174924,3.313972 9.047964,3.286987" style="fill: black" />
  </g>
  <g id="layer11" slic3r:z="3.5e-06">
    <polygon slic3r:type="contour" points="0.420297,0.003776 0.428069,0.00543 0.444248,0.013677 0.451327,0.017285 0.46482,0.029438 0.470723,0.034755 0.480613,0.049988 0.484938,0.056652 0.486061,0.060106 0.487217,0.063668 0.493002,0.081481 1.370842,4.82182 2.736374,12.195683 2.769673,12.318601 2.778922,12.352743 2.793586,12.384934 2.846381,12.500823 2.866072,12.530211 2.936961,12.636002 2.961158,12.661806 3.048267,12.754701 3.076327,12.776238 3.177349,12.853777 3.208532,12.870479 3.320484,12.93044 3.320484,12.930499 3.474794,12.983153 3.474794,0.983153 9.974794,0.983153 9.974794,2.042431 19.474794,2.042431 19.474794,2.923874 9.974794,2.923874 9.974794,7.045989 19.474794,7.045989 19.474794,7.920316 9.974794,7.920316 9.974794,12.042432 19.474794,12.042432 19.474794,12.923875 9.974794,12.923875 9.974794,13.983153 3.474794,13.983153 3.474794,13.483153 3.351517,13.454197 3.276182,13.436502 3.203944,13.408748 3.085738,13.363333 3.017935,13.326033 2.906984,13.264997 2.844871,13.218843 2.743228,13.143315 2.687952,13.08916 2.597498,13.000539 2.550082,12.939383 2.472491,12.839307 2.433811,12.772281 2.370517,12.662603 2.341292,12.59095 2.293466,12.473698 2.274232,12.39874 2.24276,12.276082 1.358133,7.499094 0.00136,0.172524 0.000189,0.150083 0,0.146455 0.003776,0.128693 0.00543,0.120922 0.013676,0.104742 0.017285,0.097664 0.029439,0.084169 0.034756,0.078266 0.049988,0.068377 0.056652,0.064051 0.060106,0.062929 0.063669,0.061772 0.081479,0.055988 0.196909,0.034611 0.376464,0.001361 0.398907,0.000189 0.402535,0" style="fill: white" />
    <polygon slic3r:type="hole" points="8.901624,10.286988 8.830981,10.302002 8.830981,10.302003 8.758481,10.317413 8.729419,10.330352 8.624794,10.376936 8.599056,10.395635 8.506403,10.462952 8.485116,10.486593 8.408482,10.571704 8.392574,10.599255 8.335312,10.698437 8.32548,10.728694 8.29009,10.837615 8.286765,10.869253 8.274793,10.983152 8.278118,11.014791 8.29009,11.128692 8.29992,11.158947 8.335312,11.267869 8.351217,11.295419 8.408482,11.394603 8.429768,11.418244 8.506403,11.503355 8.532139,11.522053 8.624794,11.589371 8.653856,11.60231 8.758482,11.648893 8.7896,11.655507 8.901625,11.679318 9.047964,11.679318 9.079081,11.672704 9.191105,11.648893 9.220169,11.635952 9.324794,11.58937 9.350531,11.570671 9.443186,11.503355 9.464473,11.479712 9.541105,11.394602 9.557012,11.367051 9.614275,11.267869 9.624106,11.237613 9.659497,11.128691 9.662822,11.097052 9.674794,10.983153 9.671468,10.951513 9.659497,10.837615 9.649666,10.807359 9.614275,10.698437 9.598368,10.670886 9.541105,10.571704 9.519817,10.548061 9.443186,10.462951 9.417448,10.444252 9.324794,10.376936 9.295731,10.363996 9.191105,10.317412 9.159987,10.310798 9.047964,10.286988" style="fill: black" />
    <polygon slic3r:type="hole" points="8.901625,3.286987 8.870507,3.293601 8.758481,3.317413 8.729419,3.330351 8.624793,3.376935 8.599056,3.395634 8.506403,3.462951 8.485116,3.486592 8.408482,3.571703 8.392574,3.599254 8.335312,3.698436 8.32548,3.728693 8.29009,3.837614 8.286765,3.869252 8.274793,3.983151 8.278118,4.01479 8.29009,4.128691 8.29992,4.158946 8.335312,4.267868 8.351217,4.295418 8.408482,4.394603 8.429768,4.418243 8.506402,4.503354 8.532139,4.522052 8.624794,4.58937 8.653856,4.602309 8.758482,4.648892 8.789599,4.655506 8.901625,4.679318 9.047964,4.679318 9.079082,4.672703 9.191106,4.648892 9.220168,4.635953 9.324794,4.58937 9.35053,4.570671 9.443186,4.503354 9.464472,4.479713 9.541105,4.394602 9.557012,4.367051 9.614275,4.267868 9.624106,4.237612 9.659497,4.12869 9.662822,4.097051 9.674794,3.983152 9.671468,3.951513 9.659497,3.837615 9.649665,3.807358 9.614276,3.698437 9.598368,3.670885 9.541105,3.571703 9.519817,3.54806 9.443186,3.46295 9.417448,3.444251 9.324794,3.376935 9.295731,3.363995 9.191105,3.317412 9.159988,3.310799 9.047964,3.286987" style="fill: black" />
  </g>
  <g id="layer12" slic3r:z="3.8e-06">
    <polygon slic3r:type="contour" points="0.409417,0.001462 0.428069,0.00543 0.434338,0.008626 0.451326,0.017285 0.456556,0.021995 0.470724,0.034756 0.474555,0.040657 0.484938,0.056651 0.485481,0.058324 0.486986,0.062956 0.487988,0.066043 0.493002,0.081481 1.253797,4.189775 2.736374,12.195683 2.765232,12.302211 2.778923,12.352744 2.800626,12.400386 2.846381,12.500824 2.875523,12.544315 2.936962,12.636003 2.972773,12.674193 3.048266,12.7547 3.089797,12.786577 3.177348,12.853776 3.2235,12.878495 3.32079,12.930603 3.370339,12.94751 3.474794,12.983152 3.474794,0.983153 9.974794,0.983153 9.974794,2.042431 19.474794,2.042431 19.474794,2.923874 9.974794,2.923874 9.974794,7.045989 19.474794,7.045989 19.474794,7.920316 9.974794,7.920316 9.974794,12.042432 19.474794,12.042432 19.474794,12.923875 9.974794,12.923875 9.974794,13.983153 3.474794,13.983153 3.474794,13.483153 3.367955,13.458059 3.276182,13.436502 3.188184,13.402694 3.085739,13.363334 3.003141,13.317895 2.906985,13.264998 2.831318,13.208772 2.743228,13.143315 2.675892,13.077344 2.597498,13.000539 2.539736,12.926039 2.47249,12.839307 2.425372,12.757658 2.370517,12.662603 2.362955,12.644061 2.293466,12.473698 2.270036,12.382385 2.242761,12.276082 1.482633,8.171397 0.001361,0.172525 8.7e-05,0.148154 0,0.146456 0.001462,0.139573 0.00543,0.120922 0.008625,0.114652 0.017285,0.097664 0.021994,0.092435 0.034756,0.078265 0.040657,0.074434 0.056652,0.064051 0.058324,0.063508 0.062956,0.062003 0.066043,0.061001 0.081479,0.055988 0.181519,0.037462 0.376465,0.00136 0.395914,0.000345 0.400777,9.1e-05 0.402535,0" style="fill: white" />
    <polygon slic3r:type="hole" points="8.901625,10.286988 8.855569,10.296777 8.758482,10.317413 8.715468,10.336564 8.624794,10.376935 8.586703,10.40461 8.506402,10.462952 8.474898,10.497941 8.408482,10.571704 8.384939,10.612479 8.335312,10.698437 8.331965,10.708737 8.29009,10.837615 8.285169,10.884439 8.274793,10.983152 8.279714,11.029978 8.29009,11.128692 8.30464,11.173471 8.335311,11.267868 8.358853,11.308644 8.408482,11.394603 8.439986,11.429592 8.506403,11.503354 8.544493,11.531029 8.624794,11.589371 8.667807,11.608522 8.758481,11.648893 8.804537,11.658682 8.901625,11.679318 9.047963,11.679318 9.094018,11.669528 9.191106,11.648893 9.234119,11.629741 9.324794,11.589371 9.362884,11.561696 9.443185,11.503355 9.474689,11.468365 9.541105,11.394603 9.564647,11.353827 9.614276,11.267869 9.628825,11.223089 9.659497,11.128692 9.664418,11.081866 9.674794,10.983152 9.669872,10.936328 9.659497,10.837614 9.644947,10.792835 9.614276,10.698438 9.590733,10.657662 9.541105,10.571704 9.5096,10.536713 9.443186,10.462951 9.405095,10.435277 9.324794,10.376936 9.28178,10.357784 9.191106,10.317413 9.145051,10.307623 9.047964,10.286988" style="fill: black" />
    <polygon slic3r:type="hole" points="8.901625,3.286987 8.855569,3.296776 8.758482,3.317412 8.715468,3.336563 8.624794,3.376934 8.586703,3.404609 8.506402,3.462951 8.474898,3.49794 8.408482,3.571703 8.384939,3.612478 8.335312,3.698436 8.320761,3.743216 8.290089,3.837615 8.285168,3.88444 8.274793,3.983152 8.279714,4.029977 8.29009,4.128691 8.30464,4.17347 8.335311,4.267867 8.358852,4.308643 8.408482,4.394603 8.439986,4.429591 8.506403,4.503354 8.544493,4.531028 8.624794,4.58937 8.667807,4.608521 8.758481,4.648892 8.804537,4.658681 8.901624,4.679318 9.047963,4.679318 9.094018,4.669528 9.191105,4.648892 9.234119,4.629741 9.324793,4.58937 9.362885,4.561695 9.443185,4.503354 9.47469,4.468364 9.541104,4.394603 9.564646,4.353827 9.614276,4.267868 9.628825,4.223088 9.659497,4.128691 9.664418,4.081865 9.674793,3.983151 9.669871,3.936326 9.659497,3.837615 9.644947,3.792835 9.614276,3.698437 9.590733,3.657661 9.541105,3.571703 9.5096,3.536712 9.443186,3.46295 9.405095,3.435276 9.324794,3.376935 9.28178,3.357783 9.191106,3.317413 9.145052,3.307624 9.047964,3.286987" style="fill: black" />
  </g>
  <g id="layer13" slic3r:z="4.1e-06">
    <polygon slic3r:type="contour" points="0.424072,0.00458 0.428068,0.005429 0.447687,0.01543 0.451327,0.017285 0.467688,0.032022 0.470723,0.034755 0.482713,0.053224 0.484938,0.056651 0.486639,0.061888 0.487912,0.065806 0.48876,0.068419 0.493002,0.08148 1.136751,3.55773 2.736374,12.195683 2.760793,12.285823 2.778923,12.352744 2.807665,12.415838 2.846381,12.500824 2.884975,12.558421 2.936962,12.636003 2.984386,12.686578 3.048266,12.7547 3.103266,12.796915 3.177349,12.853777 3.238468,12.886512 3.32079,12.930603 3.386409,12.952994 3.474794,12.983153 3.474794,0.983153 9.974794,0.983153 9.974794,2.042431 19.474794,2.042431 19.474794,2.923874 9.974794,2.923874 9.974794,7.045989 19.474794,7.045989 19.474794,7.920316 9.974794,7.920316 9.974794,12.042432 19.474794,12.042432 19.474794,12.923875 9.974794,12.923875 9.974794,13.983153 3.474794,13.983153 3.474794,13.483152 3.38439,13.461918 3.276183,13.436503 3.172424,13.396639 3.085738,13.363333 2.988349,13.309758 2.906984,13.264997 2.817765,13.198701 2.743228,13.143315 2.66383,13.065527 2.597499,13.00054 2.52939,12.912695 2.47249,12.839307 2.416934,12.743035 2.370518,12.662604 2.328537,12.559682 2.293466,12.473698 2.26584,12.366031 2.242761,12.276083 1.599576,8.802888 0.001361,0.172525 0.000285,0.151952 0,0.146455 0.00458,0.124917 0.005429,0.120922 0.01543,0.101303 0.017284,0.097664 0.032021,0.081301 0.034755,0.078266 0.053224,0.066276 0.056651,0.064051 0.061887,0.06235 0.065805,0.061079 0.068417,0.06023 0.08148,0.055988 0.166127,0.040313 0.376464,0.001361 0.392923,0.0005 0.397037,0.000286 0.402534,0" style="fill: white" />
    <polygon slic3r:type="hole" points="8.901625,10.286988 8.840634,10.299951 8.758481,10.317413 8.701518,10.342775 8.624794,10.376935 8.574348,10.413586 8.506402,10.462952 8.46468,10.509289 8.408481,10.571704 8.377304,10.625704 8.335311,10.698438 8.316043,10.757739 8.290089,10.837615 8.277778,10.954743 8.277779,10.954743 8.274793,10.983153 8.28131,11.045164 8.29009,11.128692 8.309358,11.187993 8.335312,11.267869 8.366488,11.321868 8.408482,11.394603 8.46507,11.457451 8.465071,11.457451 8.506403,11.503354 8.556847,11.540004 8.624794,11.589371 8.681756,11.614732 8.758482,11.648893 8.819472,11.661856 8.901625,11.679318 9.047964,11.679318 9.108954,11.666354 9.191106,11.648892 9.248068,11.623531 9.324793,11.589371 9.375239,11.55272 9.443186,11.503354 9.484907,11.457017 9.541105,11.394603 9.572281,11.340603 9.614275,11.267869 9.633543,11.208567 9.659497,11.128691 9.666015,11.066679 9.674794,10.983152 9.668276,10.921141 9.659497,10.837615 9.640228,10.778312 9.614275,10.698437 9.583098,10.644437 9.562439,10.608655 9.574375,10.608655 9.443186,10.462952 9.39274,10.426301 9.324793,10.376935 9.26783,10.351573 9.191106,10.317413 9.130115,10.304449 9.047963,10.286988" style="fill: black" />
    <polygon slic3r:type="hole" points="8.901625,3.286987 8.840633,3.299951 8.758482,3.317413 8.701518,3.342774 8.624794,3.376934 8.574348,3.413585 8.506402,3.462951 8.46468,3.509288 8.408481,3.571703 8.377304,3.625703 8.335311,3.698437 8.316043,3.757738 8.29009,3.837614 8.283571,3.899626 8.274793,3.983152 8.28131,4.045163 8.29009,4.12869 8.309359,4.187992 8.335311,4.267868 8.366488,4.321867 8.408481,4.394602 8.450204,4.440939 8.506403,4.503354 8.556848,4.540005 8.624794,4.58937 8.681756,4.614731 8.758482,4.648892 8.819473,4.661856 8.901625,4.679318 9.047964,4.679318 9.108954,4.666354 9.191106,4.648891 9.248069,4.62353 9.324793,4.58937 9.375239,4.552719 9.443185,4.503353 9.449722,4.496094 9.541105,4.394603 9.572281,4.340603 9.614276,4.267868 9.633544,4.208566 9.659497,4.12869 9.666015,4.066678 9.674794,3.983152 9.668275,3.92114 9.659497,3.837615 9.640228,3.778312 9.614276,3.698437 9.583098,3.644436 9.562439,3.608654 9.574375,3.608654 9.443186,3.462951 9.39274,3.4263 9.324793,3.376934 9.267831,3.351573 9.191106,3.317413 9.130114,3.304448 9.047963,3.286987" style="fill: black" />
  </g>
  <g id="layer14" slic3r:z="4.4e-06">
    <polygon slic3r:type="contour" points="0.413192,0.002265 0.428069,0.00543 0.437776,0.010378 0.451326,0.017284 0.459423,0.024578 0.470724,0.034756 0.476656,0.043894 0.484939,0.056652 0.486061,0.060106 0.487795,0.065449 0.488837,0.068655 0.489531,0.070793 0.493002,0.081481 1.019706,2.925684 2.736374,12.195684 2.756352,12.269433 2.778923,12.352744 2.814704,12.43129 2.846381,12.500824 2.894427,12.572527 2.936962,12.636003 2.996001,12.698964 3.048267,12.754701 3.116736,12.807253 3.177348,12.853776 3.253435,12.894528 3.320791,12.930604 3.402478,12.958477 3.474794,12.983153 3.474794,0.983153 9.974794,0.983153 9.974794,13.983153 3.474794,13.983153 3.474794,13.483153 3.400827,13.465779 3.276182,13.436502 3.088866,13.364535 3.085739,13.363334 2.973555,13.301619 2.906985,13.264998 2.850603,13.223102 2.743228,13.143315 2.65177,13.053711 2.597498,13.00054 2.519046,12.899353 2.47249,12.839307 2.408495,12.728411 2.370517,12.662603 2.322161,12.544049 2.293466,12.473697 2.261643,12.349677 2.242761,12.276083 1.716518,9.434378 0.001361,0.172524 0.000658,0.15906 0.000482,0.155693 0.000188,0.150082 0,0.146455 0.002265,0.135798 0.00543,0.120922 0.010378,0.111213 0.017285,0.097664 0.024577,0.089566 0.034756,0.078265 0.043895,0.072332 0.056651,0.064051 0.060105,0.06293 0.06545,0.061193 0.068655,0.060153 0.070793,0.059458 0.081479,0.055988 0.150738,0.043162 0.376464,0.001361 0.38993,0.000658 0.393296,0.000482 0.398908,0.000188 0.402535,0" style="fill: white" />
    <polygon slic3r:type="hole" points="8.901624,10.286988 8.825697,10.303125 8.758482,10.317413 8.757765,10.317732 8.757765,10.317731 8.624793,10.376936 8.561995,10.422561 8.506402,10.462952 8.454461,10.520638 8.408481,10.571704 8.36967,10.638927 8.335311,10.698438 8.311325,10.772261 8.29009,10.837615 8.281976,10.914812 8.274793,10.983153 8.282906,11.060351 8.29009,11.128692 8.32528,11.236995 8.335312,11.267869 8.374123,11.335092 8.408482,11.394603 8.460423,11.452289 8.506403,11.503355 8.569202,11.548981 8.624793,11.589371 8.695707,11.620944 8.758481,11.648893 8.834409,11.66503 8.901625,11.679318 9.047964,11.679318 9.123892,11.663179 9.191105,11.648893 9.262019,11.617319 9.324794,11.589371 9.387592,11.543745 9.443186,11.503355 9.495125,11.445669 9.541105,11.394602 9.579917,11.327378 9.614276,11.267869 9.638263,11.194044 9.659497,11.128691 9.66761,11.051493 9.674794,10.983153 9.666679,10.905954 9.659497,10.837614 9.635509,10.76379 9.614276,10.698437 9.575463,10.631213 9.541105,10.571703 9.489164,10.514017 9.443185,10.462951 9.380386,10.417325 9.324794,10.376936 9.253881,10.345363 9.191106,10.317413 9.115177,10.301274 9.047964,10.286988" style="fill: black" />
    <polygon slic3r:type="hole" points="8.901624,3.286987 8.786171,3.311527 8.758482,3.317413 8.687568,3.348985 8.624794,3.376935 8.561995,3.42256 8.506402,3.462951 8.454461,3.520637 8.408481,3.571703 8.36967,3.638926 8.335311,3.698437 8.311325,3.772261 8.29009,3.837615 8.281976,3.914812 8.274793,3.983152 8.282906,4.06035 8.29009,4.128691 8.32528,4.236994 8.335312,4.267868 8.388528,4.360043 8.408482,4.394602 8.460423,4.452288 8.506403,4.503354 8.569201,4.548979 8.624793,4.58937 8.695707,4.620943 8.758482,4.648892 8.834409,4.66503 8.901625,4.679318 9.047964,4.679318 9.123892,4.663178 9.191105,4.648892 9.262019,4.617319 9.324794,4.58937 9.387592,4.543744 9.443185,4.503354 9.495125,4.445669 9.541105,4.394602 9.579916,4.327378 9.614276,4.267867 9.638263,4.194043 9.659497,4.12869 9.66761,4.051492 9.674794,3.983152 9.666679,3.905953 9.659496,3.837614 9.635509,3.763789 9.614276,3.698436 9.575463,3.631212 9.541105,3.571702 9.489164,3.514016 9.443185,3.46295 9.380386,3.417324 9.324794,3.376935 9.25388,3.345361 9.191105,3.317413 9.115177,3.301273 9.047964,3.286987" style="fill: black" />
  </g>
  <g id="layer15" slic3r:z="4.7e-06">
    <polygon slic3r:type="contour" points="0.427847,0.005383 0.428068,0.00543 0.451124,0.017181 0.451327,0.017285 0.470555,0.034603 0.470724,0.034756 0.484814,0.056461 0.484939,0.056651 0.487602,0.064855 0.488953,0.069012 0.489763,0.071506 0.490302,0.073167 0.493002,0.081481 0.902661,2.293639 2.736374,12.195683 2.751913,12.253045 2.778922,12.352743 2.821743,12.446742 2.846381,12.500824 2.903879,12.586632 2.936961,12.636002 3.007615,12.711349 3.048267,12.754701 3.130206,12.817593 3.177348,12.853776 3.268402,12.902544 3.320791,12.930604 3.474794,12.983152 3.474794,0.983153 9.974794,0.983153 9.974794,13.983153 3.474794,13.983153 3.474794,13.483152 3.417264,13.46964 3.276183,13.436502 3.140901,13.384527 3.085738,13.363334 2.958762,13.293482 2.906985,13.264998 2.790661,13.178561 2.743228,13.143315 2.639709,13.041895 2.597499,13.00054 2.508699,12.886009 2.472491,12.839308 2.400054,12.713786 2.370517,12.662603 2.315784,12.528415 2.293465,12.473697 2.257447,12.333322 2.242761,12.276082 1.833461,10.065867 0.001361,0.172525 0.000813,0.162051 0.000677,0.159434 0.000449,0.15507 0,0.146455 0.005383,0.121143 0.00543,0.120922 0.017181,0.097866 0.017285,0.097663 0.034604,0.078434 0.034756,0.078265 0.05646,0.064175 0.056651,0.064051 0.064855,0.061387 0.069011,0.060037 0.071506,0.059226 0.073167,0.058688 0.08148,0.055987 0.135346,0.046013 0.376465,0.00136 0.386937,0.000814 0.389556,0.000677 0.39392,0.000449 0.402535,0" style="fill: white" />
    <polygon slic3r:type="hole" points="8.901625,10.286988 8.81076,10.3063 8.758481,10.317413 8.673618,10.355197 8.624794,10.376935 8.54964,10.431537 8.506402,10.462952 8.444243,10.531986 8.408482,10.571704 8.362035,10.652152 8.335312,10.698437 8.306606,10.786784 8.29009,10.837615 8.28038,10.929999 8.274793,10.983153 8.284503,11.075538 8.29009,11.128692 8.318795,11.217038 8.335312,11.267869 8.381758,11.348317 8.408482,11.394603 8.47064,11.463636 8.506402,11.503354 8.581556,11.557956 8.624794,11.589371 8.709656,11.627154 8.758482,11.648893 8.849346,11.668205 8.901625,11.679318 9.047964,11.679318 9.138827,11.660005 9.191106,11.648892 9.275968,11.611109 9.324793,11.589371 9.399947,11.534769 9.443185,11.503355 9.505343,11.43432 9.541104,11.394603 9.587553,11.314153 9.614276,11.267869 9.642981,11.179522 9.659497,11.128692 9.669207,11.036305 9.674793,10.983153 9.665083,10.890767 9.659497,10.837615 9.63079,10.749267 9.614276,10.698438 9.567827,10.617988 9.541105,10.571704 9.478947,10.502669 9.443186,10.462952 9.368032,10.40835 9.324794,10.376936 9.23993,10.339151 9.191106,10.317413 9.100242,10.2981 9.047964,10.286988" style="fill: black" />
    <polygon slic3r:type="hole" points="8.901625,3.286987 8.81076,3.3063 8.758481,3.317413 8.673619,3.355195 8.624794,3.376934 8.549641,3.431536 8.506402,3.462951 8.444243,3.531985 8.408482,3.571703 8.362035,3.652151 8.335312,3.698436 8.317809,3.752304 8.29009,3.837614 8.28038,3.929998 8.274793,3.983152 8.284503,4.075537 8.29009,4.128691 8.318795,4.217037 8.335312,4.267868 8.381758,4.348316 8.408482,4.394602 8.470641,4.463636 8.506403,4.503354 8.581555,4.557955 8.624794,4.58937 8.709656,4.627153 8.758482,4.648892 8.849346,4.668205 8.901625,4.679318 9.047963,4.679318 9.138827,4.660004 9.191106,4.648891 9.275968,4.611109 9.324793,4.58937 9.399947,4.534768 9.443185,4.503354 9.505342,4.434321 9.541104,4.394603 9.587553,4.314153 9.614276,4.267867 9.642981,4.179521 9.659497,4.128691 9.669207,4.036305 9.674794,3.983152 9.665083,3.890767 9.659497,3.837614 9.630791,3.749267 9.614276,3.698437 9.567827,3.617987 9.541105,3.571703 9.478947,3.502668 9.443186,3.462951 9.368033,3.408349 9.324793,3.376934 9.239931,3.339151 9.191106,3.317413 9.100241,3.298098 9.047964,3.286987" style="fill: black" />
  </g>
  <g id="layer16" slic3r:z="5e-06">
    <polygon slic3r:type="contour" points="0.416967,0.003069 0.428068,0.005429 0.441214,0.01213 0.451327,0.017285 0.462291,0.02716 0.470724,0.034756 0.478758,0.047131 0.484939,0.056652 0.487218,0.063669 0.489146,0.069606 0.490109,0.072574 0.490689,0.074356 0.491073,0.075542 0.493001,0.08148 0.785615,1.661594 2.736374,12.195684 2.747472,12.236655 2.778923,12.352744 2.828782,12.462193 2.846381,12.500824 2.913332,12.600739 2.936962,12.636003 3.01923,12.723735 3.048267,12.754701 3.143674,12.82793 3.177349,12.853777 3.28337,12.910561 3.320791,12.930604 3.474794,12.983153 3.474794,0.983153 9.974794,0.983153 9.974794,13.983153 3.474794,13.983153 3.474794,13.483152 3.433702,13.473501 3.276183,13.436503 3.12514,13.378471 3.085738,13.363333 2.943969,13.285343 2.906985,13.264998 2.777109,13.168491 2.743229,13.143316 2.627649,13.030079 2.597498,13.000539 2.498355,12.872666 2.47249,12.839307 2.391615,12.699162 2.370517,12.662603 2.296741,12.481728 2.293466,12.473698 2.269237,12.37927 2.269238,12.37927 2.242761,12.276083 1.950404,10.697357 0.001361,0.172525 0.000969,0.165043 0.000873,0.163174 0.000383,0.153822 0,0.146455 0.003068,0.132023 0.00543,0.120922 0.01213,0.107776 0.017285,0.097664 0.027159,0.0867 0.034755,0.078266 0.047132,0.070231 0.056652,0.06405 0.063669,0.061772 0.069605,0.059845 0.072574,0.05888 0.074355,0.058302 0.075542,0.057916 0.08148,0.055988 0.119957,0.048862 0.376464,0.001361 0.383946,0.000969 0.385815,0.000873 0.395166,0.000384 0.402535,0" style="fill: white" />
    <polygon slic3r:type="hole" points="8.901625,10.286988 8.795823,10.309476 8.758482,10.317413 8.659669,10.361407 8.624793,10.376936 8.537288,10.440512 8.506403,10.462951 8.434026,10.543334 8.408482,10.571704 8.3544,10.665376 8.335312,10.698437 8.301886,10.801308 8.290089,10.837615 8.278784,10.945186 8.274793,10.983153 8.286099,11.090724 8.29009,11.128692 8.323514,11.231561 8.335312,11.267869 8.389393,11.361541 8.408481,11.394602 8.480858,11.474985 8.506403,11.503355 8.593908,11.566931 8.624793,11.589371 8.723607,11.633366 8.758481,11.648892 8.864283,11.671381 8.901625,11.679318 9.047963,11.679318 9.153765,11.656829 9.191106,11.648893 9.289918,11.604898 9.324794,11.589371 9.412301,11.525793 9.443185,11.503355 9.515561,11.422972 9.541104,11.394603 9.595188,11.300929 9.614276,11.267868 9.647699,11.164999 9.659497,11.128691 9.670802,11.02112 9.674794,10.983152 9.663488,10.875581 9.659496,10.837614 9.614869,10.700265 9.614275,10.698438 9.560192,10.604764 9.541105,10.571704 9.468729,10.491321 9.443185,10.462951 9.355678,10.399374 9.324794,10.376936 9.225981,10.332941 9.191106,10.317413 9.085304,10.294924 9.047964,10.286988" style="fill: black" />
    <polygon slic3r:type="hole" points="8.901625,3.286987 8.795823,3.309476 8.758481,3.317413 8.659669,3.361406 8.624793,3.376935 8.537288,3.440511 8.506403,3.46295 8.434026,3.543333 8.408482,3.571703 8.3544,3.665375 8.335312,3.698436 8.301886,3.801307 8.29009,3.837614 8.278784,3.945185 8.274792,3.983152 8.286099,4.090723 8.29009,4.128691 8.323515,4.231561 8.335312,4.267868 8.389393,4.361541 8.408482,4.394603 8.480857,4.474983 8.506403,4.503354 8.593908,4.56693 8.624793,4.58937 8.723607,4.633365 8.758481,4.648892 8.864283,4.671381 8.901625,4.679318 9.047963,4.679318 9.153765,4.656828 9.191106,4.648892 9.289918,4.604898 9.324794,4.589369 9.412301,4.525792 9.443185,4.503354 9.515561,4.422972 9.541105,4.394603 9.595187,4.300929 9.614276,4.267867 9.647699,4.164998 9.659497,4.12869 9.670802,4.021119 9.674793,3.983151 9.663488,3.875581 9.659497,3.837615 9.626073,3.734744 9.614275,3.698437 9.560192,3.604763 9.541105,3.571703 9.468729,3.49132 9.443185,3.46295 9.355678,3.399373 9.324794,3.376935 9.22598,3.332939 9.191106,3.317413 9.085304,3.294923 9.047964,3.286987" style="fill: black" />
  </g>
  <g id="layer17" slic3r:z="5.3e-06">
    <polygon slic3r:type="contour" points="0.406088,0.000755 0.428069,0.00543 0.431304,0.007079 0.451327,0.017285 0.454025,0.019715 0.470723,0.034756 0.472702,0.037802 0.484938,0.056651 0.486061,0.060106 0.489531,0.070793 0.490688,0.074355 0.491266,0.076136 0.491614,0.077206 0.491846,0.077918 0.493001,0.08148 0.668571,1.029549 2.736373,12.195683 2.743033,12.220267 2.778922,12.352743 2.835822,12.477646 2.84638,12.500823 2.922784,12.614845 2.936961,12.636002 3.030844,12.736121 3.048267,12.754701 3.157145,12.838269 3.177349,12.853777 3.298339,12.918579 3.32079,12.930604 3.474794,12.983153 3.474794,0.983153 9.974794,0.983153 9.974794,13.983153 3.474794,13.983153 3.474794,13.483153 3.276183,13.436503 3.10938,13.372417 3.085739,13.363334 2.955023,13.291424 2.906985,13.264998 2.763556,13.15842 2.743229,13.143316 2.61559,13.018264 2.597498,13.000539 2.48801,12.859323 2.472491,12.839308 2.383176,12.684539 2.370517,12.662603 2.331071,12.565894 2.293465,12.473697 2.249054,12.300614 2.242761,12.276083 2.067346,11.328847 0.001361,0.172525 0.001127,0.168037 0.001068,0.166915 0.000969,0.165043 0.000189,0.150083 0,0.146456 0.000755,0.142902 0.00543,0.120922 0.007079,0.117686 0.017285,0.097663 0.019715,0.094965 0.034755,0.078266 0.037801,0.076288 0.056652,0.064051 0.060106,0.062929 0.070793,0.059458 0.076136,0.057724 0.077206,0.057375 0.077918,0.057144 0.081479,0.055988 0.104566,0.051712 0.376465,0.001361 0.380953,0.001127 0.382076,0.001067 0.383946,0.000969 0.387686,0.000774 0.398908,0.000188 0.402534,0" style="fill: white" />
    <polygon slic3r:type="hole" points="8.901625,10.286988 8.780886,10.312651 8.758482,10.317413 8.645719,10.367618 8.624793,10.376936 8.524934,10.449488 8.506403,10.462951 8.423808,10.554682 8.408482,10.571703 8.346764,10.6786 8.335312,10.698438 8.297167,10.815831 8.29009,10.837614 8.277188,10.960372 8.274793,10.983153 8.287695,11.105911 8.29009,11.128691 8.328233,11.246084 8.335312,11.267869 8.397028,11.374765 8.408481,11.394602 8.491076,11.486333 8.506402,11.503354 8.606263,11.575908 8.624793,11.58937 8.737556,11.639576 8.758482,11.648892 8.87922,11.674556 8.901625,11.679318 9.047964,11.679318 9.168701,11.653654 9.191105,11.648893 9.303868,11.598687 9.324794,11.58937 9.424655,11.516817 9.443186,11.503355 9.525779,11.411624 9.541105,11.394603 9.602823,11.287705 9.614275,11.267869 9.652418,11.150476 9.659497,11.128692 9.672399,11.005933 9.674794,10.983152 9.66189,10.860394 9.659496,10.837615 9.621353,10.720221 9.614276,10.698438 9.552557,10.59154 9.541105,10.571704 9.458511,10.479973 9.443186,10.462952 9.343324,10.390398 9.324794,10.376936 9.21203,10.326729 9.191106,10.317413 9.070369,10.29175 9.047964,10.286988" style="fill: black" />
    <polygon slic3r:type="hole" points="8.901624,3.286987 8.780887,3.31265 8.758481,3.317413 8.645719,3.367617 8.624793,3.376935 8.524934,3.449487 8.506403,3.46295 8.423808,3.554681 8.408482,3.571702 8.346764,3.678599 8.335312,3.698437 8.297167,3.81583 8.29009,3.837614 8.277188,3.960372 8.274793,3.983152 8.287695,4.10591 8.29009,4.12869 8.328234,4.246084 8.335312,4.267868 8.397029,4.374766 8.408481,4.394602 8.491075,4.486331 8.506402,4.503353 8.606263,4.575907 8.624793,4.589369 8.737556,4.639575 8.758482,4.648892 8.879219,4.674555 8.901625,4.679318 9.047964,4.679318 9.1687,4.653655 9.191106,4.648891 9.303868,4.598687 9.324794,4.589369 9.424654,4.516818 9.443186,4.503353 9.525778,4.411625 9.541104,4.394603 9.602822,4.287705 9.614275,4.267868 9.652418,4.150475 9.659497,4.128691 9.672399,4.005932 9.674793,3.983151 9.661891,3.860394 9.659497,3.837614 9.621353,3.72022 9.614276,3.698437 9.552557,3.591539 9.541105,3.571703 9.458511,3.479972 9.443186,3.462951 9.343324,3.390397 9.324794,3.376935 9.212031,3.326729 9.191105,3.317412 9.070369,3.29175 9.047963,3.286987" style="fill: black" />
  </g>
  <g id="layer18" slic3r:z="5.6e-06">
    <polygon slic3r:type="contour" points="0.420741,0.003871 0.428068,0.00543 0.444652,0.013883 0.451327,0.017285 0.465158,0.029743 0.470724,0.034756 0.48086,0.050369 0.484939,0.056651 0.490688,0.074355 0.491846,0.077918 0.49223,0.079105 0.492423,0.079698 0.49254,0.080056 0.492616,0.080292 0.493002,0.081481 0.551524,0.397503 2.736373,12.195683 2.738594,12.203878 2.778922,12.352743 2.842861,12.493098 2.846381,12.500824 2.932235,12.628949 2.936961,12.636002 3.042459,12.748507 3.048267,12.754701 3.170613,12.848607 3.177349,12.853777 3.313307,12.926596 3.320791,12.930604 3.474794,12.983152 3.474794,0.983153 9.974794,0.983153 9.974794,13.983153 3.474794,13.983153 3.474794,13.483153 3.276183,13.436503 3.093618,13.366361 3.085739,13.363334 2.914381,13.269066 2.906984,13.264997 2.750004,13.14835 2.743229,13.143316 2.603528,13.006447 2.597499,13.00054 2.477663,12.845979 2.472491,12.839308 2.374738,12.669916 2.370517,12.662603 2.296653,12.481514 2.293466,12.473698 2.244859,12.28426 2.24276,12.276082 2.184289,11.960337 0.001361,0.172525 0.001283,0.171029 0.001264,0.170655 0.00123,0.170031 0.001165,0.168784 0.000969,0.165043 0,0.146456 0.003871,0.128249 0.00543,0.120922 0.013883,0.104337 0.017284,0.097664 0.029743,0.083831 0.034756,0.078265 0.050369,0.068129 0.056652,0.064051 0.074355,0.058302 0.077918,0.057144 0.079106,0.056758 0.079699,0.056566 0.080055,0.056451 0.080292,0.056374 0.08148,0.055988 0.089176,0.054562 0.376465,0.001361 0.377961,0.001282 0.378335,0.001263 0.378959,0.00123 0.380206,0.001165 0.383946,0.000969 0.402534,0" style="fill: white" />
    <polygon slic3r:type="hole" points="8.901625,10.286988 8.765949,10.315826 8.758481,10.317413 8.631768,10.37383 8.624794,10.376935 8.512579,10.458464 8.506402,10.462952 8.413591,10.566029 8.408482,10.571703 8.339128,10.691826 8.335312,10.698437 8.292449,10.830354 8.29009,10.837614 8.27559,10.97556 8.274793,10.983153 8.289291,11.121098 8.29009,11.128692 8.332952,11.260608 8.335312,11.267869 8.404663,11.38799 8.408482,11.394603 8.501293,11.49768 8.506403,11.503355 8.618617,11.584883 8.624794,11.589371 8.751507,11.645788 8.758482,11.648892 8.894157,11.677731 8.901624,11.679318 9.047964,11.679318 9.183637,11.65048 9.191105,11.648893 9.317819,11.592475 9.324793,11.589371 9.437008,11.507843 9.443186,11.503354 9.535996,11.400276 9.541105,11.394602 9.610457,11.274481 9.614276,11.267869 9.657138,11.135952 9.659497,11.128692 9.673996,10.990745 9.674794,10.983152 9.660294,10.845207 9.659497,10.837615 9.616634,10.705698 9.614275,10.698437 9.544922,10.578315 9.541104,10.571703 9.448294,10.468625 9.443185,10.462951 9.330971,10.381424 9.324794,10.376936 9.19808,10.320518 9.191106,10.317413 9.055432,10.288575 9.047963,10.286988" style="fill: black" />
    <polygon slic3r:type="hole" points="8.901625,3.286987 8.765949,3.315825 8.758481,3.317413 8.631768,3.373829 8.624794,3.376935 8.512579,3.458464 8.506403,3.46295 8.413591,3.566028 8.408482,3.571702 8.339128,3.691825 8.335312,3.698436 8.29245,3.830352 8.29009,3.837614 8.27559,3.975559 8.274793,3.983152 8.289291,4.121097 8.29009,4.128691 8.332952,4.260607 8.335312,4.267868 8.404663,4.38799 8.408482,4.394603 8.501293,4.497679 8.506403,4.503354 8.618617,4.584882 8.624794,4.58937 8.751507,4.645787 8.758481,4.648892 8.894156,4.67773 8.901625,4.679318 9.047964,4.679318 9.183637,4.65048 9.191105,4.648892 9.317819,4.592475 9.324794,4.589369 9.437008,4.507842 9.443186,4.503353 9.535995,4.400277 9.541105,4.394603 9.610458,4.274479 9.614276,4.267868 9.657138,4.135951 9.659497,4.12869 9.673995,3.990746 9.674793,3.983151 9.660294,3.845207 9.659496,3.837614 9.616634,3.705697 9.614276,3.698437 9.544922,3.578314 9.541105,3.571703 9.448294,3.468624 9.443185,3.462951 9.33097,3.381421 9.324793,3.376935 9.19808,3.320517 9.191106,3.317413 9.055431,3.288574 9.047964,3.286987" style="fill: black" />
  </g>
</svg>
