<?xml version="1.0" encoding="UTF-8" standalone="yes"?>
<!DOCTYPE svg PUBLIC "-//W3C//DTD SVG 1.0//EN" "http://www.w3.org/TR/2001/REC-SVG-20010904/DTD/svg10.dtd">
<svg width="14.399999" height="14.399999" xmlns="http://www.w3.org/2000/svg" xmlns:svg="http://www.w3.org/2000/svg" xmlns:xlink="http://www.w3.org/1999/xlink" xmlns:slic3r="http://slic3r.org/namespaces/slic3r">
  <!-- 
  Generated using Slic3r 1.2.9
  http://slic3r.org/
   -->
  <g id="layer0" slic3r:z="1.75e-07">
    <polygon slic3r:type="contour" points="7.447499,0.634705 7.521713,0.636935 7.715205,0.650971 7.789276,0.656344 7.982091,0.678468 8.055903,0.686938 8.24773,0.717021 8.321165,0.728538 8.511698,0.766455 8.584637,0.78097 8.835179,0.841467 8.845893,0.844054 9.032912,0.897251 9.104507,0.917617 9.354767,0.999747 9.354767,0.999746 9.360051,1.00148 9.542326,1.06945 9.612103,1.095469 9.860238,1.199407 10.036527,1.281634 10.104015,1.313112 10.276857,1.402278 10.343024,1.436413 10.512107,1.532393 10.576835,1.569135 10.741848,1.671795 10.805019,1.711097 10.965656,1.820313 11.027152,1.862124 11.183105,1.977769 11.242806,2.022039 11.393767,2.143985 11.451559,2.190669 11.597217,2.318786 11.652978,2.367832 11.793029,2.501996 11.846643,2.553356 12.042178,2.759224 12.068274,2.786698 12.219806,2.963429 12.277816,3.031086 12.420386,3.215273 12.474964,3.285783 12.608352,3.476894 12.659416,3.550056 12.7834,3.747557 12.830863,3.823163 12.945224,4.026524 12.989004,4.104374 13.09352,4.313059 13.133531,4.392949 13.227981,4.606427 13.264138,4.688149 13.348305,4.90589 13.380524,4.989243 13.454183,5.210711 13.48238,5.295492 13.545313,5.520154 13.569405,5.60616 13.621389,5.833484 13.64129,5.920508 13.682105,6.149964 13.697731,6.237804 13.727159,6.468857 13.738425,6.557308 13.756243,6.789427 13.763064,6.878285 13.769052,7.110936 13.771345,7.2 13.766608,7.384034 13.763065,7.521712 13.745246,7.753832 13.738425,7.842691 13.708997,8.073743 13.697731,8.162195 13.656916,8.39165 13.641291,8.47949 13.589306,8.706815 13.569405,8.79384 13.506473,9.018501 13.48238,9.104507 13.408723,9.325973 13.380525,9.410754 13.296359,9.628493 13.264138,9.711849 13.169688,9.925328 13.133531,10.00705 13.029015,10.215736 12.989004,10.295624 12.874642,10.498985 12.830864,10.576834 12.706879,10.774336 12.659415,10.849943 12.526027,11.041055 12.474964,11.114216 12.332393,11.298404 12.277815,11.368914 12.126282,11.545644 12.068274,11.6133 11.907997,11.782045 11.846642,11.846643 11.640774,12.042178 11.613301,12.068273 11.43657,12.219806 11.368914,12.277816 11.184724,12.420387 11.114215,12.474965 10.923104,12.608352 10.849943,12.659415 10.652441,12.783401 10.576835,12.830863 10.373473,12.945225 10.295624,12.989004 10.086939,13.09352 10.007051,13.13353 9.79357,13.227982 9.711849,13.264138 9.494108,13.348305 9.410755,13.380524 9.189287,13.454184 9.104507,13.48238 8.879844,13.545313 8.793839,13.569405 8.566513,13.62139 8.479491,13.64129 8.250033,13.682106 8.162194,13.697731 7.931142,13.727159 7.842691,13.738425 7.610571,13.756244 7.521713,13.763064 7.289061,13.769053 7.2,13.771345 6.95513,13.766088 6.95513,13.766089 6.931873,13.765589 6.738283,13.753185 6.664173,13.748437 6.471199,13.72792 6.397326,13.720066 6.205277,13.691564 6.131757,13.680652 5.94094,13.644292 5.867892,13.630374 5.678616,13.586282 5.606159,13.569404 5.418733,13.517712 5.346983,13.497923 5.161715,13.438756 5.09079,13.416105 4.907987,13.349591 4.838006,13.324128 4.657976,13.250394 4.589058,13.222169 4.41211,13.141342 4.344373,13.110402 4.170814,13.022611 4.104374,12.989004 3.934514,12.894377 3.86949,12.858154 3.703636,12.756818 3.640146,12.718026 3.478607,12.610108 3.416768,12.568796 3.259854,12.454428 3.199783,12.410644 3.047799,12.289947 2.989619,12.243744 2.842873,12.116849 2.786698,12.068274 2.6455,11.935308 2.591447,11.884407 2.45609,11.745514 2.404275,11.692345 2.274937,11.547783 2.225424,11.492442 2.102234,11.342517 2.055074,11.285123 1.938159,11.130144 1.893401,11.070814 1.782889,10.911089 1.740582,10.849942 1.6366,10.685779 1.596792,10.622934 1.485057,10.429722 1.46221,10.390216 1.357641,10.191432 1.337009,10.152212 1.253383,9.976582 1.221369,9.909349 1.144783,9.730515 1.115466,9.662056 1.046047,9.480324 1.019473,9.410754 0.957352,9.226434 0.933572,9.155875 0.878873,8.969273 0.857934,8.897841 0.810787,8.709267 0.79274,8.63708 0.765728,8.506878 0.738164,8.374016 0.706502,8.182421 0.694383,8.109078 0.670656,7.916436 0.661574,7.842691 0.650278,7.703238 0.639913,7.575281 0.632438,7.381467 0.629577,7.307273 0.630197,7.163023 0.630729,7.039097 0.642313,6.793099 0.642312,6.793099 0.643345,6.771174 0.660631,6.577918 0.667249,6.503936 0.686863,6.35487 0.702266,6.237804 0.735499,6.046456 0.74822,5.973207 0.789233,5.783278 0.804934,5.71057 0.853602,5.522366 0.872232,5.450319 0.928424,5.264151 0.949937,5.192881 1.013528,5.009054 1.037871,4.938683 1.108732,4.757507 1.135859,4.68815 1.213864,4.509932 1.243724,4.441709 1.328744,4.266758 1.361292,4.199784 1.453198,4.028407 1.488382,3.962802 1.587048,3.79531 1.62482,3.731191 1.73012,3.56789 1.770429,3.505377 1.882233,3.346575 1.925034,3.285783 2.043214,3.13179 2.088456,3.072838 2.212886,2.923962 2.26052,2.866969 2.391071,2.723516 2.441048,2.6686 2.577593,2.530876 2.629863,2.478155 2.772195,2.346393 2.826682,2.295953 2.974499,2.170289 3.031086,2.122182 3.18408,2.002742 3.242649,1.957018 3.400513,1.843929 3.460947,1.800636 3.623372,1.694025 3.685551,1.653214 3.852229,1.55321 3.916037,1.514926 4.08666,1.421658 4.151978,1.385953 4.326238,1.299546 4.392949,1.266467 4.570537,1.18705 4.638521,1.156647 4.81913,1.084348 4.88827,1.05667 5.071591,0.991615 5.14177,0.96671 5.327495,0.909027 5.398593,0.886946 5.586414,0.836764 5.658315,0.817553 5.847923,0.774999 5.920508,0.758709 6.111597,0.723909 6.184748,0.710589 6.377008,0.683672 6.450606,0.67337 6.643729,0.654465 6.717658,0.647229 6.911336,0.636462 6.985477,0.632341 7.128859,0.630493 7.253637,0.628885" style="fill: white" />
    <polygon slic3r:type="hole" points="7.236048,1.773333 7.022837,1.77608 7.014599,1.776538 6.801656,1.788376 6.793443,1.789179 6.581111,1.809964 6.572934,1.811108 6.361551,1.840702 6.353423,1.842182 6.196091,1.870833 6.196091,1.8686 5.926795,1.929038 5.918806,1.931173 5.712303,1.986347 5.704403,1.988801 5.500205,2.05222 5.492407,2.054987 5.290851,2.126514 5.28317,2.129588 5.084596,2.209081 5.077041,2.212459 4.881788,2.299776 4.874376,2.303452 4.682783,2.398453 4.675525,2.402421 4.487931,2.504966 4.480841,2.50922 4.297582,2.619172 4.290673,2.623706 4.112092,2.74092 4.105377,2.745731 3.931811,2.870068 3.925303,2.875149 3.757091,3.00647 3.750803,3.011816 3.588283,3.14998 3.582228,3.155585 3.42574,3.300452 3.419932,3.30631 3.269806,3.457731 3.264253,3.463833 3.120716,3.621555 3.115423,3.627887 2.978618,3.791572 2.97359,3.798123 2.843654,3.967434 2.838899,3.974187 2.715974,4.148784 2.711495,4.155731 2.595723,4.335274 2.591525,4.342399 2.483045,4.526551 2.479135,4.53384 2.378086,4.722264 2.374471,4.729704 2.280994,4.922057 2.277675,4.929638 2.191913,5.125581 2.188898,5.133288 2.110988,5.332485 2.108284,5.340303 2.038367,5.542417 2.035977,5.550335 1.974196,5.755021 1.972126,5.763026 1.918618,5.969949 1.916873,5.978029 1.871781,6.186849 1.870367,6.194987 1.833829,6.405367 1.832752,6.413553 1.804909,6.625153 1.804175,6.633372 1.785169,6.845853 1.78478,6.854094 1.77475,7.067118 1.774715,7.075366 1.773798,7.288592 1.774115,7.296835 1.782333,7.509925 1.783001,7.518151 1.800223,7.730768 1.801231,7.73896 1.827319,7.950764 1.828665,7.958914 1.863475,8.169564 1.865154,8.177656 1.908547,8.386815 1.910551,8.394835 1.962387,8.602166 1.964714,8.610104 2.024852,8.815264 2.027495,8.823105 2.095795,9.025757 2.098748,9.033488 2.17507,9.233295 2.178327,9.240902 2.262532,9.437524 2.266088,9.444993 2.358034,9.638093 2.361885,9.645413 2.461431,9.834649 2.465569,9.841806 2.572576,10.02684 2.591692,10.057021 2.591693,10.057021 2.691325,10.214317 2.696025,10.221109 2.817531,10.396722 2.822504,10.403314 2.95105,10.57371 2.956289,10.580088 3.091732,10.744925 3.097235,10.751075 3.239437,10.910016 3.245194,10.915923 3.394014,11.068629 3.400019,11.074285 3.555262,11.220476 3.561504,11.225874 3.722844,11.365389 3.72931,11.370523 3.89641,11.503224 3.903085,11.50809 4.075608,11.633835 4.082478,11.638424 4.260085,11.757075 4.267139,11.761385 4.449489,11.872802 4.456713,11.876826 4.643469,11.980865 4.723274,12.021232 4.841672,12.081121 4.849199,12.084559 5.043746,12.173423 5.051405,12.176561 5.249341,12.257628 5.257117,12.260458 5.458103,12.333587 5.465983,12.336104 5.669681,12.401158 5.677653,12.403356 5.883722,12.46019 5.891772,12.462065 6.099876,12.510542 6.107992,12.512089 6.317788,12.552065 6.325958,12.553278 6.537108,12.584614 6.545316,12.585486 6.757486,12.608044 6.76572,12.608571 6.978567,12.622209 6.986814,12.622386 7.199999,12.626963 7.209895,12.626708 7.465688,12.620125 7.47556,12.619367 7.730767,12.599777 7.740595,12.598524 7.99463,12.566169 8.004391,12.564432 8.25667,12.519558 8.26634,12.517346 8.516275,12.460191 8.525831,12.457514 8.772842,12.388322 8.782261,12.38519 9.025758,12.304202 9.035019,12.300623 9.274416,12.208086 9.283496,12.204069 9.518209,12.100223 9.527086,12.095777 9.756531,11.980864 9.765181,11.975999 9.988767,11.850265 9.997168,11.84499 10.214317,11.708673 10.222445,11.702999 10.432565,11.556343 10.4404,11.550278 10.642908,11.393527 10.650426,11.387082 10.844737,11.220476 10.851913,11.213659 11.037442,11.037441 11.044259,11.030265 11.220476,10.844736 11.226921,10.837219 11.393528,10.642907 11.399591,10.635074 11.556343,10.432565 11.562016,10.424437 11.708673,10.214317 11.713947,10.205915 11.850264,9.988768 11.855129,9.980117 11.980864,9.756531 11.985309,9.747654 12.100223,9.518209 12.104239,9.50913 12.208087,9.274415 12.211665,9.265155 12.304203,9.025757 12.307335,9.016338 12.388323,8.772841 12.390998,8.763286 12.46019,8.516276 12.462401,8.506607 12.519557,8.256671 12.521293,8.246911 12.566169,7.99463 12.567421,7.984802 12.599776,7.730768 12.600535,7.720893 12.620125,7.465687 12.620605,7.43971 12.628654,7.2 12.620604,6.960288 12.620125,6.934311 12.619367,6.924438 12.599776,6.669231 12.598524,6.659403 12.566169,6.405368 12.564432,6.395607 12.519557,6.143328 12.517347,6.13366 12.46019,5.883722 12.457513,5.874166 12.388322,5.627156 12.38519,5.617737 12.304202,5.37424 12.300623,5.364979 12.208087,5.125582 12.204069,5.116502 12.100223,4.881789 12.095777,4.872913 11.980864,4.643468 11.975999,4.634818 11.850265,4.411232 11.84499,4.40283 11.708673,4.185683 11.702999,4.177554 11.556343,3.967434 11.550279,3.959599 11.393527,3.75709 11.387082,3.749572 11.220476,3.555261 11.213659,3.548085 11.037442,3.362556 11.031484,3.356849 10.877504,3.209342 10.871308,3.203892 10.71116,3.063029 10.704739,3.057842 10.538764,2.923768 10.532129,2.918848 10.360664,2.791701 10.353831,2.787055 10.177214,2.666973 10.170196,2.662608 9.988768,2.549734 9.981576,2.545652 9.795675,2.440127 9.788322,2.436333 9.598288,2.338297 9.590791,2.3348 9.39696,2.244392 9.389327,2.241194 9.192042,2.158556 9.184288,2.155664 8.983884,2.080935 8.976024,2.078357 8.772841,2.011676 8.764887,2.009414 8.559263,1.950924 8.551227,1.948984 8.343506,1.898826 8.335401,1.897212 8.125915,1.855526 8.117757,1.854246 7.90685,1.82117 7.898648,1.820229 7.686656,1.795904 7.678425,1.795307 7.465688,1.779874 7.457441,1.779626 7.244297,1.773226" style="fill: black" />
  </g>
  <g id="layer1" slic3r:z="5e-07">
    <polygon slic3r:type="contour" points="7.426541,0.270747 7.539496,0.274138 7.709111,0.286443 7.82185,0.294621 7.99087,0.314015 8.103214,0.326905 8.271369,0.353277 8.38314,0.370807 8.55016,0.404043 8.661178,0.426136 8.826792,0.466127 8.936874,0.492707 9.100814,0.53934 9.209784,0.570336 9.371779,0.623499 9.479456,0.658837 9.639235,0.718416 9.74544,0.75802 9.902732,0.823906 10.007286,0.867702 10.161823,0.939782 10.264544,0.987695 10.416056,1.065857 10.516766,1.117812 10.664982,1.201946 10.763501,1.25787 10.908151,1.347862 11.004299,1.407679 11.145112,1.503417 11.23871,1.567054 11.375418,1.668428 11.466287,1.735811 11.598617,1.842707 11.686578,1.913761 11.814261,2.026068 11.899133,2.100719 12.021899,2.218324 12.103501,2.296496 12.243997,2.444416 12.337384,2.542738 12.470216,2.697659 12.558509,2.800635 12.683486,2.962093 12.766557,3.069412 12.828722,3.158479 12.961204,3.348292 13.069888,3.521421 13.142128,3.636498 13.242378,3.814763 13.30901,3.933252 13.400629,4.116184 13.461526,4.237778 13.544321,4.424912 13.599356,4.5493 13.673133,4.740167 13.722173,4.867036 13.786743,5.061172 13.829662,5.190214 13.884826,5.387151 13.921496,5.518055 13.967064,5.717326 13.997353,5.84978 14.033133,6.05092 14.056915,6.184615 14.082711,6.387154 14.099859,6.521782 14.115477,6.725254 14.12586,6.860502 14.131109,7.064441 14.134599,7.2 14.129348,7.40394 14.12586,7.539497 14.110241,7.742969 14.099859,7.878217 14.074061,8.080757 14.056916,8.215382 14.021136,8.416523 13.997354,8.550217 13.951784,8.74949 13.921496,8.881944 13.866329,9.078882 13.829661,9.209785 13.765092,9.403921 13.722174,9.532963 13.648396,9.723831 13.599355,9.8507 13.516561,10.037833 13.461526,10.16222 13.369908,10.345152 13.309011,10.466746 13.208762,10.64501 13.142129,10.7635 13.033446,10.936628 12.961204,11.051706 12.844276,11.219233 12.766556,11.330587 12.641579,11.492044 12.558509,11.599363 12.425677,11.754286 12.337384,11.857261 12.196887,12.005181 12.103502,12.103501 11.955583,12.243997 11.857261,12.337384 11.702339,12.470216 11.599363,12.558509 11.437906,12.683486 11.330587,12.766556 11.241519,12.828722 11.051706,12.961204 10.878578,13.069887 10.7635,13.142129 10.585235,13.242378 10.466746,13.30901 10.283814,13.400629 10.16222,13.461526 9.975086,13.544322 9.850699,13.599356 9.659831,13.673134 9.532962,13.722174 9.338826,13.786743 9.209784,13.829662 9.012847,13.884826 8.881944,13.921495 8.682672,13.967065 8.550218,13.997353 8.349078,14.033133 8.215383,14.056915 8.012843,14.082712 7.878216,14.099859 7.674744,14.115477 7.539496,14.12586 7.335556,14.13111 7.2,14.134599 7.03003,14.13095 6.917051,14.128523 6.794061,14.120643 6.634553,14.110423 6.465395,14.09244 6.352955,14.080485 6.184607,14.0555 6.072707,14.038893 5.905437,14.007018 5.794256,13.985834 5.628338,13.947184 5.518055,13.921496 5.353757,13.876181 5.244552,13.846063 5.082145,13.794196 4.974196,13.759722 4.813952,13.701416 4.70744,13.66266 4.549626,13.598026 4.44473,13.555065 4.289618,13.484213 4.186517,13.437119 4.034379,13.360163 3.933253,13.309011 3.784355,13.226061 3.685384,13.170926 3.464083,13.035712 3.443362,13.023052 3.301761,12.928455 3.207638,12.865575 3.070087,12.765319 2.978659,12.698681 2.845431,12.592879 2.756875,12.522553 2.628239,12.411319 2.542738,12.337384 2.418965,12.220828 2.336694,12.143353 2.218041,12.021602 2.139175,11.940675 2.025797,11.813952 1.950438,11.729722 1.842449,11.598297 1.770672,11.510942 1.668183,11.375088 1.600061,11.284787 1.503186,11.144772 1.438795,11.051706 1.347643,10.907801 1.287056,10.812149 1.201742,10.664624 1.145035,10.566567 1.065667,10.415691 1.012914,10.315406 0.939606,10.16145 0.89088,10.059118 0.81079,9.872099 0.810789,9.872099 0.779122,9.798154 0.718271,9.63885 0.677825,9.532963 0.623369,9.371388 0.587172,9.263991 0.539225,9.100419 0.507356,8.991694 0.466026,8.826392 0.438556,8.716517 0.403959,8.549757 0.380964,8.438914 0.35321,8.270964 0.334763,8.15933 0.313964,7.990461 0.30014,7.878217 0.286409,7.708701 0.277281,7.596024 0.27073,7.426131 0.266375,7.313204 0.267106,7.1432 0.267592,7.030202 0.275589,6.860361 0.280904,6.74747 0.296056,6.578063 0.30613,6.465459 0.328327,6.296753 0.343083,6.184616 0.372213,6.016882 0.391576,5.905392 0.427528,5.738901 0.451426,5.628237 0.494087,5.463259 0.522443,5.3536 0.591115,5.126087 0.604443,5.081931 0.660187,4.92079 0.697238,4.813682 0.759354,4.654864 0.800643,4.549299 0.86902,4.393075 0.914472,4.289233 0.988998,4.135874 1.038537,4.033936 1.119101,3.88371 1.172653,3.783855 1.259143,3.637033 1.316634,3.539442 1.408937,3.396293 1.470292,3.301143 1.568297,3.16194 1.633442,3.069411 1.737039,2.934422 1.805897,2.844697 1.914972,2.714192 1.987474,2.627446 2.101913,2.501697 2.177981,2.418112 2.297675,2.297384 2.377233,2.217139 2.502001,2.101638 2.584931,2.024867 2.714507,1.914709 2.800634,1.84149 2.934749,1.736788 3.023892,1.667195 3.162276,1.568061 3.254258,1.502168 3.396639,1.408714 3.491278,1.346596 3.637387,1.258934 3.734505,1.200665 3.884072,1.118907 3.983488,1.064562 4.136244,0.988817 4.237779,0.938471 4.393451,0.868855 4.496927,0.822581 4.655247,0.759203 4.760482,0.717076 4.92118,0.660049 5.027993,0.622144 5.1908,0.571579 5.299014,0.537971 5.500676,0.484091 5.500676,0.48409 5.573094,0.464741 5.739302,0.427439 5.849781,0.402644 6.017286,0.372141 6.128627,0.351864 6.29716,0.32827 6.409182,0.312588 6.578471,0.296016 6.690995,0.285002 6.860772,0.275564 6.973619,0.269292 7.143612,0.2671 7.256603,0.265644" style="fill: white" />
    <polygon slic3r:type="hole" points="7.158299,2.136176 7.034649,2.137771 6.951712,2.14238 6.828221,2.149245 6.745519,2.157341 6.622381,2.169395 6.54005,2.180921 6.417462,2.198082 6.335633,2.212983 6.213792,2.235172 6.132596,2.253395 6.011697,2.280529 5.931267,2.302017 5.811509,2.334015 5.731975,2.358717 5.613553,2.395496 5.535051,2.423354 5.418162,2.464836 5.340819,2.495796 5.22566,2.541895 5.149611,2.575905 5.036376,2.626543 4.961752,2.663546 4.850641,2.718641 4.777574,2.758582 4.668783,2.818051 4.597405,2.860876 4.491129,2.92464 4.421572,2.970294 4.318006,3.038271 4.250405,3.086698 4.149747,3.158806 4.084229,3.209956 3.986678,3.286112 3.923377,3.339927 3.829128,3.420052 3.768176,3.476477 3.677424,3.560489 3.618951,3.619467 3.531889,3.70728 3.475982,3.768712 3.392741,3.86018 3.339455,3.923934 3.260117,4.01886 3.209507,4.084806 3.134153,4.182995 3.030918,4.329624 3.030919,4.329624 3.014987,4.352253 2.969896,4.422183 2.902755,4.526306 2.860502,4.598032 2.79759,4.704829 2.758234,4.778216 2.699631,4.887489 2.663223,4.962408 2.609013,5.07396 2.57561,5.150277 2.525872,5.263913 2.495527,5.341498 2.450346,5.457019 2.423113,5.53574 2.382566,5.652951 2.358504,5.732673 2.322673,5.851379 2.301834,5.931972 2.270803,6.051975 2.25324,6.133308 2.227088,6.254411 2.212858,6.33635 2.191668,6.458356 2.180824,6.540772 2.164676,6.663486 2.152412,6.80059 2.146251,6.86947 2.142346,6.952439 2.136529,7.075978 2.136171,7.159028 2.13564,7.282685 2.13884,7.36568 2.143607,7.489259 2.15403,7.617942 2.160303,7.695374 2.170462,7.777868 2.185591,7.900699 2.20605,8.024511 2.219337,8.104909 2.236237,8.186374 2.261403,8.307674 2.281592,8.388425 2.311653,8.508663 2.335076,8.588571 2.369952,8.707551 2.396556,8.786483 2.436164,8.904008 2.465891,8.981831 2.510154,9.097707 2.54295,9.174288 2.591782,9.288316 2.593619,9.292174 2.680917,9.47551 2.719688,9.549214 2.777418,9.658959 2.819095,9.731027 2.881151,9.838334 2.925681,9.908635 2.991982,10.013307 3.039307,10.081707 3.109772,10.183551 3.159839,10.249918 3.234386,10.348736 3.287141,10.41294 3.365689,10.508534 3.421075,10.57044 3.503544,10.662617 3.561507,10.722093 3.647814,10.810654 3.708278,10.867593 3.798307,10.952374 3.861148,11.006714 3.954715,11.087624 4.019799,11.139309 4.116707,11.216267 4.183904,11.265244 4.283956,11.338169 4.353131,11.384381 4.456131,11.453191 4.527153,11.496585 4.632904,11.561198 4.705643,11.60172 4.813948,11.662056 4.888271,11.69965 4.998935,11.755627 5.074709,11.790239 5.187535,11.841776 5.264629,11.87335 5.37942,11.920365 5.457702,11.948849 5.574261,11.991259 5.718679,12.037381 5.771728,12.054323 5.85199,12.076458 5.971497,12.109418 6.05255,12.128298 6.173237,12.156412 6.31419,12.183271 6.376619,12.195167 6.45886,12.207372 6.581314,12.225546 6.66395,12.234331 6.786994,12.247412 6.869896,12.252724 6.993333,12.260634 7.076366,12.262417 7.199999,12.265071 7.299628,12.262505 7.44797,12.258688 7.547371,12.251057 7.695373,12.239696 7.794318,12.227094 7.941641,12.208331 8.039902,12.190851 8.186206,12.164826 8.283554,12.142565 8.428502,12.109418 8.524709,12.08247 8.667958,12.042342 8.762796,12.0108 8.904008,11.963834 8.997251,11.927792 9.136087,11.874125 9.227504,11.833679 9.363623,11.773455 9.452988,11.728698 9.586049,11.662057 9.673134,11.613084 9.802801,11.540165 9.887377,11.487071 10.013307,11.408016 10.095147,11.350895 10.217003,11.265845 10.295879,11.204791 10.413321,11.113885 10.489002,11.048995 10.601691,10.952374 10.673951,10.88374 10.781546,10.781545 10.930217,10.625019 10.930216,10.625019 10.952375,10.60169 11.017265,10.526008 11.113885,10.413321 11.174938,10.334446 11.265844,10.217004 11.322966,10.135164 11.408015,10.013308 11.461111,9.928731 11.540166,9.8028 11.589139,9.715715 11.662057,9.586049 11.706814,9.496684 11.773456,9.363623 11.813902,9.272205 11.874126,9.136087 11.910167,9.042844 11.963834,8.904008 11.995377,8.809169 12.042342,8.667958 12.069293,8.57175 12.109419,8.428501 12.131679,8.331154 12.164826,8.186206 12.182306,8.087946 12.20833,7.941642 12.220933,7.842697 12.239696,7.695373 12.251451,7.542253 12.25145,7.542253 12.258688,7.44797 12.261388,7.331197 12.265401,7.199999 12.261389,7.068802 12.258688,6.952027 12.251057,6.852627 12.239696,6.704625 12.227094,6.60568 12.208331,6.458357 12.190851,6.360096 12.164826,6.213792 12.142564,6.116444 12.109418,5.971497 12.072262,5.838849 12.042342,5.73204 12.010799,5.637201 11.963834,5.49599 11.927791,5.402746 11.874125,5.263912 11.833679,5.172495 11.773455,5.036376 11.728698,4.94701 11.662057,4.813949 11.613083,4.726863 11.540165,4.597197 11.487071,4.512621 11.408016,4.38669 11.350894,4.30485 11.265845,4.182995 11.204791,4.104119 11.113885,3.986677 11.048994,3.910995 10.952374,3.798307 10.88374,3.726047 10.781545,3.618452 10.721571,3.560999 10.632273,3.475455 10.569897,3.42059 10.477021,3.3389 10.412375,3.286679 10.31612,3.208924 10.249336,3.159401 10.149898,3.085665 10.081106,3.038893 9.978681,2.969254 9.908017,2.925292 9.8028,2.859832 9.730395,2.818733 9.622584,2.757534 9.548568,2.719351 9.438361,2.662496 9.362865,2.627282 9.250458,2.574853 9.173616,2.542666 9.059203,2.49474 8.981148,2.465633 8.864926,2.422296 8.78579,2.396326 8.667957,2.357656 8.58787,2.334874 8.468624,2.300956 8.387716,2.281418 8.267252,2.252331 8.185661,2.236094 8.064173,2.211918 7.982026,2.199035 7.859714,2.179853 7.777144,2.170378 7.654202,2.156271 7.571344,2.150261 7.44797,2.14131 7.364952,2.138817 7.241343,2.135105" style="fill: black" />
  </g>
  <g id="layer2" slic3r:z="8e-07">
    <polygon slic3r:type="contour" points="7.437739,0.092153 7.548254,0.095471 7.727588,0.108481 7.837893,0.116483 8.016596,0.136987 8.126516,0.149601 8.304305,0.177482 8.413663,0.194633 8.590253,0.229774 8.698872,0.25139 8.873976,0.293671 8.981682,0.319679 9.155015,0.368983 9.261631,0.39931 9.432908,0.455519 9.53826,0.490094 9.707193,0.553087 9.811103,0.591835 9.977412,0.661498 10.079706,0.704347 10.243099,0.780557 10.3436,0.827434 10.503795,0.910077 10.602329,0.96091 10.759037,1.049864 10.855427,1.104579 11.008367,1.199728 11.102438,1.258254 11.251322,1.359479 11.342896,1.421741 11.487439,1.528924 11.576344,1.59485 11.697714,1.692893 11.802317,1.777391 11.937318,1.896134 12.020356,1.969172 12.150157,2.093517 12.229998,2.170001 12.378543,2.326396 12.469912,2.422593 12.610357,2.586392 12.696742,2.687143 12.828881,2.857854 12.910157,2.962854 13.048679,3.161322 13.109827,3.24893 13.224738,3.431978 13.295419,3.544571 13.40141,3.733049 13.466605,3.84898 13.563473,4.042394 13.623057,4.161362 13.710595,4.359219 13.76444,4.48092 13.842446,4.682724 13.890428,4.806853 13.958696,5.012113 14.000687,5.138367 14.059014,5.34659 14.094891,5.474666 14.143071,5.685355 14.172707,5.814949 14.217857,6.068774 14.233805,6.158422 14.261078,6.372566 14.277854,6.504285 14.294368,6.719417 14.304526,6.851743 14.310077,7.06737 14.313491,7.199999 14.30794,7.415626 14.304527,7.548254 14.288013,7.763387 14.277854,7.895713 14.250581,8.109858 14.233805,8.241576 14.195974,8.454243 14.172707,8.585049 14.124525,8.795741 14.094891,8.925333 14.046771,9.097116 14.000688,9.261631 13.932418,9.466893 13.890427,9.593146 13.812421,9.794951 13.76444,9.919079 13.6769,10.116938 13.623057,10.238636 13.526187,10.432052 13.466606,10.551018 13.360614,10.739496 13.295418,10.855428 13.180508,11.038477 13.109827,11.151068 12.986198,11.328196 12.910158,11.437143 12.778018,11.607854 12.696743,11.712854 12.556299,11.876654 12.469912,11.977406 12.321366,12.133801 12.229998,12.229997 12.073602,12.378543 11.977405,12.469913 11.813606,12.610357 11.712855,12.696742 11.542144,12.828881 11.437143,12.910158 11.260018,13.033784 11.151069,13.109826 10.968018,13.224739 10.855428,13.295418 10.666949,13.401411 10.551018,13.466606 10.357603,13.563474 10.238637,13.623057 10.110868,13.679585 9.919079,13.76444 9.717274,13.842446 9.593145,13.890428 9.387885,13.958696 9.261632,14.000687 9.053408,14.059015 8.925334,14.09489 8.714642,14.143072 8.585049,14.172707 8.331224,14.217857 8.241576,14.233805 8.027432,14.261078 7.895713,14.277854 7.68058,14.294369 7.548254,14.304527 7.332629,14.310077 7.2,14.313491 7.020289,14.309632 7.020289,14.309633 6.909753,14.30726 6.730329,14.295764 6.619966,14.288694 6.441114,14.269678 6.331105,14.257981 6.153107,14.231564 6.043626,14.215317 5.866772,14.181616 5.757992,14.16089 5.582566,14.120025 5.474666,14.094891 5.300953,14.04698 5.194106,14.017512 5.022394,13.962673 4.916778,13.928944 4.74735,13.867297 4.643138,13.829378 4.476283,13.761041 4.373651,13.719006 4.209652,13.644095 4.108778,13.598018 3.947921,13.516652 3.848981,13.466606 3.69155,13.378903 3.594718,13.324959 3.441001,13.231039 3.346452,13.17327 3.196735,13.073251 3.104646,13.011731 2.959214,12.90573 2.869761,12.84053 2.728897,12.728666 2.642256,12.659861 2.506249,12.542252 2.422594,12.469913 2.291728,12.346678 2.211235,12.270878 2.085784,12.14215 2.008619,12.06297 1.888746,11.928986 1.815014,11.846574 1.700838,11.70762 1.630611,11.622152 1.52225,11.478512 1.455599,11.390162 1.353173,11.242126 1.290173,11.151069 1.193798,10.998917 1.134521,10.905333 1.044316,10.749353 0.988833,10.653413 0.904919,10.493892 0.853304,10.395773 0.775797,10.232996 0.728123,10.132874 0.657142,9.967127 0.613483,9.865179 0.549144,9.696746 0.50957,9.593145 0.451995,9.422313 0.416581,9.317237 0.365886,9.144291 0.334705,9.037915 0.291007,8.863141 0.26413,8.75564 0.227551,8.579323 0.205052,8.470873 0.175708,8.2933 0.15766,8.184078 0.135669,8.005533 0.122143,7.895712 0.107625,7.716483 0.098696,7.606242 0.091768,7.426611 0.087508,7.316123 0.088279,7.13638 0.088756,7.025822 0.097211,6.846248 0.102411,6.735796 0.118432,6.556681 0.128287,6.446509 0.151758,6.268135 0.166194,6.158422 0.196994,5.981077 0.21594,5.871994 0.253951,5.695964 0.277332,5.58769 0.322437,5.413259 0.350181,5.305969 0.402263,5.133422 0.434297,5.027291 0.493235,4.856916 0.529486,4.752121 0.595161,4.584204 0.635559,4.480919 0.707855,4.315742 0.752323,4.214144 0.831121,4.051997 0.879589,3.95226 0.964771,3.793425 1.017165,3.695728 1.108611,3.540493 1.164859,3.44501 1.262452,3.293659 1.322482,3.200564 1.426105,3.053383 1.489841,2.962854 1.599374,2.820129 1.666745,2.732342 1.78207,2.594359 1.853006,2.509487 1.974003,2.376532 2.048429,2.294752 2.174979,2.167108 2.25282,2.088596 2.384737,1.966476 2.465875,1.891363 2.602876,1.774894 2.687143,1.703256 2.828943,1.592554 2.916161,1.524465 3.062474,1.41965 3.152469,1.35518 3.303008,1.256372 3.395604,1.195595 3.550085,1.10291 3.645105,1.0459 3.803243,0.959455 3.900511,0.906286 4.062021,0.8262 4.161361,0.776943 4.325956,0.703336 4.427194,0.658062 4.594588,0.591052 4.697548,0.549836 4.867455,0.489541 4.971963,0.452454 5.144096,0.398993 5.249974,0.36611 5.361271,0.336373 5.531124,0.290992 5.706857,0.251552 5.814949,0.227291 5.992054,0.195039 6.100988,0.175203 6.22236,0.158211 6.38878,0.134913 6.567771,0.117391 6.677866,0.106615 6.85737,0.096636 6.967779,0.0905 7.147512,0.088183 7.258064,0.086758" style="fill: white" />
    <polygon slic3r:type="hole" points="7.233353,2.315041 7.040521,2.317528 7.034008,2.317889 6.841421,2.328595 6.834927,2.32923 6.642893,2.348028 6.636426,2.348934 6.445251,2.375697 6.438824,2.376867 6.24881,2.411471 6.242434,2.412901 6.053893,2.455217 6.047576,2.456904 5.860814,2.506803 5.854567,2.508744 5.669889,2.566101 5.663722,2.56829 5.481434,2.632978 5.475358,2.63541 5.295767,2.707303 5.289795,2.709973 5.113206,2.788944 5.107344,2.791851 4.934066,2.87777 4.928327,2.880907 4.758665,2.973653 4.753058,2.977016 4.587319,3.076455 4.581856,3.080041 4.420344,3.186052 4.415036,3.189854 4.25806,3.302308 4.252915,3.306325 4.100781,3.425093 4.095809,3.42932 3.948825,3.554276 3.944037,3.558708 3.802509,3.689726 3.797916,3.694358 3.662141,3.831306 3.65775,3.83613 3.527933,3.978776 3.52375,3.983782 3.40002,4.131821 3.396044,4.137001 3.27853,4.290126 3.274769,4.295468 3.163596,4.453374 3.160054,4.458867 3.055348,4.621249 3.05203,4.626881 2.953917,4.793431 2.950826,4.799195 2.859438,4.969605 2.856578,4.975489 2.772037,5.149455 2.769414,5.155447 2.691849,5.332661 2.689466,5.338755 2.619003,5.518911 2.616863,5.525094 2.553631,5.707886 2.551741,5.714147 2.495866,5.899267 2.494228,5.905597 2.445835,6.092741 2.444457,6.099128 2.403673,6.287988 2.402557,6.294423 2.369511,6.484693 2.36866,6.491165 2.343479,6.682536 2.342897,6.689037 2.325708,6.881207 2.325401,6.887722 2.31633,7.080382 2.316302,7.086904 2.315473,7.279748 2.315724,7.286266 2.323157,7.478988 2.323683,7.48549 2.33926,7.677784 2.340058,7.684262 2.363651,7.875819 2.364714,7.882262 2.396198,8.072776 2.397524,8.079173 2.43677,8.26834 2.438356,8.274682 2.485236,8.462194 2.487075,8.468469 2.541465,8.654019 2.543555,8.660219 2.605326,8.843499 2.607661,8.849612 2.676687,9.03032 2.679263,9.036334 2.755419,9.214161 2.75823,9.220067 2.841386,9.394708 2.844431,9.400496 2.934461,9.571641 2.937734,9.577302 3.034512,9.744649 3.038009,9.750169 3.141406,9.913409 3.145124,9.918782 3.255015,10.077608 3.258946,10.082819 3.375204,10.236927 3.379346,10.241969 3.501844,10.39105 3.506194,10.395912 3.634802,10.53966 3.639355,10.544332 3.77395,10.682442 3.778699,10.686914 3.9191,10.819129 3.924035,10.823397 4.069954,10.949576 4.075066,10.953636 4.226194,11.073652 4.231471,11.077498 4.387503,11.191225 4.392936,11.194855 4.553564,11.302163 4.559141,11.30557 4.724061,11.406335 4.729773,11.409517 4.898676,11.503611 4.904514,11.506564 5.077094,11.59386 5.083045,11.596578 5.258997,11.676949 5.265051,11.679428 5.444067,11.752747 5.450215,11.754983 5.63199,11.821124 5.63822,11.823113 5.822446,11.881947 5.82875,11.883686 6.015121,11.935088 6.021486,11.93657 6.209697,11.980413 6.216113,11.981634 6.405856,12.01779 6.412314,12.018748 6.603283,12.047091 6.609773,12.04778 6.80166,12.068181 6.808171,12.068598 7.000672,12.080934 7.007193,12.081074 7.199999,12.085213 7.207824,12.085011 7.439165,12.079056 7.446972,12.078457 7.677783,12.060739 7.685554,12.059748 7.915305,12.030487 7.923023,12.029113 8.151188,11.988529 8.158832,11.986781 8.384877,11.935088 8.392434,11.932971 8.615831,11.870393 8.623279,11.867916 8.8435,11.794671 8.850822,11.791842 9.067336,11.70815 9.074515,11.704975 9.286793,11.611054 9.293812,11.607539 9.501322,11.503612 9.508161,11.499765 9.710377,11.386048 9.717018,11.381879 9.91341,11.258591 9.919837,11.254106 10.109872,11.121468 10.116066,11.116674 10.299217,10.974905 10.30516,10.969809 10.480898,10.819129 10.486573,10.81374 10.654366,10.654367 10.659756,10.648692 10.819129,10.480898 10.824225,10.474954 10.974905,10.299216 10.9797,10.293022 11.121468,10.109872 11.125955,10.103444 11.258591,9.91341 11.262761,9.906768 11.386049,9.710376 11.389895,9.703537 11.503611,9.501323 11.507127,9.494303 11.611054,9.286793 11.614232,9.279613 11.70815,9.067336 11.710982,9.060012 11.794671,8.8435 11.797149,8.836052 11.870393,8.615831 11.872509,8.608276 11.935088,8.384877 11.936836,8.377233 11.988528,8.151188 11.989902,8.143469 12.030487,7.915305 12.031476,7.907535 12.060739,7.677784 12.061338,7.669976 12.079057,7.439165 12.079403,7.422507 12.086508,7.2 12.079403,6.977491 12.079057,6.960833 12.078458,6.953027 12.060739,6.722215 12.059748,6.714444 12.030487,6.484693 12.029113,6.476975 11.988529,6.248811 11.986781,6.241166 11.935088,6.015121 11.932971,6.007564 11.870393,5.784167 11.867916,5.776719 11.794671,5.556498 11.791841,5.549175 11.708151,5.332662 11.704975,5.325483 11.611055,5.113206 11.60754,5.106187 11.503611,4.898676 11.499765,4.891837 11.386048,4.689621 11.381878,4.682979 11.258592,4.48659 11.254105,4.480161 11.121468,4.290126 11.116674,4.283932 10.974905,4.100782 10.969809,4.094838 10.819129,3.9191 10.81374,3.913425 10.654366,3.745631 10.649656,3.741119 10.510395,3.607712 10.505495,3.603402 10.360656,3.476006 10.355578,3.471904 10.205469,3.350646 10.200224,3.346757 10.045147,3.231762 10.039745,3.228088 9.880011,3.119487 9.874461,3.116034 9.710376,3.013949 9.704689,3.010721 9.53656,2.915285 9.530747,2.912286 9.358877,2.82362 9.352948,2.820854 9.177647,2.739089 9.171613,2.736561 8.993183,2.661821 8.987052,2.659535 8.805806,2.59195 8.799592,2.589911 8.615832,2.529605 8.609541,2.527815 8.423575,2.474917 8.417221,2.473384 8.229353,2.42802 8.222945,2.426744 8.033487,2.389042 8.027034,2.388029 7.836288,2.358116 7.829802,2.357371 7.638074,2.335371 7.631567,2.3349 7.439165,2.320943 7.432644,2.320746 7.239874,2.314958" style="fill: black" />
  </g>
  <g id="layer3" slic3r:z="1.1e-06">
    <polygon slic3r:type="contour" points="7.291014,0.00735 7.552189,0.015192 7.812866,0.034102 7.851535,0.037071 8.111298,0.066877 8.14979,0.071779 8.408226,0.11231 8.446451,0.119109 8.70314,0.17019 8.741011,0.178851 8.995544,0.240312 9.032969,0.250795 9.284927,0.322466 9.533895,0.40417 9.570788,0.41644 9.816352,0.508009 9.852626,0.522031 10.094368,0.623291 10.129932,0.639027 10.367441,0.749808 10.402205,0.767218 10.635064,0.887347 10.66894,0.906398 10.896733,1.035702 11.119045,1.174011 11.151947,1.194666 11.368363,1.341806 11.4002,1.364028 11.610304,1.519827 11.640989,1.543579 11.844365,1.707866 11.873807,1.73311 12.070045,1.905715 12.098156,1.932415 12.286835,2.113163 12.502761,2.340499 12.529461,2.368609 12.733611,2.606708 12.758855,2.636149 12.950929,2.884292 12.974681,2.914976 13.154385,3.172446 13.176607,3.204284 13.34364,3.470362 13.364296,3.503265 13.518367,3.777237 13.537417,3.811114 13.678223,4.092261 13.695634,4.127026 13.822882,4.414632 13.838617,4.450195 13.952006,4.743538 13.966028,4.779812 14.065262,5.078177 14.077533,5.115071 14.162318,5.417743 14.172801,5.455169 14.242836,5.761429 14.251496,5.799298 14.306485,6.108428 14.313284,6.146651 14.35293,6.457932 14.357833,6.496424 14.381837,6.809139 14.384806,6.847809 14.392873,7.161242 14.393872,7.199999 14.385803,7.513433 14.384806,7.552189 14.3608,7.864906 14.357833,7.903574 14.318186,8.214857 14.313284,8.253348 14.258296,8.562476 14.251496,8.600701 14.181462,8.906959 14.172801,8.94483 14.088017,9.247501 14.077534,9.284926 13.978299,9.583293 13.966027,9.620188 13.852638,9.913531 13.838616,9.949804 13.71137,10.237409 13.695635,10.272973 13.554829,10.554119 13.537417,10.588885 13.383346,10.862856 13.364296,10.896733 13.197261,11.162813 13.176606,11.195716 12.996901,11.453185 12.974681,11.485021 12.782606,11.733164 12.758855,11.763848 12.554705,12.001947 12.529462,12.031387 12.313535,12.258725 12.286836,12.286835 12.059498,12.502762 12.031388,12.529461 11.79329,12.733611 11.763848,12.758855 11.515705,12.95093 11.485021,12.974681 11.227552,13.154385 11.195716,13.176606 10.929636,13.34364 10.896733,13.364296 10.622762,13.518366 10.588884,13.537418 10.307738,13.678223 10.272973,13.695634 9.985367,13.822882 9.949804,13.838616 9.656461,13.952006 9.620187,13.966028 9.32182,14.065263 9.284926,14.077534 8.982255,14.162318 8.94483,14.172801 8.63857,14.242836 8.6007,14.251496 8.291571,14.306485 8.253348,14.313284 7.942065,14.352931 7.903574,14.357833 7.590859,14.381837 7.55219,14.384805 7.238756,14.392874 7.2,14.393872 6.938773,14.388263 6.900017,14.387266 6.639206,14.370554 6.600539,14.367587 6.340559,14.339947 6.302068,14.335044 6.043334,14.296643 6.00511,14.289845 5.748037,14.240861 5.710166,14.2322 5.45517,14.172802 5.202664,14.103159 5.165238,14.092675 4.915637,14.012963 4.878744,14.000693 4.632465,13.911082 4.596193,13.897063 4.353652,13.797725 4.318089,13.781991 4.0797,13.6731 4.044936,13.655689 3.811115,13.537418 3.582275,13.409933 3.548399,13.390882 3.324956,13.25436 3.292055,13.233705 3.074427,13.088319 3.042589,13.066097 2.831191,12.912016 2.800507,12.888265 2.59575,12.725661 2.566308,12.700416 2.36861,12.529462 2.178385,12.350328 2.150275,12.323629 1.967918,12.136509 1.941219,12.108399 1.766971,11.913639 1.741728,11.884199 1.575762,11.682215 1.552011,11.651531 1.3945,11.442739 1.37228,11.410902 1.223392,11.195715 1.083305,10.97455 1.062649,10.941647 0.93153,10.714918 0.91248,10.681041 0.790501,10.449161 0.773091,10.414397 0.660426,10.177786 0.644691,10.142223 0.541514,9.901294 0.527492,9.86502 0.43397,9.620187 0.35028,9.371868 0.338009,9.334974 0.264318,9.08358 0.253835,9.046154 0.190318,8.792104 0.181658,8.754234 0.128486,8.497941 0.121687,8.459717 0.079033,8.201597 0.074131,8.163106 0.042165,7.903574 0.021063,7.643048 0.018094,7.604378 0.008025,7.34327 0.007027,7.304513 0.00815,7.043237 0.009148,7.00448 0.021437,6.743455 0.024407,6.704786 0.047695,6.444425 0.052597,6.405934 0.086714,6.146651 0.131486,5.888864 0.138284,5.85064 0.193539,5.594762 0.202198,5.556893 0.267764,5.303341 0.278248,5.265915 0.353953,5.015102 0.366223,4.978209 0.451894,4.730553 0.465916,4.694279 0.561382,4.450194 0.666471,4.210095 0.682206,4.174531 0.796746,3.938833 0.814158,3.904068 0.937977,3.673187 0.957029,3.639309 1.089955,3.41366 1.110611,3.380757 1.252471,3.160755 1.274693,3.128917 1.425318,2.914975 1.584533,2.707513 1.608285,2.676828 1.77592,2.476258 1.801164,2.446815 1.977046,2.253552 2.003747,2.22544 2.187702,2.039897 2.215812,2.013198 2.407565,1.835686 2.437006,1.810443 2.63615,1.641143 2.842269,1.48023 2.872952,1.456479 3.08563,1.304122 3.117468,1.2819 3.336291,1.138273 3.369194,1.117618 3.593747,0.982891 3.627624,0.96384 3.857493,0.838185 3.892258,0.820774 4.127027,0.704363 4.366278,0.59737 4.401842,0.581635 4.645162,0.484231 4.681436,0.470209 4.928411,0.382566 4.965306,0.370294 5.21552,0.292583 5.252945,0.2821 5.505982,0.214493 5.543853,0.205832 5.799298,0.148502 6.056737,0.10162 6.094962,0.094822 6.353977,0.058561 6.392469,0.053658 6.652647,0.02819 6.691316,0.02522 6.952241,0.010718 6.990999,0.00972 7.252258,0.006352" style="fill: white" />
    <polygon slic3r:type="hole" points="7.051823,2.396893 7.043118,2.397006 6.855953,2.407409 6.847259,2.407892 6.66063,2.426162 6.651962,2.42701 6.466165,2.453021 6.457535,2.454229 6.272873,2.487857 6.264295,2.48942 6.081062,2.530542 6.072551,2.532453 5.891043,2.580948 5.882613,2.583201 5.703133,2.638943 5.694795,2.641534 5.517638,2.7044 5.509409,2.70732 5.334871,2.777191 5.326764,2.780437 5.155146,2.857184 5.147176,2.860748 4.978772,2.944251 4.970951,2.948129 4.806065,3.038262 4.798406,3.042449 4.637331,3.13909 4.629849,3.143579 4.472884,3.246606 4.465592,3.251392 4.313036,3.360678 4.30595,3.365755 4.158098,3.481181 4.151231,3.486541 4.008384,3.607981 4.001748,3.613623 3.864203,3.740952 3.857813,3.746868 3.725861,3.879959 3.719731,3.886142 3.593569,4.024771 3.587709,4.03121 3.467462,4.175083 3.461877,4.181765 3.34767,4.330581 3.342365,4.337494 3.23432,4.490956 3.2293,4.498085 3.127542,4.655895 3.122815,4.663226 3.027466,4.825086 3.023037,4.832604 2.93422,4.998218 2.930094,5.005911 2.847932,5.174981 2.844117,5.182833 2.768735,5.355059 2.765233,5.36306 2.696755,5.538144 2.693573,5.546277 2.632121,5.723923 2.629267,5.732174 2.574963,5.912084 2.57244,5.920442 2.525409,6.102317 2.523224,6.110765 2.483591,6.294308 2.48175,6.302833 2.449634,6.487748 2.448142,6.496337 2.423672,6.682321 2.422535,6.690961 2.405829,6.87772 2.405053,6.886396 2.396237,7.073632 2.395828,7.082329 2.395022,7.269744 2.394985,7.27845 2.402207,7.465745 2.402543,7.474446 2.41768,7.661325 2.418384,7.670006 2.441312,7.85617 2.442378,7.864818 2.472974,8.049969 2.474395,8.058569 2.512534,8.24241 2.514307,8.25095 2.559868,8.433182 2.561984,8.441647 2.614842,8.621973 2.617299,8.63035 2.67733,8.808473 2.680119,8.816746 2.747203,8.992368 2.75032,9.000526 2.82433,9.173346 2.827768,9.181373 2.908583,9.351097 2.912337,9.358981 2.999832,9.52531 3.003897,9.533037 3.09795,9.695671 3.102319,9.703227 3.202805,9.86187 3.207473,9.869239 3.314271,10.023596 3.319231,10.030764 3.432217,10.180534 3.437464,10.18749 3.556514,10.332376 3.562043,10.339105 3.687033,10.478807 3.692837,10.485296 3.823644,10.619519 3.82972,10.625754 3.966169,10.754247 3.972507,10.760215 4.114319,10.882843 4.120906,10.888539 4.267779,11.005177 4.274602,11.010596 4.426242,11.121121 4.433286,11.126255 4.589392,11.230542 4.596643,11.235386 4.75692,11.333315 4.764365,11.337864 4.928513,11.429307 4.936137,11.433554 5.103861,11.518395 5.11165,11.522336 5.282649,11.600443 5.290593,11.604072 5.46457,11.675327 5.47265,11.678636 5.649308,11.742915 5.657513,11.745899 5.836553,11.803077 5.844869,11.805733 6.025995,11.855689 6.034407,11.858008 6.217321,11.900618 6.225816,11.902596 6.410218,11.937734 6.418783,11.939367 6.604375,11.966909 6.612997,11.968189 6.799482,11.988016 6.808145,11.988938 6.995226,12.000922 7.003916,12.00148 7.191296,12.005504 7.199999,12.005691 7.424828,11.999903 7.435272,11.999634 7.659586,11.982415 7.670006,11.981614 7.89329,11.953177 7.903662,11.951856 8.125404,11.91241 8.135703,11.910579 8.355387,11.860342 8.36559,11.858009 8.5827,11.797192 8.592783,11.794369 8.806805,11.723185 8.816747,11.719878 9.027166,11.638543 9.036939,11.634766 9.243242,11.543489 9.252824,11.53925 9.454492,11.438247 9.463861,11.433554 9.660383,11.32304 9.669511,11.317907 9.860374,11.198091 9.86924,11.192525 10.053925,11.063622 10.062505,11.057633 10.2405,10.919857 10.248767,10.913457 10.419559,10.767017 10.427492,10.760215 10.590561,10.605331 10.598135,10.598136 10.753021,10.435066 10.760215,10.427492 10.906654,10.256701 10.913456,10.248768 11.051233,10.070772 11.057634,10.062504 11.186538,9.877818 11.192525,9.86924 11.312341,9.678377 11.317906,9.669512 11.428422,9.472988 11.433554,9.463861 11.534559,9.262191 11.53925,9.252824 11.630527,9.046522 11.634765,9.03694 11.703766,8.85843 11.703767,8.85843 11.719878,8.816747 11.791061,8.602726 11.794369,8.592783 11.855184,8.375674 11.858009,8.36559 11.908246,8.145907 11.910579,8.135704 11.950024,7.913961 11.951855,7.903663 11.980293,7.680377 11.981615,7.670005 11.998833,7.445691 11.999634,7.435271 11.999901,7.425311 12.006128,7.2 11.999901,6.974687 11.999634,6.964727 11.982415,6.740412 11.981615,6.729992 11.953177,6.506708 11.951855,6.496336 11.91241,6.274594 11.910579,6.264295 11.860343,6.044612 11.858009,6.034408 11.797192,5.817298 11.794369,5.807215 11.723184,5.593192 11.719879,5.583252 11.638544,5.372833 11.634765,5.363059 11.543489,5.156757 11.53925,5.147175 11.438247,4.945505 11.433554,4.936137 11.32304,4.739615 11.317906,4.730486 11.198091,4.539625 11.192526,4.530759 11.063622,4.346073 11.057633,4.337495 10.919857,4.159499 10.913457,4.151232 10.767017,3.98044 10.760216,3.972507 10.605331,3.809438 10.598136,3.801863 10.462794,3.672211 10.456506,3.666187 10.315745,3.542377 10.309207,3.536626 10.163321,3.41878 10.156545,3.413306 10.005835,3.301549 9.998834,3.296358 9.843596,3.190812 9.836385,3.18591 9.676919,3.0867 9.669512,3.082092 9.506114,2.98934 9.498525,2.985031 9.331494,2.898863 9.323734,2.894859 9.153368,2.815396 9.145454,2.811705 8.972048,2.739069 8.963994,2.735696 8.820315,2.682118 8.820315,2.682117 8.779668,2.666961 8.601079,2.608352 8.592783,2.60563 8.412052,2.554221 8.403657,2.551833 8.221078,2.507746 8.212598,2.505699 8.028471,2.469058 8.019919,2.467356 7.83454,2.438283 7.825929,2.436932 7.639598,2.415553 7.630944,2.41456 7.443956,2.400994 7.435271,2.400365 7.247928,2.39474 7.239225,2.394478" style="fill: black" />
  </g>
  <g id="layer4" slic3r:z="1.4e-06">
    <polygon slic3r:type="contour" points="7.304179,0.024786 7.551355,0.032209 7.645177,0.039014 7.843573,0.053407 7.937065,0.064134 8.134766,0.08682 8.22778,0.101406 8.424469,0.132253 8.516856,0.150638 8.712218,0.189516 8.803828,0.211637 8.997546,0.258412 9.08823,0.284207 9.279989,0.338754 9.369596,0.36816 9.559081,0.430345 9.614997,0.451195 9.834355,0.532992 9.921362,0.569438 10.105348,0.646506 10.162024,0.672941 10.371592,0.770689 10.455401,0.813925 10.632624,0.905352 10.71461,0.951891 10.887979,1.050303 10.967992,1.100082 11.137187,1.205344 11.215079,1.258304 11.379788,1.370288 11.455408,1.426363 11.615313,1.544939 11.688512,1.604069 11.8433,1.729106 11.913928,1.791228 12.06328,1.922594 12.131188,1.987648 12.274786,2.12521 12.352503,2.207033 12.516839,2.380052 12.590316,2.465747 12.745689,2.646958 12.81482,2.736269 12.961005,2.925125 13.025682,3.017792 13.162449,3.213746 13.222568,3.309513 13.349695,3.512019 13.405148,3.610627 13.522406,3.81914 13.573085,3.92033 13.68025,4.134304 13.726048,4.237818 13.822893,4.456706 13.863704,4.562285 13.950003,4.785544 13.98572,4.892931 14.061244,5.120009 14.09176,5.228946 14.156288,5.459302 14.181493,5.569529 14.234795,5.802616 14.254586,5.913876 14.296438,6.149147 14.310706,6.261181 14.340879,6.49809 14.345396,6.556923 14.36779,6.848642 14.375356,7.119577 14.377337,7.2 14.375356,7.280421 14.36779,7.551355 14.359149,7.663908 14.340879,7.901909 14.32661,8.013944 14.296438,8.250852 14.276647,8.362111 14.234794,8.597383 14.209589,8.70761 14.156287,8.940697 14.125771,9.049634 14.061245,9.279988 14.025529,9.387375 13.950003,9.614456 13.909191,9.720035 13.822893,9.943292 13.777096,10.046805 13.680251,10.265693 13.629572,10.366883 13.522406,10.580858 13.466955,10.679464 13.349696,10.887978 13.289577,10.983746 13.162449,11.186252 13.097772,11.278919 12.961005,11.474873 12.891873,11.564185 12.74569,11.75304 12.672212,11.838736 12.516839,12.019947 12.439124,12.101767 12.274786,12.274787 12.192966,12.352502 12.019946,12.51684 11.934251,12.590316 11.753041,12.745689 11.744173,12.752553 11.474874,12.961004 11.382207,13.025682 11.186251,13.16245 11.090486,13.222568 10.887979,13.349696 10.789372,13.405148 10.580857,13.522407 10.479667,13.573086 10.265694,13.68025 10.16218,13.726049 9.943292,13.822893 9.837713,13.863704 9.614456,13.950002 9.507068,13.98572 9.279988,14.061245 9.171052,14.09176 8.940697,14.156287 8.83047,14.181493 8.597382,14.234795 8.486122,14.254587 8.250852,14.296438 8.138817,14.310706 7.901909,14.340879 7.789356,14.34952 7.551355,14.36779 7.438545,14.370694 7.2,14.376834 7.154809,14.375863 6.907168,14.370547 6.813299,14.364532 6.614801,14.351815 6.52123,14.341865 6.323367,14.32083 6.230244,14.307008 6.033328,14.277785 5.940803,14.260153 5.745152,14.222873 5.653374,14.201494 5.459301,14.156287 5.305253,14.113799 5.305253,14.1138 5.176244,14.078218 5.08641,14.049529 4.896446,13.988863 4.807806,13.956609 4.62037,13.88841 4.533076,13.852657 4.348484,13.777055 4.262685,13.737865 4.081253,13.65499 3.997096,13.612421 3.819141,13.522407 3.736777,13.476523 3.562614,13.379499 3.482194,13.330364 3.312139,13.22646 3.23381,13.174132 3.068179,13.063482 2.992092,13.008024 2.831201,12.890756 2.757506,12.832233 2.601671,12.708477 2.530515,12.646947 2.380053,12.51684 2.311587,12.452366 2.166813,12.316033 2.101179,12.248685 1.962393,12.106273 1.899678,12.036176 1.767064,11.887951 1.707329,11.815252 1.581018,11.661529 1.524327,11.586382 1.404447,11.427474 1.350861,11.350025 1.237547,11.186251 1.187127,11.10665 1.080509,10.938326 1.033317,10.856722 0.933525,10.684164 0.889625,10.600708 0.796791,10.424231 0.75624,10.33907 0.670495,10.158992 0.633358,10.072276 0.554831,9.88891 0.521172,9.800791 0.449995,9.614455 0.419873,9.52508 0.356178,9.336091 0.329655,9.245609 0.273571,9.05428 0.250711,8.962843 0.20237,8.769492 0.183233,8.677249 0.142766,8.48219 0.127413,8.389288 0.094951,8.192841 0.083445,8.09943 0.059118,7.901908 0.051523,7.80814 0.035462,7.609859 0.031837,7.515881 0.024174,7.317158 0.024577,7.223121 0.025433,7.024271 0.029855,6.930324 0.03921,6.731662 0.047593,6.637954 0.065316,6.4398 0.077595,6.34648 0.103561,6.149147 0.119674,6.056365 0.153749,5.860168 0.186685,5.707642 0.215689,5.573332 0.239287,5.482074 0.289187,5.289102 0.316434,5.198832 0.374051,5.007944 0.404885,4.91881 0.470088,4.730324 0.504447,4.642474 0.577105,4.456706 0.645527,4.300382 0.69491,4.187557 0.736134,4.102726 0.823308,3.923342 0.867874,3.840243 0.962109,3.664525 1.009951,3.58331 1.111118,3.411573 1.162178,3.33239 1.270144,3.164952 1.324358,3.08795 1.438995,2.925124 1.496298,2.850456 1.617474,2.69256 1.67781,2.62037 1.805392,2.467721 1.868695,2.398162 2.002555,2.251074 2.068764,2.184293 2.208768,2.04308 2.277782,1.979192 2.423721,1.844091 2.495396,1.783158 2.646959,1.654309 2.721143,1.596394 2.878015,1.473927 2.954563,1.41909 3.116428,1.303135 3.195186,1.251441 3.361728,1.142129 3.442548,1.093638 3.613451,0.9911 3.696183,0.945876 3.871131,0.850243 3.955628,0.808344 4.134304,0.719748 4.220415,0.681239 4.402505,0.599808 4.49008,0.564751 4.675266,0.490618 4.764156,0.459074 4.952123,0.39237 5.042179,0.364401 5.23261,0.305257 5.323683,0.280923 5.516264,0.229469 5.608202,0.208836 5.802616,0.165203 5.895271,0.14833 6.091203,0.112649 6.184426,0.099599 6.381557,0.072001 6.475199,0.062835 6.673215,0.043451 6.767127,0.038231 6.965712,0.027193 7.059742,0.025981 7.25858,0.023417" style="fill: white" />
    <polygon slic3r:type="hole" points="7.005668,2.381315 7.005668,2.382892 6.858391,2.391078 6.846071,2.391764 6.6624,2.409743 6.650117,2.410945 6.467266,2.436544 6.455038,2.438255 6.273299,2.471352 6.261145,2.473565 6.080816,2.514037 6.068756,2.516743 5.890126,2.56447 5.87818,2.567661 5.701542,2.622522 5.689729,2.62619 5.51538,2.688061 5.503719,2.692199 5.331947,2.760963 5.320459,2.765561 5.151561,2.841093 5.140266,2.846143 4.974533,2.928323 4.963448,2.933819 4.801175,3.022523 4.790321,3.028456 4.631801,3.123566 4.621197,3.129928 4.466721,3.231321 4.45639,3.238101 4.30625,3.345657 4.296209,3.35285 4.150701,3.466446 4.14097,3.474043 4.000387,3.593558 3.990983,3.601552 3.855617,3.726864 3.846565,3.735244 3.716703,3.866228 3.708017,3.874989 3.583854,4.011422 3.57555,4.020546 3.457211,4.162137 3.449295,4.171608 3.336898,4.318065 3.32938,4.327861 3.223048,4.47889 3.215936,4.488991 3.11579,4.644301 3.109093,4.654687 3.015255,4.813983 3.008979,4.824636 2.921568,4.987626 2.915722,4.998527 2.834864,5.164915 2.829455,5.176045 2.755268,5.345541 2.750306,5.356877 2.682914,5.529186 2.678405,5.540711 2.617927,5.715541 2.613881,5.727235 2.560439,5.904293 2.556866,5.916134 2.51058,6.095127 2.507484,6.107098 2.468478,6.287732 2.465869,6.299814 2.434263,6.481796 2.43215,6.493968 2.408065,6.677006 2.406455,6.689248 2.390013,6.873048 2.388914,6.885341 2.380238,7.069609 2.379657,7.081934 2.378649,7.316493 2.380269,7.316493 2.38592,7.463041 2.386396,7.475369 2.401294,7.659287 2.40229,7.671587 2.424856,7.854802 2.426364,7.867054 2.456475,8.049271 2.45849,8.061459 2.496025,8.242385 2.498536,8.254487 2.552824,8.471628 2.553937,8.471628 2.598395,8.623296 2.601874,8.635164 2.660955,8.810463 2.664907,8.822189 2.730927,8.995026 2.735343,9.006586 2.808181,9.176668 2.813052,9.188042 2.892586,9.355076 2.897905,9.366247 2.984014,9.52994 2.989773,9.540888 3.082336,9.700946 3.088528,9.711651 3.187421,9.867781 3.194036,9.878224 3.29914,10.030132 3.306171,10.040293 3.417364,10.187688 3.4248,10.197545 3.541963,10.340135 3.549798,10.34967 3.672807,10.487159 3.681033,10.496353 3.809766,10.628448 3.818377,10.637284 3.952664,10.763741 3.961644,10.772198 4.101207,10.892883 4.110542,10.900955 4.255089,11.015744 4.264755,11.02342 4.413992,11.132194 4.423973,11.139469 4.577607,11.242104 4.587881,11.248969 4.745617,11.345344 4.756168,11.35179 4.917713,11.441786 4.928518,11.447805 5.093583,11.531299 5.104622,11.536883 5.343543,11.646017 5.343543,11.643214 5.455386,11.689021 5.466837,11.693711 5.640693,11.756969 5.652321,11.7612 5.828524,11.817471 5.840309,11.821235 6.018564,11.870399 6.030485,11.873686 6.210498,11.915618 6.222538,11.918423 6.404017,11.953004 6.416153,11.955316 6.598804,11.982424 6.611021,11.984238 6.849726,12.009615 6.849726,12.007803 6.990941,12.016851 7.003255,12.01764 7.187666,12.021599 7.2,12.021864 7.421265,12.016169 7.436063,12.015789 7.656823,11.998841 7.671588,11.997709 7.891334,11.96972 7.906031,11.967848 8.124258,11.929029 8.138853,11.926433 8.355054,11.876993 8.369513,11.873687 8.519822,11.831583 8.597471,11.809832 8.808101,11.739777 8.822188,11.735092 9.029273,11.655044 9.043122,11.649691 9.246153,11.559863 9.259733,11.553855 9.458206,11.454453 9.47148,11.447805 9.664888,11.339041 9.677823,11.331767 9.865662,11.213849 9.878224,11.205963 10.059982,11.079102 10.072139,11.070617 10.247313,10.935025 10.259028,10.925956 10.427112,10.781837 10.438354,10.772198 10.598839,10.619768 10.609573,10.609572 10.762003,10.449087 10.772199,10.438353 10.916317,10.27027 10.925956,10.259029 11.061549,10.083854 11.070618,10.072138 11.197478,9.89038 11.205964,9.878223 11.323879,9.690386 11.331766,9.677824 11.440531,9.484415 11.447805,9.47148 11.547207,9.273006 11.553855,9.259732 11.643684,9.0567 11.649691,9.043122 11.729738,8.836038 11.735092,8.822188 11.805145,8.611559 11.809831,8.597472 11.869684,8.383803 11.873687,8.369514 11.923126,8.153313 11.926434,8.138853 11.965252,7.920626 11.967849,7.90603 11.995836,7.686284 11.997708,7.671588 12.014656,7.450827 12.015789,7.436063 12.016815,7.387855 12.022663,7.2 12.016814,7.012143 12.015789,6.963935 11.998841,6.743175 11.997709,6.728411 11.96972,6.508664 11.967848,6.493967 11.929029,6.27574 11.926433,6.261145 11.876994,6.044945 11.873687,6.030486 11.813834,5.816816 11.809832,5.802527 11.739777,5.591897 11.735092,5.577811 11.655044,5.370726 11.64969,5.356876 11.559863,5.153845 11.553855,5.140266 11.454453,4.941792 11.447806,4.928519 11.33904,4.73511 11.331766,4.722174 11.199179,4.510968 11.198421,4.510968 11.079103,4.340017 11.070617,4.32786 10.935025,4.152686 10.925955,4.140969 10.781837,3.972886 10.772198,3.961644 10.619768,3.801159 10.609572,3.790425 10.476377,3.662828 10.467469,3.654294 10.328936,3.532446 10.31967,3.524295 10.176097,3.408317 10.166495,3.400562 10.018174,3.290576 10.008255,3.28322 9.855477,3.179346 9.84526,3.1724 9.688319,3.074762 9.677824,3.068232 9.517015,2.97695 9.50626,2.970845 9.341876,2.886041 9.330882,2.880369 9.163216,2.802166 9.152001,2.796934 8.981345,2.725451 8.969931,2.720669 8.796577,2.656027 8.784984,2.651704 8.609227,2.594026 8.597472,2.590168 8.419604,2.539572 8.407709,2.536189 8.228023,2.492801 8.216006,2.489899 8.034797,2.453838 8.022679,2.451427 7.840237,2.422814 7.828035,2.420902 7.644658,2.39986 7.632393,2.398452 7.448371,2.385103 7.436063,2.384209 7.251689,2.378674 7.239357,2.378304" style="fill: black" />
  </g>
  <g id="layer5" slic3r:z="1.7e-06">
    <polygon slic3r:type="contour" points="7.483479,0.14204 7.54588,0.143914 7.77126,0.160263 7.833543,0.164781 8.058133,0.190551 8.120198,0.197674 8.343639,0.232714 8.405387,0.242399 8.627321,0.286563 8.688651,0.298769 8.908719,0.351908 8.969533,0.366592 9.187374,0.428557 9.247574,0.445681 9.462831,0.516324 9.522316,0.535845 9.734628,0.615014 9.793299,0.636893 9.971689,0.711616 10.06007,0.748636 10.265419,0.844418 10.322166,0.870887 10.523493,0.974748 10.57913,1.003451 10.776078,1.115246 10.830505,1.146141 11.022713,1.265721 11.07583,1.298767 11.262941,1.425984 11.314649,1.46114 11.496305,1.595845 11.546504,1.633069 11.722344,1.775112 11.770937,1.814366 11.940601,1.963598 11.987487,2.004838 12.150621,2.161113 12.195702,2.204298 12.382389,2.400851 12.43398,2.455167 12.610486,2.661026 12.659262,2.717914 12.82533,2.932457 12.871223,2.991746 13.026593,3.214352 13.069529,3.275869 13.213948,3.50592 13.253858,3.569494 13.387065,3.806369 13.423876,3.871828 13.509435,4.042661 13.509434,4.042661 13.579261,4.182081 13.689278,4.430742 13.719681,4.499459 13.817715,4.753082 13.844807,4.82317 13.930607,5.081136 13.954318,5.152425 14.02762,5.414112 14.047878,5.486429 14.108429,5.751219 14.125163,5.824394 14.172705,6.091663 14.185845,6.165524 14.220121,6.434655 14.229595,6.509029 14.250349,6.779401 14.256085,6.854118 14.261247,7.000345 14.265718,7.199999 14.261247,7.399654 14.256085,7.54588 14.235331,7.816252 14.229595,7.890969 14.195316,8.160102 14.185844,8.234475 14.1383,8.501747 14.125163,8.575605 14.064611,8.840396 14.047879,8.913569 13.984782,9.138817 13.954317,9.247575 13.868518,9.505539 13.844807,9.576828 13.746773,9.830451 13.71968,9.90054 13.609662,10.149202 13.579261,10.217917 13.457519,10.460996 13.423877,10.528168 13.290668,10.765045 13.253858,10.830505 13.109439,11.060554 13.069529,11.124129 12.914159,11.346735 12.871223,11.408252 12.705154,11.622796 12.659263,11.682083 12.482756,11.887943 12.43398,11.944831 12.247291,12.141385 12.195702,12.195701 11.999147,12.38239 11.944831,12.43398 11.738971,12.610487 11.682084,12.659262 11.46754,12.825331 11.408252,12.871223 11.164304,13.041488 11.124128,13.06953 10.894078,13.213948 10.830505,13.253857 10.593627,13.387066 10.528168,13.423877 10.285091,13.545618 10.217918,13.57926 9.969256,13.689279 9.900539,13.719681 9.646916,13.817715 9.576828,13.844807 9.318861,13.930608 9.247575,13.954317 8.985886,14.02762 8.913569,14.047879 8.64878,14.108429 8.575605,14.125163 8.308334,14.172706 8.234474,14.185845 7.965343,14.220121 7.890969,14.229595 7.620596,14.25035 7.54588,14.256085 7.274886,14.263061 7.199999,14.264988 6.974146,14.260139 6.911732,14.258799 6.686236,14.24435 6.623922,14.240359 6.399144,14.21646 6.337028,14.209856 6.113329,14.176658 6.051509,14.167482 5.829246,14.12513 5.767825,14.113426 5.547355,14.06207 5.486429,14.047878 5.268114,13.987667 5.207784,13.971028 4.991981,13.902108 4.932346,13.883063 4.719414,13.805586 4.660572,13.784176 4.450873,13.698291 4.392924,13.674558 4.186814,13.580411 4.129856,13.554392 3.927696,13.452136 3.871828,13.423876 3.673976,13.313655 3.6193,13.283196 3.426114,13.165159 3.372729,13.132542 3.184567,13.00684 3.132571,12.972104 2.949794,12.838884 2.899285,12.80207 2.722254,12.661482 2.673332,12.622632 2.502404,12.474827 2.455168,12.433981 2.2907,12.279101 2.245251,12.236302 2.087586,12.07452 2.044018,12.029813 1.893365,11.861425 1.851732,11.814892 1.708238,11.640258 1.668586,11.592 1.532402,11.411479 1.494767,11.361592 1.366041,11.175542 1.330468,11.124128 1.209348,10.93291 1.175877,10.880068 1.062512,10.684038 1.031185,10.629867 0.925723,10.429384 0.896579,10.373983 0.799171,10.169412 0.772252,10.112878 0.683044,9.90457 0.658393,9.847006 0.577534,9.635324 0.55519,9.576828 0.48283,9.362131 0.462835,9.302801 0.399121,9.085447 0.381516,9.025384 0.326599,8.805732 0.311423,8.745033 0.265451,8.523443 0.252747,8.462208 0.215868,8.239039 0.205678,8.177368 0.178041,7.952978 0.170405,7.89097 0.152158,7.665718 0.147116,7.603471 0.138409,7.377717 0.136004,7.315331 0.136975,7.089434 0.137243,7.02701 0.14787,6.801327 0.150805,6.738962 0.166876,6.559308 0.176506,6.451646 0.206002,6.227473 0.214155,6.165523 0.252863,5.942641 0.26356,5.88105 0.311332,5.65982 0.324534,5.598684 0.381222,5.379463 0.396887,5.318883 0.46234,5.102032 0.480428,5.042107 0.5545,4.827984 0.574969,4.768813 0.657509,4.557776 0.680317,4.499459 0.758094,4.321762 0.796286,4.234504 0.895318,4.03072 0.922685,3.974405 1.029738,3.774787 1.059323,3.719622 1.17425,3.524527 1.206011,3.470613 1.328662,3.2804 1.362558,3.227834 1.492787,3.042863 1.528776,2.991745 1.666434,2.812373 1.704474,2.762805 1.84941,2.589392 1.889464,2.541469 2.041532,2.374374 2.083555,2.328198 2.2426,2.167779 2.286552,2.123448 2.45234,1.969972 2.498156,1.927559 2.670334,1.781184 2.717914,1.740735 2.896124,1.601609 2.945371,1.563164 3.129253,1.431435 3.180066,1.395034 3.369261,1.270854 3.421544,1.236537 3.615692,1.120052 3.669345,1.087861 3.868087,0.979222 3.923009,0.949199 4.125988,0.848552 4.182081,0.820737 4.388938,0.728231 4.446101,0.702669 4.656476,0.618452 4.714611,0.59518 4.928145,0.519404 4.987154,0.498463 5.203488,0.431273 5.26327,0.412707 5.482046,0.354253 5.542503,0.3381 5.76336,0.288534 5.824394,0.274836 6.046973,0.234302 6.108481,0.223101 6.275607,0.199704 6.394311,0.183086 6.619261,0.161066 6.681425,0.154981 6.90702,0.142441 6.969363,0.138975 7.195245,0.136064 7.257668,0.13526" style="fill: white" />
    <polygon slic3r:type="hole" points="7.080478,2.268668 7.038943,2.269204 6.879353,2.278075 6.837872,2.280381 6.678741,2.295957 6.637379,2.300006 6.478958,2.322184 6.43778,2.32795 6.280323,2.356624 6.239397,2.364076 6.08316,2.399141 6.042551,2.408255 5.950567,2.432832 5.84756,2.460353 5.694523,2.507883 5.654744,2.520237 5.503687,2.573844 5.464425,2.587776 5.315602,2.647352 5.27692,2.662837 5.130587,2.728277 5.092552,2.745286 4.948962,2.816485 4.911638,2.834993 4.771046,2.911845 4.734501,2.931823 4.597158,3.014225 4.56146,3.035643 4.427622,3.12349 4.392834,3.146323 4.262754,3.239509 4.228942,3.263731 4.102876,3.362149 4.070106,3.387732 3.948307,3.491278 3.916646,3.518194 3.799367,3.626763 3.768882,3.654983 3.65637,3.768467 3.627126,3.797964 3.519551,3.916169 3.49159,3.946894 3.38906,4.069569 3.36241,4.101454 3.26503,4.228344 3.239718,4.261326 3.147591,4.392179 3.123646,4.42619 3.036879,4.56075 3.014326,4.595726 2.933026,4.733738 2.911893,4.769611 2.836161,4.910825 2.816476,4.94753 2.746422,5.091688 2.728211,5.129159 2.663936,5.27601 2.64723,5.31418 2.58884,5.463469 2.573663,5.502272 2.521263,5.653746 2.507644,5.693118 2.461342,5.846519 2.449306,5.886394 2.409205,6.041473 2.398782,6.081781 2.364988,6.238282 2.356202,6.278962 2.32882,6.43663 2.321701,6.477613 2.300835,6.636196 2.295412,6.677415 2.281167,6.83666 2.277465,6.878051 2.269948,7.0377 2.267994,7.079199 2.267308,7.239 2.267129,7.280538 2.275138,7.488214 2.275412,7.488214 2.287795,7.641093 2.291151,7.682511 2.310702,7.841248 2.315783,7.882507 2.34187,8.040378 2.348651,8.081414 2.381174,8.238169 2.389627,8.278914 2.428474,8.434297 2.438572,8.474686 2.483643,8.628445 2.495359,8.668411 2.557993,8.854252 2.559852,8.859767 2.617051,9.009512 2.631918,9.048434 2.695025,9.195794 2.711429,9.234097 2.780336,9.378813 2.798247,9.416429 2.872853,9.558252 2.892244,9.595116 2.972439,9.733788 2.993284,9.769833 3.078966,9.905104 3.101236,9.940264 3.192299,10.071877 3.21597,10.106088 3.312307,10.23379 3.337349,10.266984 3.438856,10.390521 3.465242,10.422633 3.571815,10.541751 3.599516,10.572714 3.711051,10.687161 3.740041,10.716909 3.856386,10.82647 3.886628,10.854949 4.007545,10.959509 4.038974,10.986687 4.16421,11.086141 4.196761,11.111991 4.326059,11.206231 4.359666,11.230726 4.492773,11.319649 4.527372,11.342763 4.664033,11.426263 4.699556,11.447967 4.839519,11.525939 4.875899,11.546205 5.018909,11.618543 5.056082,11.637346 5.201887,11.703948 5.239785,11.721258 5.38813,11.782015 5.426688,11.797807 5.577316,11.852615 5.616469,11.866861 5.769132,11.915615 5.808811,11.928287 5.96325,11.97088 6.003393,11.981952 6.159356,12.018283 6.199894,12.027725 6.357128,12.057687 6.397996,12.065474 6.556244,12.08896 6.597377,12.095065 6.756386,12.111969 6.797718,12.116365 6.957235,12.126584 6.998699,12.129242 7.158471,12.132672 7.199999,12.133563 7.391702,12.12863 7.441532,12.127347 7.632797,12.112663 7.682511,12.108848 7.872899,12.084599 7.922385,12.078297 8.111456,12.044664 8.1606,12.035922 8.347917,11.993086 8.396605,11.981952 8.581727,11.930097 8.629844,11.916619 8.812334,11.855923 8.859766,11.840148 9.039182,11.770795 9.085819,11.752768 9.261724,11.674942 9.307447,11.654713 9.479403,11.568591 9.5241,11.546206 9.691667,11.451973 9.735223,11.42748 9.897964,11.325317 9.940265,11.298761 10.097739,11.18885 10.138671,11.160281 10.290442,11.042803 10.329893,11.012267 10.475517,10.887404 10.513371,10.854948 10.652415,10.722883 10.688555,10.688556 10.820622,10.549511 10.854949,10.51337 10.979812,10.367745 11.012268,10.329892 11.114763,10.197477 11.16028,10.138672 11.270193,9.981196 11.298761,9.940265 11.400925,9.777523 11.42748,9.735223 11.521711,9.567656 11.546205,9.5241 11.632327,9.352143 11.654712,9.307448 11.732539,9.131541 11.752768,9.085819 11.822122,8.906401 11.840148,8.859766 11.900842,8.677278 11.916618,8.629845 11.968474,8.444722 11.981952,8.396605 12.024787,8.209289 12.035922,8.1606 12.079986,7.912891 12.079506,7.912891 12.102544,7.731999 12.108848,7.682512 12.123531,7.491246 12.127347,7.441532 12.128889,7.369786 12.134282,7.199999 12.12889,7.030213 12.127347,6.958466 12.112663,6.767201 12.108848,6.717487 12.084599,6.527099 12.078297,6.477613 12.044663,6.288541 12.035921,6.239396 11.984219,6.013306 11.981952,6.003393 11.930097,5.818271 11.916619,5.770154 11.855923,5.587665 11.840147,5.540231 11.770794,5.360815 11.752768,5.31418 11.674941,5.138274 11.654713,5.092552 11.568591,4.920596 11.546206,4.8759 11.451972,4.70833 11.42748,4.664776 11.325316,4.502034 11.298762,4.459734 11.188849,4.302258 11.160281,4.261327 11.042802,4.109556 11.012267,4.070106 10.887404,3.924481 10.854948,3.886627 10.722883,3.747583 10.688556,3.711443 10.573155,3.600893 10.543158,3.572157 10.423135,3.466588 10.391937,3.439147 10.267548,3.338666 10.235214,3.312547 10.106709,3.217255 10.073307,3.192486 9.940943,3.102493 9.906538,3.079101 9.770565,2.994507 9.735223,2.972519 9.595899,2.893433 9.559685,2.872876 9.417264,2.799404 9.380245,2.780306 9.234978,2.712549 9.19722,2.694937 9.049363,2.633003 9.010932,2.616906 8.860739,2.560899 8.8217,2.546342 8.669425,2.49637 8.629845,2.48338 8.47574,2.439545 8.435684,2.428151 8.280008,2.390561 8.239542,2.380789 8.082544,2.349547 8.041736,2.341426 7.883671,2.316637 7.842584,2.310192 7.683707,2.291964 7.64241,2.287224 7.482974,2.275659 7.441531,2.272652 7.281791,2.267856 7.24027,2.266609" style="fill: black" />
  </g>
  <g id="layer6" slic3r:z="2e-06">
    <polygon slic3r:type="contour" points="7.434399,0.359635 7.535158,0.362662 7.713336,0.375586 7.813902,0.382882 7.991458,0.403256 8.09167,0.414755 8.268317,0.442457 8.368017,0.458094 8.543473,0.493009 8.642501,0.512716 8.81648,0.554726 8.914676,0.578438 9.086894,0.627424 9.184097,0.655074 9.354272,0.710921 9.450321,0.742442 9.685504,0.830141 9.712905,0.840359 9.878142,0.909572 9.971404,0.948638 10.133746,1.024358 10.225375,1.067097 10.384538,1.149207 10.474372,1.195552 10.630074,1.283935 10.717953,1.333818 10.869909,1.428357 10.955674,1.481714 11.103599,1.582287 11.18709,1.639053 11.330701,1.745545 11.411756,1.805651 11.550771,1.917946 11.629232,1.981326 11.763364,2.099306 11.83907,2.165895 11.968036,2.28944 12.040826,2.359171 12.188419,2.514561 12.27172,2.602264 12.41126,2.765009 12.490018,2.856864 12.621308,3.026477 12.695407,3.122206 12.81824,3.298195 12.887566,3.397522 13.001739,3.579394 13.066179,3.682044 13.171492,3.869312 13.23093,3.975007 13.327173,4.167177 13.381496,4.275641 13.468471,4.472225 13.517561,4.583179 13.595066,4.783687 13.63881,4.896855 13.70664,5.100797 13.744925,5.215902 13.802876,5.422785 13.835584,5.539552 13.883455,5.748887 13.910475,5.867039 13.94806,6.078335 13.969273,6.197593 13.996372,6.410361 14.011668,6.53045 14.028076,6.744199 14.037338,6.864841 14.045287,7.080272 14.047997,7.199999 14.045287,7.319726 14.037338,7.535158 14.020928,7.748907 14.011668,7.869548 13.984569,8.082317 13.969273,8.202405 13.931689,8.413702 13.910475,8.532959 13.862603,8.742296 13.835585,8.860445 13.777632,9.06733 13.744924,9.184097 13.677095,9.388037 13.638811,9.503143 13.561305,9.703652 13.517562,9.816818 13.430586,10.013403 13.381495,10.124358 13.285251,10.316529 13.23093,10.424991 13.125617,10.612259 13.06618,10.717953 12.904026,10.976256 12.887567,11.002475 12.764734,11.178463 12.695407,11.277792 12.564119,11.447404 12.490019,11.543134 12.350478,11.705879 12.271719,11.797735 12.124129,11.953123 12.040827,12.040826 11.885437,12.188419 11.797734,12.27172 11.63499,12.41126 11.543134,12.490019 11.373521,12.621308 11.277792,12.695407 11.101805,12.818239 11.002475,12.887567 10.820604,13.001739 10.717954,13.066179 10.530686,13.171492 10.424991,13.23093 10.23282,13.327174 10.124357,13.381496 9.927773,13.468471 9.816818,13.517562 9.616312,13.595066 9.503144,13.638811 9.299201,13.70664 9.184096,13.744925 8.977213,13.802876 8.860446,13.835584 8.651111,13.883455 8.532959,13.910475 8.321662,13.948061 8.202405,13.969273 7.989637,13.996372 7.869548,14.011668 7.6558,14.028076 7.535157,14.037338 7.320918,14.04285 7.199999,14.045964 7.021446,14.042131 6.920668,14.039967 6.742397,14.028544 6.641781,14.022099 6.464078,14.003205 6.363782,13.992542 6.186931,13.966296 6.087114,13.951481 5.911398,13.917998 5.812223,13.8991 5.637926,13.858499 5.539553,13.835585 5.366959,13.787984 5.269546,13.761117 5.098937,13.706631 5.002646,13.67588 4.834308,13.614627 4.739298,13.580058 4.573515,13.512159 4.479945,13.473836 4.317002,13.399408 4.225034,13.357398 4.065211,13.276557 3.975006,13.230929 3.744405,13.102463 3.744405,13.102464 3.730307,13.09461 3.577578,13.001293 3.491378,12.948625 3.342624,12.849249 3.258667,12.793161 3.114169,12.687842 3.032614,12.628399 2.892657,12.517254 2.813665,12.454524 2.678533,12.337671 2.602263,12.27172 2.47224,12.149277 2.398854,12.08017 2.27421,11.95227 2.20386,11.880083 2.084756,11.746959 2.017534,11.671825 1.904093,11.533764 1.840066,11.455841 1.732402,11.313126 1.671638,11.232578 1.569869,11.085491 1.512431,11.002475 1.416677,10.851303 1.362633,10.765981 1.273009,10.611005 1.222426,10.523536 1.139051,10.365041 1.091993,10.275586 1.014984,10.113856 0.971521,10.022576 0.888039,9.827637 0.888038,9.827637 0.861191,9.764946 0.797266,9.597596 0.761187,9.503143 0.703982,9.333409 0.671695,9.237611 0.621325,9.065778 0.592898,8.968795 0.549481,8.795143 0.524979,8.697135 0.488634,8.521952 0.468122,8.423078 0.438966,8.246646 0.422511,8.147068 0.400662,7.969671 0.388331,7.869548 0.373906,7.691472 0.365764,7.590963 0.358881,7.412488 0.354997,7.311756 0.355765,7.133168 0.356198,7.032373 0.364599,6.853954 0.36934,6.753254 0.385258,6.575291 0.394243,6.474847 0.417563,6.29762 0.430724,6.197594 0.461327,6.021389 0.478599,5.921938 0.516366,5.74704 0.537682,5.648326 0.582499,5.475016 0.607793,5.3772 0.659539,5.205763 0.688743,5.109004 0.747303,4.939724 0.780354,4.844181 0.845606,4.677344 0.882437,4.583179 0.954268,4.419065 0.99481,4.326437 1.073102,4.165332 1.11729,4.074403 1.201923,3.91659 1.249691,3.827519 1.340549,3.673282 1.391832,3.586228 1.488798,3.43585 1.543526,3.350976 1.646481,3.204743 1.704591,3.122207 1.81342,2.9804 1.874842,2.900364 1.989426,2.763267 2.054096,2.68589 2.174318,2.553789 2.242171,2.479231 2.367909,2.352407 2.438875,2.280828 2.569943,2.159494 2.643918,2.091013 2.780039,1.975292 2.856865,1.909979 3.042227,1.76527 3.07727,1.737912 3.222642,1.633772 3.304689,1.574996 3.454262,1.476821 3.538682,1.421412 3.692169,1.329323 3.778799,1.277346 3.935919,1.191458 4.024601,1.142981 4.18507,1.063413 4.275641,1.018503 4.439176,0.94537 4.531475,0.904094 4.697792,0.837515 4.791661,0.799938 4.960476,0.74003 5.055756,0.706219 5.226784,0.653101 5.323313,0.623121 5.496269,0.57691 5.593888,0.550828 5.76849,0.511642 5.867039,0.489524 6.043004,0.45748 6.14232,0.439394 6.319365,0.414608 6.41929,0.400619 6.597128,0.383211 6.697501,0.373386 6.875852,0.363471 6.976512,0.357877 7.15509,0.355574 7.25588,0.354276" style="fill: white" />
    <polygon slic3r:type="hole" points="7.189737,2.049235 7.032248,2.051265 7.032248,2.051247 6.821868,2.062941 6.769771,2.06804 6.612511,2.083435 6.560647,2.090695 6.40409,2.112613 6.352542,2.122 6.19694,2.150336 6.145791,2.161816 5.991393,2.196468 5.940725,2.210006 5.787784,2.250868 5.737681,2.26643 5.586446,2.3134 5.536992,2.33095 5.387715,2.383924 5.338993,2.403428 5.191922,2.462302 5.144017,2.483725 4.999405,2.548396 4.952397,2.571705 4.810497,2.642066 4.76447,2.667226 4.625531,2.743175 4.580567,2.770153 4.444841,2.851585 4.401024,2.880346 4.268761,2.967159 4.226175,2.997666 4.097626,3.089754 4.056354,3.121975 3.93177,3.219236 3.891895,3.253135 3.771529,3.355463 3.733132,3.391008 3.617232,3.4983 3.580397,3.535453 3.469211,3.647599 3.433993,3.686297 3.327685,3.803111 3.294119,3.843273 3.192794,3.964504 3.160914,4.006045 3.064679,4.131442 3.034519,4.17428 2.943478,4.303592 2.915071,4.347645 2.829326,4.480621 2.802709,4.525804 2.722366,4.662192 2.697572,4.708423 2.622732,4.847975 2.599797,4.89517 2.530565,5.037632 2.509523,5.085708 2.446005,5.23083 2.426889,5.279704 2.369187,5.427236 2.352031,5.476826 2.300249,5.626516 2.285092,5.676736 2.239333,5.828335 2.226205,5.879105 2.186575,6.032358 2.175512,6.083593 2.142115,6.238253 2.133149,6.289871 2.106088,6.445685 2.099258,6.497601 2.078637,6.654319 2.073974,6.706452 2.059897,6.863822 2.057435,6.916088 2.050008,7.073859 2.049782,7.126176 2.049104,7.284098 2.051119,7.33638 2.057207,7.494202 2.061432,7.546368 2.074188,7.703838 2.080588,7.755805 2.099909,7.912673 2.108449,7.964357 2.134231,8.120372 2.144877,8.171689 2.177016,8.3266 2.189733,8.377469 2.228124,8.531024 2.242881,8.581363 2.28742,8.733311 2.304178,8.783033 2.354764,8.933125 2.37349,8.982149 2.430017,9.130132 2.450676,9.178374 2.513041,9.324 2.535601,9.371378 2.603698,9.514393 2.628121,9.560822 2.701849,9.700975 2.728102,9.746374 2.807354,9.883416 2.835405,9.927701 2.920078,10.061379 2.949891,10.104468 3.039881,10.234532 3.071421,10.276341 3.166625,10.402539 3.199858,10.442985 3.300171,10.565068 3.335062,10.604066 3.44038,10.721782 3.476895,10.75925 3.587116,10.872349 3.625206,10.908219 3.740183,11.016492 3.779769,11.050724 3.899262,11.154052 3.940262,11.186613 4.064023,11.284895 4.106352,11.315746 4.234129,11.40888 4.277705,11.437991 4.409246,11.525867 4.453985,11.553202 4.58904,11.63572 4.634862,11.661247 4.773177,11.738301 4.819996,11.761983 4.961325,11.833471 5.009058,11.855274 5.153146,11.921091 5.201712,11.940982 5.348311,12.001023 5.397623,12.018965 5.546481,12.073129 5.596458,12.089089 5.747323,12.137269 5.797885,12.151215 5.950506,12.193308 6.001564,12.205201 6.155691,12.241104 6.207167,12.250912 6.362548,12.280519 6.414356,12.288208 6.570743,12.311418 6.6228,12.316953 6.779937,12.333659 6.832161,12.337007 6.989801,12.347106 7.042108,12.348229 7.199999,12.351619 7.262759,12.350004 7.452208,12.345127 7.514824,12.340321 7.703839,12.325811 7.766167,12.317872 7.954314,12.29391 8.016213,12.282898 8.203059,12.249662 8.264382,12.235638 8.449493,12.193308 8.5101,12.17633 8.693042,12.125085 8.752786,12.105214 8.933126,12.045234 8.991863,12.02253 9.169168,11.953995 9.226758,11.928515 9.384642,11.85866 9.384642,11.859591 9.60732,11.748068 9.60732,11.749268 9.847276,11.614327 9.900554,11.580881 10.061379,11.479921 10.112935,11.443937 10.268557,11.335319 10.318243,11.296859 10.468227,11.180762 10.515903,11.139884 10.659816,11.016491 10.705336,10.973256 10.842745,10.842744 10.88598,10.797224 11.016492,10.659815 11.057369,10.612141 11.180763,10.468226 11.219224,10.418539 11.33532,10.268556 11.371303,10.217002 11.479921,10.06138 11.513366,10.008102 11.614327,9.847276 11.645177,9.792417 11.738301,9.626821 11.766496,9.570525 11.851602,9.400593 11.877083,9.343003 11.953994,9.169169 11.976699,9.11043 12.045234,8.933126 12.065104,8.873383 12.125086,8.693041 12.142062,8.632437 12.193308,8.449494 12.20733,8.38817 12.249662,8.203058 12.271104,8.08252 12.29391,7.954314 12.301847,7.891985 12.325811,7.703838 12.330617,7.641221 12.345128,7.452208 12.349978,7.274939 12.352002,7.199999 12.346728,7.007088 12.345127,6.947791 12.34032,6.885174 12.325811,6.69616 12.317872,6.633831 12.293909,6.445684 12.282898,6.383785 12.249662,6.19694 12.235638,6.135616 12.193308,5.950506 12.17633,5.889899 12.125085,5.706957 12.105215,5.647214 12.045234,5.466872 12.02253,5.408136 11.953995,5.230831 11.928516,5.173242 11.85866,5.015356 11.859591,5.015356 11.748068,4.792678 11.749268,4.792678 11.614328,4.552722 11.58088,4.499444 11.479921,4.338619 11.443937,4.287063 11.335319,4.131441 11.296858,4.081754 11.180763,3.931771 11.139884,3.884095 11.016491,3.740182 10.973256,3.694662 10.842744,3.557253 10.804964,3.521062 10.690922,3.411813 10.651628,3.377252 10.533016,3.272924 10.492292,3.240028 10.369365,3.140727 10.327296,3.109532 10.200302,3.015361 10.156968,2.985898 10.026161,2.896963 9.981648,2.869269 9.847276,2.785672 9.801664,2.75978 9.66398,2.681626 9.617353,2.657571 9.476607,2.584962 9.429049,2.562779 9.285494,2.495822 9.237089,2.475546 9.090972,2.41434 9.041801,2.396005 8.893377,2.340659 8.843525,2.324299 8.693042,2.274914 8.642592,2.260563 8.490299,2.217243 8.439334,2.204937 8.285488,2.167788 8.23409,2.15756 8.078938,2.126684 8.027191,2.118569 7.870985,2.094072 7.818971,2.088103 7.661964,2.070088 7.609767,2.066301 7.452208,2.054872 7.399911,2.053301 7.242049,2.048561" style="fill: black" />
  </g>
  <g id="layer7" slic3r:z="2.3e-06">
    <polygon slic3r:type="contour" points="7.42264,0.778112 7.514658,0.780876 7.684511,0.793197 7.776352,0.799861 7.945612,0.819282 8.03713,0.829782 8.205523,0.856191 8.296576,0.870471 8.463833,0.903755 8.554268,0.921751 8.720119,0.9618 8.809795,0.983454 8.973967,1.030152 9.062736,1.055402 9.224961,1.108641 9.312677,1.137428 9.472683,1.197092 9.5592,1.229354 9.716716,1.295334 9.801887,1.33101 9.956646,1.403194 10.040323,1.442223 10.192052,1.520499 10.274091,1.562822 10.422517,1.647074 10.502773,1.692631 10.64763,1.782752 10.725953,1.831479 10.845123,1.912503 10.943215,1.979195 11.080116,2.080712 11.154139,2.135603 11.286659,2.242653 11.358313,2.300534 11.486177,2.413 11.555316,2.473813 11.678257,2.591586 11.744731,2.655266 11.885427,2.803395 11.961501,2.88349 12.094523,3.038633 12.166448,3.122519 12.291601,3.284205 12.359273,3.37163 12.476367,3.539396 12.539679,3.630106 12.648519,3.803481 12.707367,3.897225 12.807757,4.075742 12.862039,4.172268 12.953787,4.35546 13.003396,4.454513 13.086308,4.641912 13.131139,4.74324 13.205022,4.934379 13.244972,5.03773 13.309633,5.232142 13.344596,5.337262 13.399839,5.534479 13.42971,5.641115 13.475344,5.84067 13.50002,5.94857 13.535849,6.149995 13.555223,6.258907 13.581055,6.461733 13.595023,6.571403 13.606541,6.721446 13.619123,6.885341 13.632377,7.179055 13.632985,7.199999 13.632376,7.220943 13.619123,7.514657 13.603481,7.71842 13.595024,7.828595 13.569191,8.031422 13.555222,8.141092 13.519392,8.342517 13.50002,8.451428 13.454386,8.650982 13.42971,8.758883 13.374467,8.9561 13.344595,9.062737 13.279935,9.257148 13.244972,9.362268 13.171088,9.553409 13.13114,9.656757 13.048226,9.844158 13.003396,9.945485 12.911647,10.128679 12.862039,10.22773 12.76165,10.406247 12.707367,10.502773 12.598528,10.676148 12.53968,10.769891 12.422587,10.937656 12.359274,11.028368 12.23412,11.190055 12.166447,11.277481 12.033427,11.432622 11.961502,11.516507 11.820805,11.664638 11.744731,11.744732 11.596603,11.885427 11.516507,11.961502 11.396451,12.06444 11.277481,12.166447 11.115793,12.291602 11.028369,12.359273 10.860604,12.476366 10.769891,12.53968 10.596517,12.648519 10.502773,12.707367 10.324256,12.807757 10.22773,12.862039 10.044538,12.953788 9.945486,13.003395 9.758086,13.086308 9.656757,13.13114 9.465617,13.205023 9.362269,13.244971 9.167856,13.309634 9.062737,13.344595 8.865519,13.39984 8.758882,13.429711 8.559327,13.475345 8.451428,13.500019 8.250003,13.53585 8.141092,13.555222 7.938264,13.581056 7.828595,13.595023 7.678552,13.606541 7.514657,13.619123 7.310428,13.624379 7.199999,13.627222 7.029788,13.623568 6.937753,13.62159 6.767813,13.610703 6.675925,13.604815 6.45135,13.580939 6.41493,13.577067 6.189117,13.543553 6.155185,13.538517 5.987679,13.506599 5.897109,13.489342 5.730956,13.450638 5.641115,13.42971 5.476586,13.384333 5.387623,13.359796 5.224988,13.307858 5.137049,13.279773 4.976578,13.221386 4.88981,13.189813 4.731773,13.125087 4.646322,13.09009 4.49099,13.019137 4.407002,12.980774 4.254646,12.903708 4.172268,12.862039 4.023158,12.778972 3.942534,12.734058 3.851029,12.678148 3.71822,12.597002 3.576417,12.502271 3.499742,12.451048 3.361996,12.350649 3.287518,12.296364 3.154099,12.190412 3.081961,12.133125 2.953142,12.021731 2.88349,11.961501 2.759541,11.844779 2.692522,11.781668 2.573702,11.659744 2.509454,11.593818 2.395917,11.466915 2.334526,11.398299 2.226385,11.266689 2.167914,11.195528 2.06528,11.05948 2.009786,10.985919 1.912774,10.845707 1.860319,10.769892 1.769038,10.625782 1.719683,10.547862 1.634248,10.400128 1.588052,10.320246 1.508573,10.169159 1.465597,10.087463 1.392187,9.933289 1.352494,9.849928 1.285263,9.69294 1.248912,9.608057 1.187974,9.448526 1.155026,9.362269 1.100493,9.200465 1.071008,9.112978 1.022991,8.949173 0.99703,8.860603 0.955642,8.695066 0.933264,8.60556 0.898619,8.438564 0.879885,8.348266 0.852093,8.180079 0.837065,8.08914 0.816236,7.920031 0.804976,7.828595 0.791224,7.658837 0.783789,7.567049 0.777228,7.396914 0.77368,7.30492 0.774412,7.134677 0.774808,7.042625 0.782816,6.872543 0.787145,6.78058 0.80232,6.610932 0.810527,6.519201 0.832755,6.350257 0.844775,6.258907 0.873949,6.090935 0.889721,6.000113 0.925725,5.833386 0.945192,5.743236 0.987914,5.578024 1.011014,5.488693 1.060341,5.325268 1.087014,5.236902 1.142835,5.075533 1.17302,4.988279 1.235225,4.829235 1.268859,4.74324 1.337333,4.586795 1.374358,4.502204 1.448991,4.348625 1.489347,4.265584 1.570025,4.115145 1.61365,4.033801 1.700264,3.886769 1.747096,3.80727 1.839531,3.663917 1.889511,3.586408 1.987658,3.447005 2.040724,3.371631 2.144469,3.236449 2.200563,3.163356 2.294832,3.050565 2.368852,2.962002 2.483456,2.836073 2.545423,2.767982 2.665285,2.647085 2.730096,2.581715 2.855039,2.466051 2.922598,2.40351 3.052356,2.293197 3.122519,2.23355 3.256822,2.128701 3.329441,2.072008 3.468021,1.972734 3.542952,1.919055 3.685535,1.825469 3.76263,1.774867 3.908948,1.687079 3.988062,1.639612 4.064007,1.598098 4.218828,1.513467 4.371801,1.437615 4.454512,1.396603 4.610407,1.326886 4.6947,1.28919 4.853244,1.225724 4.938971,1.191405 5.099897,1.134298 5.18691,1.10342 5.349948,1.052783 5.438102,1.025405 5.602978,0.981353 5.692128,0.957533 5.858573,0.920177 5.94857,0.89998 6.116314,0.869432 6.207015,0.852915 6.375786,0.829288 6.467043,0.816512 6.636572,0.799918 6.728237,0.790945 6.898254,0.781493 6.990182,0.776384 7.160417,0.774189 7.252462,0.773003" style="fill: white" />
    <polygon slic3r:type="hole" points="7.17302,1.632729 7.018219,1.634724 6.94588,1.638744 6.791276,1.647338 6.719143,1.6544 6.564982,1.66949 6.493173,1.679542 6.339699,1.701029 6.268328,1.714025 6.115789,1.741804 6.04497,1.757698 5.893613,1.791668 5.823462,1.810411 5.67353,1.85047 5.604162,1.872014 5.455904,1.91806 5.387434,1.942358 5.241096,1.99429 5.173636,2.021294 5.029464,2.079008 4.963133,2.108672 4.821372,2.172066 4.756285,2.20434 4.617179,2.273316 4.553451,2.308152 4.417249,2.382605 4.354992,2.419958 4.22194,2.499787 4.161274,2.539606 4.031616,2.62471 3.972652,2.666949 3.846636,2.757223 3.789491,2.801836 3.667361,2.89718 3.61215,2.944117 3.494155,3.04443 3.440994,3.093642 3.327376,3.198821 3.276377,3.250261 3.167378,3.3602 3.118618,3.41378 3.014403,3.528293 2.967927,3.5839 2.868601,3.702742 2.824458,3.760261 2.730121,3.883186 2.68836,3.9425 2.599113,4.069264 2.559782,4.130259 2.475727,4.260614 2.438874,4.323174 2.360112,4.456876 2.325785,4.520886 2.252419,4.657688 2.220663,4.723034 2.152796,4.862689 2.123659,4.929255 2.061392,5.071519 2.034926,5.139188 1.97836,5.283815 1.954607,5.352476 1.903846,5.499216 1.882858,5.568751 1.838001,5.717363 1.819824,5.787657 1.780976,5.937892 1.765656,6.008833 1.732917,6.160445 1.720504,6.231914 1.693977,6.384657 1.684519,6.456541 1.664304,6.610172 1.657846,6.682355 1.644048,6.836624 1.640641,6.90899 1.633359,7.063654 1.633047,7.136089 1.632382,7.290902 1.635172,7.36329 1.64114,7.518002 1.646991,7.590232 1.659494,7.744599 1.668356,7.816552 1.687297,7.970329 1.699121,8.04189 1.724395,8.194833 1.739137,8.265888 1.770642,8.417746 1.78825,8.488178 1.825886,8.63871 1.846315,8.708405 1.889978,8.85736 1.913181,8.926205 1.962771,9.073341 1.988698,9.141217 2.044112,9.286287 2.085674,9.383337 2.133853,9.495838 2.165088,9.561436 2.231843,9.701633 2.26566,9.765919 2.337935,9.903313 2.374287,9.966172 2.451976,10.100512 2.490816,10.16183 2.57382,10.292873 2.615098,10.352533 2.703317,10.480036 2.746984,10.537921 2.840314,10.661635 2.886326,10.717632 2.984664,10.837313 3.032972,10.891308 3.136216,11.006704 3.186773,11.058581 3.294824,11.169455 3.347561,11.219117 3.460274,11.325258 3.515083,11.372652 3.632223,11.473947 3.688991,11.519028 3.810312,11.615374 3.868921,11.658092 3.994181,11.74939 4.132135,11.84155 4.183466,11.875842 4.245412,11.913691 4.377806,11.994583 4.441249,12.029927 4.576841,12.105464 4.641665,12.138253 4.780209,12.208332 4.8463,12.238521 4.98755,12.30304 5.054792,12.33058 5.198504,12.389441 5.266781,12.414283 5.412707,12.467379 5.481905,12.489477 5.629798,12.536709 5.699803,12.556016 5.849417,12.597281 5.920113,12.613748 6.071205,12.648944 6.142475,12.662523 6.294797,12.691549 6.423753,12.710688 6.519834,12.724948 6.59191,12.732609 6.745953,12.748987 6.818261,12.75362 6.972795,12.763522 7.045217,12.765076 7.2,12.768401 7.286895,12.766164 7.472612,12.761383 7.559309,12.754728 7.744599,12.740504 7.8309,12.729511 8.01534,12.706022 8.101043,12.690776 8.284209,12.658194 8.369115,12.638778 8.550581,12.597281 8.634494,12.573775 8.813832,12.523539 8.896552,12.496028 9.07334,12.437229 9.154668,12.405791 9.328481,12.338605 9.437927,12.290183 9.578628,12.227931 9.656572,12.188894 9.823158,12.105464 9.899113,12.062749 10.061449,11.971458 10.135217,11.925149 10.292873,11.826178 10.364254,11.776356 10.516811,11.669879 10.585607,11.616627 10.732636,11.502819 10.798647,11.44622 10.939726,11.325258 11.002752,11.265394 11.137453,11.137454 11.197316,11.074427 11.325258,10.939725 11.381855,10.873715 11.502819,10.732636 11.618339,10.583397 11.618338,10.583397 11.669878,10.516812 11.7197,10.44543 11.826177,10.292874 11.872486,10.219106 11.971458,10.061449 12.014174,9.985492 12.105464,9.823158 12.1445,9.745213 12.227932,9.578627 12.263209,9.498892 12.338606,9.32848 12.370041,9.247154 12.437229,9.07334 12.46474,8.99062 12.523539,8.813832 12.547045,8.72992 12.59728,8.550582 12.616698,8.465673 12.658195,8.284209 12.673439,8.198506 12.706022,8.01534 12.717012,7.929041 12.740504,7.744599 12.747158,7.657903 12.761384,7.472612 12.765125,7.249197 12.767015,7.2 12.765125,7.150802 12.761384,6.927387 12.754727,6.840688 12.740504,6.655399 12.729511,6.569098 12.706022,6.384658 12.690776,6.298955 12.658194,6.115789 12.638777,6.030882 12.59728,5.849417 12.573775,5.765504 12.523539,5.586166 12.496027,5.503446 12.437229,5.326659 12.405791,5.245331 12.338605,5.071518 12.290183,4.962072 12.227931,4.821371 12.188893,4.743425 12.105464,4.576841 12.062748,4.500884 11.971458,4.33855 11.925149,4.264782 11.826178,4.107125 11.776356,4.035744 11.669879,3.883187 11.616627,3.814391 11.502819,3.667362 11.44622,3.601351 11.325257,3.460274 11.265393,3.397246 11.137454,3.262546 11.100524,3.227169 10.973347,3.105338 10.918941,3.057484 10.802668,2.955213 10.746283,2.909666 10.625777,2.81232 10.567528,2.769127 10.443036,2.676811 10.383038,2.636019 10.254806,2.548834 10.193172,2.510489 10.061449,2.42854 9.998296,2.392692 9.863323,2.316075 9.798766,2.282771 9.660793,2.211593 9.594944,2.180879 9.454216,2.115239 9.387196,2.087166 9.243957,2.027167 9.175876,2.001779 9.030376,1.947524 8.961352,1.924872 8.813832,1.87646 8.74398,1.856589 8.59469,1.814124 8.462511,1.782207 8.373308,1.760668 8.302143,1.746506 8.150048,1.716239 8.078398,1.705001 7.92527,1.680987 7.853253,1.672723 7.699339,1.655063 7.627069,1.649821 7.472611,1.638615 7.400204,1.636442 7.245452,1.631795" style="fill: black" />
  </g>
</svg>
