<?xml version="1.0" encoding="UTF-8" standalone="yes"?>
<!DOCTYPE svg PUBLIC "-//W3C//DTD SVG 1.0//EN" "http://www.w3.org/TR/2001/REC-SVG-20010904/DTD/svg10.dtd">
<svg width="2" height="2" xmlns="http://www.w3.org/2000/svg" xmlns:svg="http://www.w3.org/2000/svg" xmlns:xlink="http://www.w3.org/1999/xlink" xmlns:slic3r="http://slic3r.org/namespaces/slic3r">
  <!-- 
  Generated using Slic3r 1.2.9
  http://slic3r.org/
   -->
  <g id="layer0" slic3r:z="1.75e-07">
    <polygon slic3r:type="contour" points="1.068195,0.002429 1.081245,0.003406 1.142551,0.010315 1.155492,0.012265 1.216114,0.023735 1.228872,0.026646 1.288465,0.042615 1.300971,0.046472 1.359204,0.066848 1.371387,0.07163 1.427935,0.096302 1.439724,0.101979 1.494271,0.130809 1.505605,0.137352 1.557843,0.170175 1.568657,0.177548 1.618297,0.214183 1.628529,0.222342 1.675292,0.262587 1.684886,0.271489 1.728511,0.315113 1.737412,0.324706 1.777656,0.371471 1.785815,0.381701 1.822451,0.431342 1.829822,0.442154 1.862648,0.494394 1.86919,0.505727 1.89802,0.560274 1.903698,0.572064 1.928368,0.628611 1.93315,0.640794 1.953526,0.699027 1.957384,0.711533 1.973352,0.771127 1.976264,0.783885 1.987735,0.844505 1.989684,0.857445 1.996591,0.918754 1.99757,0.931804 1.999877,0.993456 1.999877,1.006542 1.99757,1.068194 1.996591,1.081244 1.989684,1.142553 1.987735,1.155493 1.976263,1.216114 1.973352,1.228872 1.957384,1.288465 1.953526,1.300971 1.93315,1.359204 1.928368,1.371387 1.903698,1.427934 1.89802,1.439724 1.86919,1.494271 1.862648,1.505604 1.829822,1.557844 1.82245,1.568657 1.785815,1.618298 1.777656,1.628528 1.737412,1.675292 1.728511,1.684885 1.684885,1.728511 1.675293,1.737412 1.62853,1.777655 1.618297,1.785815 1.568656,1.822451 1.557844,1.829822 1.505604,1.862648 1.494272,1.86919 1.439725,1.898018 1.427933,1.903697 1.371386,1.928369 1.359205,1.933149 1.300971,1.953526 1.288465,1.957384 1.228872,1.973352 1.216114,1.976263 1.155492,1.987734 1.142551,1.989684 1.081245,1.996592 1.068195,1.99757 1.006542,1.999877 0.993456,1.999877 0.931804,1.99757 0.918753,1.996591 0.857445,1.989683 0.844505,1.987734 0.783885,1.976263 0.771126,1.973352 0.711532,1.957383 0.699027,1.953526 0.640794,1.93315 0.628611,1.928368 0.572064,1.903697 0.560272,1.898018 0.505727,1.869191 0.494394,1.862648 0.442155,1.829823 0.431341,1.82245 0.381701,1.785814 0.37147,1.777656 0.324706,1.737412 0.315113,1.728511 0.271487,1.684885 0.262587,1.675292 0.222342,1.628528 0.214184,1.618298 0.177548,1.568657 0.170175,1.557843 0.137352,1.505605 0.130809,1.494271 0.101979,1.439724 0.096302,1.427935 0.07163,1.371387 0.066848,1.359204 0.046472,1.300971 0.042615,1.288465 0.026647,1.228872 0.023734,1.216113 0.012264,1.155493 0.010315,1.142553 0.003407,1.081245 0.002429,1.068194 0.000122,1.006542 0.000122,0.993456 0.002429,0.931804 0.003407,0.918753 0.010315,0.857445 0.012264,0.844505 0.023734,0.783885 0.026646,0.771127 0.042615,0.711533 0.046472,0.699027 0.066848,0.640794 0.07163,0.628611 0.096302,0.572063 0.101979,0.560274 0.130809,0.505727 0.137352,0.494393 0.170176,0.442154 0.177547,0.431342 0.214184,0.381701 0.222342,0.371471 0.262587,0.324706 0.271488,0.315112 0.315112,0.271489 0.324706,0.262587 0.37147,0.222342 0.381701,0.214184 0.431342,0.177547 0.442154,0.170176 0.494394,0.137351 0.505726,0.130809 0.560273,0.101979 0.572064,0.096301 0.628611,0.07163 0.640794,0.066848 0.699027,0.046472 0.711533,0.042615 0.771126,0.026647 0.783885,0.023734 0.844505,0.012264 0.857445,0.010315 0.918753,0.003407 0.931804,0.002429 0.993456,0.000122 1.006542,0.000122" style="fill: white" />
  </g>
  <g id="layer1" slic3r:z="5e-07">
    <polygon slic3r:type="contour" points="1.056061,0.001747 1.093346,0.00454 1.130502,0.008727 1.167476,0.014301 1.204215,0.021252 1.240669,0.029573 1.276787,0.03925 1.312517,0.050271 1.34781,0.062621 1.382616,0.076281 1.416887,0.091233 1.450575,0.107458 1.483633,0.124928 1.516016,0.143625 1.547676,0.163518 1.578569,0.184581 1.608655,0.206785 1.637888,0.230097 1.66623,0.254488 1.693639,0.27992 1.720079,0.30636 1.745512,0.333769 1.769901,0.362111 1.793214,0.391344 1.815418,0.42143 1.83648,0.452323 1.856375,0.483984 1.875071,0.516366 1.892541,0.549423 1.908766,0.583112 1.923717,0.617382 1.937378,0.65219 1.949728,0.687483 1.960749,0.723213 1.970426,0.759329 1.978747,0.795784 1.985698,0.832522 1.991272,0.869496 1.995458,0.906652 1.998251,0.943938 1.99965,0.981304 1.99965,1.018694 1.998251,1.05606 1.995458,1.093346 1.991272,1.130502 1.985698,1.167476 1.978746,1.204216 1.970427,1.240668 1.960748,1.276786 1.949728,1.312515 1.937378,1.347808 1.923717,1.382616 1.908766,1.416886 1.892541,1.450575 1.875071,1.483634 1.856374,1.516016 1.836481,1.547675 1.815418,1.578568 1.793214,1.608655 1.769901,1.637888 1.745512,1.666228 1.720079,1.693638 1.693639,1.720079 1.66623,1.745512 1.637889,1.7699 1.608655,1.793213 1.57857,1.815417 1.547676,1.83648 1.516016,1.856373 1.483633,1.87507 1.450575,1.89254 1.416886,1.908765 1.382617,1.923717 1.347809,1.937378 1.312516,1.949728 1.276786,1.960749 1.24067,1.970426 1.204215,1.978747 1.167475,1.985698 1.130503,1.99127 1.093346,1.995458 1.05606,1.998251 1.018694,1.99965 0.981304,1.99965 0.943938,1.998251 0.906652,1.995458 0.869495,1.99127 0.832523,1.985698 0.795783,1.978746 0.759328,1.970426 0.723212,1.960749 0.687482,1.949728 0.652189,1.937378 0.617382,1.923717 0.583111,1.908765 0.549422,1.89254 0.516364,1.875069 0.483983,1.856373 0.452323,1.836481 0.421428,1.815417 0.391344,1.793213 0.36211,1.7699 0.333769,1.745512 0.306359,1.720079 0.279919,1.693638 0.254488,1.666229 0.230097,1.637887 0.206785,1.608655 0.18458,1.578568 0.163517,1.547675 0.143625,1.516016 0.124928,1.483633 0.107458,1.450575 0.091233,1.416886 0.076281,1.382615 0.062621,1.347809 0.050271,1.312516 0.03925,1.276786 0.029571,1.240668 0.021253,1.204216 0.014301,1.167476 0.008727,1.130502 0.004541,1.093346 0.001747,1.05606 0.000349,1.018694 0.000349,0.981304 0.001747,0.943938 0.004541,0.906652 0.008728,0.869495 0.0143,0.832523 0.021253,0.795783 0.029571,0.75933 0.03925,0.723212 0.050271,0.687482 0.062621,0.652189 0.076281,0.617383 0.091233,0.583112 0.107458,0.549423 0.124929,0.516366 0.143624,0.483984 0.163518,0.452324 0.184581,0.421429 0.206784,0.391345 0.230098,0.362111 0.254488,0.333769 0.279919,0.30636 0.306359,0.27992 0.333768,0.254488 0.36211,0.230098 0.391344,0.206785 0.421428,0.184582 0.452323,0.163517 0.483982,0.143625 0.516365,0.124929 0.549423,0.107457 0.583112,0.091233 0.617382,0.076282 0.652188,0.062621 0.687481,0.050271 0.723211,0.03925 0.759329,0.029572 0.795784,0.021252 0.832523,0.0143 0.869495,0.008728 0.906652,0.004541 0.943938,0.001747 0.981304,0.000349 1.018695,0.000349" style="fill: white" />
  </g>
  <g id="layer2" slic3r:z="8e-07">
    <polygon slic3r:type="contour" points="1.044859,0.001117 1.104518,0.005589 1.11938,0.007263 1.178536,0.01618 1.193233,0.018961 1.251559,0.032274 1.266005,0.036144 1.323174,0.053779 1.33729,0.058717 1.392982,0.080575 1.406689,0.086555 1.460591,0.112514 1.473814,0.119502 1.525626,0.149416 1.538289,0.157372 1.58772,0.191074 1.599753,0.199955 1.646528,0.237257 1.657864,0.247012 1.701719,0.287704 1.712296,0.29828 1.752987,0.342135 1.762743,0.353471 1.800045,0.400246 1.808926,0.41228 1.842626,0.46171 1.850583,0.474374 1.880498,0.526185 1.887485,0.539407 1.913444,0.593309 1.919425,0.607017 1.94128,0.662708 1.94622,0.676825 1.963855,0.733994 1.967725,0.748439 1.981038,0.806765 1.983819,0.821462 1.992735,0.880619 1.994409,0.895481 1.998881,0.955141 1.99944,0.970086 1.99944,1.029913 1.998881,1.044858 1.994409,1.104517 1.992735,1.119379 1.983819,1.178536 1.981038,1.193233 1.967725,1.251559 1.963855,1.266004 1.94622,1.323173 1.94128,1.33729 1.919425,1.392981 1.913444,1.406689 1.887485,1.460591 1.880497,1.473814 1.850584,1.525624 1.842626,1.538289 1.808926,1.587718 1.800045,1.599752 1.762743,1.646527 1.752987,1.657863 1.712296,1.701718 1.701719,1.712295 1.657864,1.752987 1.646528,1.762742 1.599753,1.800044 1.587719,1.808926 1.538289,1.842626 1.525626,1.850583 1.473814,1.880497 1.460591,1.887484 1.406689,1.913443 1.392982,1.919423 1.33729,1.941281 1.323173,1.946221 1.266005,1.963855 1.251559,1.967725 1.193233,1.981038 1.178536,1.983819 1.11938,1.992736 1.104518,1.994409 1.044858,1.998881 1.029913,1.99944 0.970086,1.99944 0.955141,1.998881 0.895481,1.994409 0.880619,1.992736 0.821463,1.983819 0.806766,1.981038 0.74844,1.967726 0.733993,1.963855 0.676824,1.94622 0.662708,1.941281 0.607017,1.919423 0.593308,1.913443 0.539406,1.887484 0.526184,1.880497 0.474374,1.850584 0.46171,1.842626 0.412279,1.808926 0.400245,1.800044 0.353471,1.762742 0.342134,1.752986 0.298279,1.712295 0.287703,1.701719 0.247012,1.657863 0.237255,1.646526 0.199954,1.599752 0.191073,1.587719 0.157371,1.538288 0.149415,1.525625 0.119501,1.473813 0.112514,1.460591 0.086555,1.406689 0.080575,1.392981 0.058718,1.337289 0.053778,1.323172 0.036143,1.266004 0.032273,1.251559 0.01896,1.193232 0.016181,1.178537 0.007263,1.119378 0.005589,1.104517 0.001117,1.044858 0.000559,1.029913 0.000559,0.970086 0.001117,0.955141 0.005589,0.895481 0.007263,0.88062 0.016181,0.821461 0.01896,0.806766 0.032273,0.748439 0.036143,0.733994 0.053778,0.676826 0.058718,0.662709 0.080575,0.607017 0.086555,0.593309 0.112514,0.539407 0.119502,0.526185 0.149415,0.474374 0.157371,0.461711 0.191072,0.41228 0.199955,0.400245 0.237255,0.353472 0.247012,0.342135 0.287703,0.298279 0.298278,0.287705 0.342135,0.247012 0.353471,0.237257 0.400245,0.199955 0.412279,0.191073 0.461708,0.157373 0.474372,0.149416 0.526183,0.119502 0.539407,0.112514 0.593308,0.086556 0.607017,0.080575 0.662708,0.058717 0.676824,0.053779 0.733993,0.036144 0.748439,0.032274 0.806765,0.018961 0.821462,0.016181 0.88062,0.007263 0.895481,0.005589 0.955141,0.001117 0.970086,0.000559 1.029914,0.000559" style="fill: white" />
  </g>
  <g id="layer3" slic3r:z="1.1e-06">
    <polygon slic3r:type="contour" points="1.001571,0.025368 1.03393,0.025608 1.055699,0.026993 1.087978,0.029002 1.109633,0.031583 1.141747,0.03533 1.163228,0.039081 1.19509,0.044528 1.216338,0.049427 1.247861,0.056539 1.263539,0.06093 1.286807,0.067306 1.302298,0.072314 1.325294,0.079585 1.340573,0.085199 1.363259,0.093349 1.3783,0.099559 1.400642,0.108572 1.415421,0.115368 1.437383,0.125234 1.451876,0.132605 1.473421,0.143305 1.487602,0.151242 1.508695,0.162762 1.522539,0.171255 1.543145,0.183583 1.559465,0.194625 1.583775,0.210655 1.59952,0.222483 1.62299,0.239651 1.638116,0.252248 1.660686,0.270531 1.667834,0.276559 1.696751,0.303248 1.716213,0.324677 1.721403,0.330075 1.731042,0.341205 1.745035,0.357826 1.763035,0.381151 1.789163,0.415931 1.805406,0.440545 1.828985,0.4772 1.843409,0.502957 1.864346,0.541269 1.87689,0.568022 1.895097,0.607777 1.905697,0.635376 1.921085,0.676363 1.929679,0.70466 1.942157,0.746662 1.948684,0.77551 1.958159,0.818311 1.961611,0.839843 1.966623,0.871781 1.968893,0.893473 1.972187,0.925641 1.973251,0.947435 1.974795,0.97975 1.97463,1.001571 1.974391,1.03393 1.973005,1.055699 1.970996,1.087978 1.968415,1.109632 1.964669,1.141747 1.960918,1.163227 1.955472,1.195088 1.950571,1.216337 1.94346,1.24786 1.939069,1.263539 1.932693,1.286806 1.927685,1.302297 1.920415,1.325294 1.9148,1.340572 1.90665,1.363258 1.90044,1.378299 1.891427,1.400641 1.884631,1.41542 1.874766,1.437381 1.867394,1.451875 1.856694,1.47342 1.848758,1.4876 1.837237,1.508694 1.828744,1.522538 1.816416,1.543144 1.805374,1.559466 1.789344,1.583774 1.777517,1.599517 1.760348,1.622989 1.747752,1.638114 1.729468,1.660685 1.723442,1.667831 1.696751,1.696751 1.675323,1.716212 1.669925,1.721402 1.658794,1.731041 1.642173,1.745035 1.61885,1.763033 1.584069,1.789163 1.559454,1.805406 1.522801,1.828984 1.497043,1.843409 1.458731,1.864346 1.431978,1.87689 1.392222,1.895097 1.364622,1.905697 1.323636,1.921085 1.295339,1.929678 1.253337,1.942156 1.224489,1.948682 1.181687,1.958159 1.160155,1.96161 1.128217,1.966622 1.106525,1.968892 1.074357,1.972187 1.052565,1.97325 1.020248,1.974795 0.998427,1.97463 0.966068,1.974391 0.944299,1.973005 0.91202,1.970996 0.890366,1.968416 0.858251,1.964669 0.836771,1.960918 0.804908,1.955471 0.783661,1.950571 0.752138,1.94346 0.736459,1.939068 0.713192,1.932693 0.697701,1.927685 0.674705,1.920413 0.659428,1.9148 0.636741,1.906651 0.621698,1.900439 0.599357,1.891426 0.584577,1.88463 0.562615,1.874765 0.548123,1.867393 0.526577,1.856693 0.512397,1.848757 0.491304,1.837236 0.477459,1.828744 0.456854,1.816416 0.440532,1.805373 0.416224,1.789343 0.40048,1.777517 0.377008,1.760347 0.361883,1.747751 0.339312,1.729467 0.332166,1.723441 0.303247,1.696751 0.283786,1.675321 0.278595,1.669924 0.268957,1.658793 0.254964,1.642172 0.236965,1.618848 0.210834,1.584067 0.194592,1.559453 0.171014,1.5228 0.156589,1.497042 0.135652,1.45873 0.123108,1.431977 0.104902,1.392221 0.094302,1.364622 0.078914,1.323635 0.07032,1.295338 0.057842,1.253336 0.051316,1.224488 0.04184,1.181687 0.038388,1.160155 0.033377,1.128217 0.031106,1.106525 0.027811,1.074357 0.026748,1.052565 0.025203,1.020248 0.025368,0.998427 0.025608,0.966068 0.026993,0.944299 0.029002,0.91202 0.031583,0.890366 0.03533,0.858251 0.03908,0.836771 0.044527,0.80491 0.049427,0.783662 0.056538,0.752139 0.06093,0.73646 0.067306,0.713192 0.072314,0.697701 0.079584,0.674706 0.085198,0.659428 0.093347,0.636741 0.099558,0.6217 0.108573,0.599357 0.115368,0.584579 0.125232,0.562617 0.132605,0.548124 0.143305,0.526578 0.151241,0.512398 0.162763,0.491304 0.171256,0.477459 0.183582,0.456855 0.194625,0.440533 0.210653,0.416226 0.222481,0.400481 0.239651,0.377008 0.252247,0.361884 0.270531,0.339313 0.276557,0.332167 0.303247,0.303248 0.324676,0.283787 0.330072,0.278597 0.341204,0.268958 0.357826,0.254964 0.38115,0.236964 0.41593,0.210836 0.440544,0.194593 0.477198,0.171015 0.502956,0.15659 0.541269,0.135651 0.56802,0.123109 0.607777,0.104902 0.635375,0.094302 0.676363,0.078914 0.70466,0.07032 0.746662,0.057842 0.77551,0.051316 0.818311,0.04184 0.839843,0.038388 0.871781,0.033377 0.893473,0.031106 0.925642,0.027812 0.947435,0.026747 0.97975,0.025203" style="fill: white" />
  </g>
  <g id="layer4" slic3r:z="1.4e-06">
    <polygon slic3r:type="contour" points="1.022014,0.100448 1.032048,0.100512 1.073098,0.102834 1.083113,0.103372 1.12397,0.107699 1.133941,0.108699 1.174507,0.114991 1.184409,0.116443 1.224585,0.124662 1.234398,0.126559 1.264084,0.133926 1.271338,0.135627 1.300711,0.144028 1.307893,0.145966 1.336906,0.155382 1.344006,0.157556 1.372623,0.167973 1.379631,0.170377 1.407807,0.181777 1.414715,0.184407 1.442412,0.196771 1.449206,0.199625 1.476379,0.212938 1.483054,0.21601 1.509665,0.230257 1.516209,0.233544 1.547697,0.252066 1.555453,0.25634 1.585975,0.276181 1.59351,0.28076 1.622991,0.301888 1.630284,0.306764 1.63732,0.31193 1.646701,0.318817 1.665686,0.334313 1.682553,0.35543 1.686445,0.360669 1.702614,0.382418 1.706345,0.387804 1.736538,0.433079 1.743506,0.444262 1.770752,0.491702 1.777039,0.503383 1.801235,0.552743 1.806819,0.564866 1.827859,0.615893 1.832713,0.6284 1.850495,0.680849 1.854597,0.693685 1.869015,0.747306 1.872341,0.760412 1.883292,0.814958 1.885818,0.828278 1.891608,0.868931 1.892944,0.878853 1.896753,0.919776 1.897632,0.92976 1.899415,0.97085 1.899828,0.980874 1.89955,1.022015 1.899487,1.032048 1.897164,1.073098 1.896628,1.083112 1.8923,1.12397 1.891301,1.133939 1.885007,1.174506 1.883554,1.184409 1.875337,1.224585 1.873441,1.234398 1.866073,1.264083 1.864373,1.271337 1.855971,1.30071 1.854033,1.307892 1.844617,1.336905 1.842443,1.344005 1.832026,1.372622 1.829622,1.37963 1.818223,1.407808 1.815593,1.414713 1.803228,1.442411 1.800374,1.449205 1.787061,1.476379 1.783989,1.483054 1.769744,1.509663 1.766457,1.516208 1.747933,1.547696 1.743659,1.555452 1.723819,1.585974 1.71924,1.593509 1.698112,1.62299 1.693236,1.630283 1.68807,1.637319 1.681183,1.646699 1.665685,1.665685 1.64457,1.682552 1.639331,1.686444 1.617582,1.702613 1.612196,1.706344 1.56692,1.736537 1.555737,1.743505 1.508297,1.770751 1.496615,1.777039 1.447257,1.801234 1.435133,1.806819 1.384107,1.827858 1.371599,1.832712 1.319149,1.850495 1.306313,1.854597 1.252693,1.869015 1.239586,1.872342 1.185042,1.883291 1.17172,1.885819 1.131067,1.891608 1.121144,1.892945 1.080224,1.896752 1.07024,1.89763 1.029148,1.899415 1.019124,1.899827 0.977985,1.899551 0.967949,1.899486 0.9269,1.897164 0.916886,1.896628 0.876028,1.8923 0.866059,1.891301 0.825492,1.885007 0.815589,1.883554 0.775412,1.875335 0.7656,1.873439 0.735915,1.866073 0.72866,1.864372 0.699289,1.855972 0.692107,1.854033 0.663092,1.844616 0.655991,1.842441 0.627375,1.832025 0.620368,1.829622 0.592191,1.818222 0.585284,1.815591 0.557587,1.803227 0.550793,1.800373 0.523619,1.78706 0.516945,1.783988 0.490335,1.769743 0.48379,1.766456 0.452301,1.747932 0.444545,1.743658 0.414022,1.723818 0.406487,1.719239 0.377007,1.698111 0.369715,1.693236 0.362678,1.688069 0.353298,1.681182 0.334313,1.665685 0.317447,1.64457 0.313554,1.639329 0.297385,1.617582 0.293653,1.612195 0.263459,1.566918 0.256493,1.555736 0.229246,1.508295 0.222959,1.496615 0.198764,1.447257 0.19318,1.435132 0.172141,1.384107 0.167285,1.371597 0.149505,1.31915 0.145401,1.306312 0.130983,1.252692 0.127657,1.239586 0.116706,1.18504 0.11418,1.17172 0.108391,1.131067 0.107054,1.121145 0.103245,1.080222 0.102367,1.070238 0.100584,1.029148 0.100172,1.019124 0.100447,0.977985 0.100512,0.967949 0.102835,0.9269 0.103371,0.916887 0.107698,0.876029 0.108698,0.866058 0.114991,0.825492 0.116443,0.81559 0.124662,0.775414 0.126559,0.765601 0.133925,0.735915 0.135625,0.728661 0.144026,0.699289 0.145966,0.692106 0.155382,0.663093 0.157556,0.655993 0.167973,0.627375 0.170376,0.620368 0.181775,0.592192 0.184406,0.585286 0.196771,0.557589 0.199624,0.550794 0.212937,0.52362 0.21601,0.516946 0.230255,0.490336 0.233542,0.483791 0.252065,0.452303 0.25634,0.444545 0.27618,0.414024 0.280759,0.40649 0.301887,0.377009 0.306763,0.369716 0.311929,0.36268 0.318816,0.353298 0.334313,0.334314 0.355428,0.317448 0.360667,0.313556 0.382416,0.297386 0.387803,0.293654 0.433078,0.263461 0.44426,0.256494 0.491703,0.229247 0.503383,0.22296 0.552742,0.198764 0.564865,0.193181 0.615893,0.17214 0.6284,0.167286 0.680849,0.149504 0.693685,0.145402 0.747306,0.130984 0.760412,0.127658 0.814958,0.116707 0.828278,0.114181 0.868932,0.10839 0.878853,0.107054 0.919776,0.103245 0.92976,0.102367 0.97085,0.100584 0.980874,0.100172" style="fill: white" />
  </g>
  <g id="layer5" slic3r:z="1.7e-06">
    <polygon slic3r:type="contour" points="1.001567,0.175256 1.030167,0.175416 1.049697,0.176398 1.078246,0.177739 1.097696,0.17957 1.126134,0.182067 1.145459,0.18473 1.17373,0.188361 1.19289,0.191838 1.220935,0.19658 1.23511,0.199697 1.255871,0.203947 1.269911,0.2075 1.290491,0.212348 1.304381,0.216332 1.324754,0.221764 1.338476,0.226171 1.35862,0.232182 1.372156,0.237005 1.392047,0.243581 1.405379,0.248812 1.424992,0.255946 1.438104,0.261579 1.457414,0.269259 1.470287,0.275286 1.489273,0.283505 1.504555,0.29134 1.527133,0.302026 1.542007,0.31042 1.564029,0.321867 1.578462,0.330806 1.599881,0.342994 1.620659,0.35591 1.63462,0.365381 1.641756,0.375781 1.651485,0.391263 1.658327,0.401932 1.667655,0.41778 1.680429,0.439869 1.697849,0.472593 1.709375,0.495597 1.725094,0.529568 1.735332,0.553385 1.74929,0.588462 1.758192,0.612986 1.770329,0.649024 1.777853,0.674149 1.788111,0.711009 1.79421,0.736627 1.802528,0.774164 1.80716,0.800174 1.813478,0.838245 1.815927,0.857608 1.819268,0.885927 1.820879,0.905403 1.823075,0.933877 1.823831,0.953425 1.824859,0.981997 1.824742,1.001566 1.824583,1.030168 1.8236,1.049697 1.82226,1.078246 1.82043,1.097694 1.817932,1.126133 1.815268,1.145459 1.811639,1.17373 1.808162,1.192889 1.80342,1.220933 1.800302,1.235109 1.796052,1.25587 1.792499,1.26991 1.787651,1.29049 1.783667,1.30438 1.778235,1.324753 1.773828,1.338475 1.767817,1.358619 1.762994,1.372156 1.756418,1.392046 1.751187,1.405379 1.744054,1.424991 1.73842,1.438103 1.73074,1.457413 1.724713,1.470287 1.716495,1.489271 1.708659,1.504554 1.697973,1.527132 1.689578,1.542007 1.678133,1.564027 1.669193,1.578461 1.657005,1.59988 1.644089,1.620657 1.634619,1.634619 1.624218,1.641755 1.608737,1.651485 1.598069,1.658325 1.582219,1.667655 1.560131,1.680428 1.527407,1.697848 1.504403,1.709375 1.47043,1.725094 1.446615,1.73533 1.411537,1.749289 1.387013,1.758191 1.350974,1.770329 1.325851,1.777851 1.288991,1.78811 1.263371,1.79421 1.225835,1.802528 1.199825,1.80716 1.161754,1.813477 1.142391,1.815927 1.114072,1.819268 1.094596,1.820878 1.066121,1.823074 1.046574,1.82383 1.018001,1.82486 0.998432,1.824742 0.969832,1.824583 0.950302,1.8236 0.921753,1.82226 0.902303,1.820428 0.873865,1.817932 0.85454,1.815269 0.826269,1.811637 0.807109,1.808161 0.779065,1.80342 0.764889,1.800302 0.744129,1.796052 0.730088,1.792498 0.709509,1.787652 0.695617,1.783666 0.675245,1.778234 0.661522,1.773826 0.641379,1.767818 0.627843,1.762995 0.607953,1.756417 0.594619,1.751186 0.575007,1.744052 0.561896,1.738419 0.542584,1.730739 0.529712,1.724713 0.510725,1.716494 0.495443,1.708658 0.472865,1.697971 0.45799,1.689577 0.435971,1.678131 0.421539,1.669193 0.400117,1.657003 0.379341,1.644089 0.365379,1.634619 0.358244,1.624219 0.348513,1.608736 0.341672,1.598068 0.332343,1.582218 0.319569,1.560129 0.30215,1.527407 0.290622,1.504402 0.274903,1.470429 0.264668,1.446614 0.250709,1.411536 0.241808,1.387014 0.229668,1.350973 0.222146,1.32585 0.211888,1.288991 0.205788,1.26337 0.197471,1.225834 0.192839,1.199824 0.186521,1.161753 0.184072,1.142392 0.18073,1.114071 0.17912,1.094596 0.176924,1.066121 0.176169,1.046574 0.175139,1.018001 0.175256,0.998432 0.175416,0.969832 0.176398,0.950302 0.177739,0.921753 0.17957,0.902303 0.182067,0.873865 0.184729,0.85454 0.188361,0.82627 0.191837,0.80711 0.196578,0.779065 0.199696,0.764889 0.203947,0.744128 0.2075,0.730088 0.212346,0.709509 0.216332,0.695618 0.221765,0.675244 0.226172,0.661522 0.232181,0.641379 0.237004,0.627843 0.24358,0.607953 0.248811,0.594621 0.255944,0.575008 0.261578,0.561895 0.269258,0.542585 0.275285,0.529712 0.283504,0.510726 0.291339,0.495444 0.302025,0.472866 0.310419,0.457992 0.321866,0.435972 0.330805,0.421538 0.342993,0.400119 0.355909,0.379341 0.365379,0.365381 0.37578,0.358244 0.391262,0.348514 0.40193,0.341673 0.417779,0.332345 0.43987,0.31957 0.472591,0.302151 0.495596,0.290624 0.529568,0.274905 0.553385,0.264667 0.588461,0.250709 0.612985,0.241807 0.649025,0.229669 0.674148,0.222147 0.711008,0.211888 0.736627,0.205789 0.774164,0.197471 0.800174,0.192839 0.838245,0.186521 0.857608,0.184071 0.885927,0.180731 0.905403,0.179119 0.933877,0.176924 0.953425,0.176169 0.981997,0.17514" style="fill: white" />
  </g>
  <g id="layer6" slic3r:z="2e-06">
    <polygon slic3r:type="contour" points="1.028286,0.25032 1.073379,0.252106 1.118328,0.255436 1.16305,0.260278 1.207471,0.266598 1.240403,0.272267 1.273088,0.278728 1.305502,0.285973 1.337609,0.293985 1.369378,0.302754 1.400777,0.312266 1.431773,0.322506 1.462336,0.333465 1.498814,0.347713 1.534547,0.362975 1.569479,0.379226 1.603553,0.396447 1.616527,0.421857 1.628966,0.447757 1.652191,0.500922 1.67315,0.555753 1.691762,0.61206 1.707945,0.669649 1.721624,0.728331 1.732713,0.787915 1.741137,0.848212 1.74559,0.893 1.74852,0.937996 1.749893,0.983122 1.74968,1.028286 1.747893,1.073379 1.744565,1.118326 1.739721,1.163049 1.733401,1.20747 1.727733,1.2404 1.72127,1.273089 1.714027,1.305501 1.706013,1.337609 1.697245,1.369377 1.687733,1.400776 1.677493,1.431772 1.666535,1.462335 1.652286,1.498813 1.637024,1.534545 1.620773,1.569478 1.603552,1.603552 1.578143,1.616526 1.552243,1.628965 1.499076,1.652191 1.444246,1.673149 1.387939,1.691762 1.33035,1.707944 1.271667,1.721623 1.212083,1.732713 1.151787,1.741135 1.106999,1.74559 1.062003,1.748519 1.016877,1.749892 0.971713,1.749679 0.926619,1.747892 0.881671,1.744562 0.836949,1.739721 0.792528,1.7334 0.759596,1.727732 0.726909,1.72127 0.694497,1.714025 0.662389,1.706012 0.630621,1.697245 0.599222,1.687732 0.568225,1.677492 0.537662,1.666534 0.501185,1.652285 0.465452,1.637023 0.430521,1.620772 0.396446,1.603552 0.38347,1.578141 0.371033,1.552243 0.347808,1.499076 0.326848,1.444244 0.308237,1.387938 0.292052,1.330349 0.278376,1.271668 0.267286,1.212083 0.258862,1.151788 0.254408,1.106999 0.25148,1.062003 0.250107,1.016877 0.25032,0.971714 0.252106,0.926619 0.255436,0.881672 0.260277,0.836949 0.266598,0.792528 0.272266,0.759597 0.278727,0.726911 0.285972,0.694498 0.293985,0.66239 0.302753,0.630622 0.312264,0.599223 0.322505,0.568226 0.333464,0.537663 0.347712,0.501186 0.362974,0.465453 0.379225,0.430521 0.396446,0.396446 0.421856,0.383472 0.447755,0.371034 0.500923,0.347808 0.555752,0.326849 0.612059,0.308237 0.669648,0.292054 0.728331,0.278375 0.787915,0.267286 0.848212,0.258862 0.893,0.254409 0.937996,0.25148 0.983122,0.250107" style="fill: white" />
  </g>
  <g id="layer7" slic3r:z="2.3e-06">
    <polygon slic3r:type="contour" points="1.009841,0.325171 1.026404,0.325224 1.051968,0.326027 1.068515,0.326475 1.094011,0.327972 1.110521,0.328805 1.135917,0.330983 1.15237,0.332194 1.177631,0.335039 1.194009,0.33662 1.212764,0.339169 1.224933,0.340587 1.243578,0.343494 1.255687,0.34511 1.27421,0.34837 1.286249,0.35018 1.304635,0.353787 1.316598,0.35579 1.334831,0.359736 1.34671,0.361928 1.364775,0.366207 1.376563,0.368586 1.394446,0.373193 1.406133,0.375755 1.423823,0.380685 1.435401,0.383425 1.456595,0.389837 1.470494,0.393399 1.491353,0.400267 1.505064,0.404082 1.525564,0.411396 1.539076,0.415458 1.559189,0.423207 1.572488,0.427512 1.578327,0.442522 1.58157,0.452452 1.587167,0.467683 1.590277,0.477734 1.600727,0.50881 1.606533,0.529253 1.615964,0.561079 1.621205,0.581939 1.629579,0.614427 1.634232,0.635656 1.641516,0.668724 1.645561,0.690272 1.651718,0.723832 1.655136,0.745653 1.660127,0.779619 1.662899,0.801666 1.666689,0.835951 1.668796,0.858178 1.670799,0.883604 1.671914,0.900074 1.673232,0.925593 1.673964,0.942113 1.674581,0.967692 1.674925,0.984245 1.674828,1.009841 1.674776,1.026404 1.673972,1.051968 1.673525,1.068514 1.672026,1.09401 1.671193,1.11052 1.669016,1.135916 1.667806,1.152369 1.66496,1.177631 1.66338,1.194008 1.66083,1.212764 1.659412,1.224933 1.656505,1.243577 1.654889,1.255687 1.65163,1.274209 1.649818,1.286249 1.646212,1.304634 1.644209,1.316598 1.640264,1.334829 1.638071,1.346709 1.633792,1.364774 1.631414,1.376561 1.626806,1.394446 1.624245,1.406131 1.619314,1.423822 1.616575,1.435399 1.610162,1.456594 1.6066,1.470493 1.599733,1.491351 1.595918,1.505064 1.588604,1.525563 1.58454,1.539076 1.576791,1.559189 1.572488,1.572486 1.557476,1.578325 1.547547,1.581569 1.532316,1.587166 1.522267,1.590275 1.49119,1.600726 1.470745,1.606533 1.43892,1.615964 1.418061,1.621204 1.385571,1.629579 1.364343,1.634231 1.331275,1.641516 1.309727,1.645561 1.276167,1.651717 1.254345,1.655135 1.220379,1.660127 1.198332,1.662898 1.164047,1.666689 1.141821,1.668795 1.116395,1.670798 1.099925,1.671913 1.074405,1.673231 1.057885,1.673962 1.032306,1.674581 1.015753,1.674924 0.990158,1.674828 0.973595,1.674775 0.94803,1.67397 0.931484,1.673525 0.905988,1.672026 0.889478,1.671193 0.864082,1.669015 0.847629,1.667804 0.822368,1.66496 0.805991,1.663379 0.787234,1.660829 0.775067,1.659413 0.75642,1.656503 0.744312,1.654889 0.725788,1.651629 0.713748,1.649817 0.695365,1.646213 0.683401,1.644208 0.665169,1.640263 0.653289,1.63807 0.635224,1.633791 0.623436,1.631412 0.605552,1.626805 0.593866,1.624244 0.576176,1.619313 0.564599,1.616574 0.543403,1.610161 0.529506,1.6066 0.508647,1.599733 0.494934,1.595917 0.474435,1.588603 0.460922,1.584539 0.44081,1.576791 0.427512,1.572486 0.421673,1.557476 0.41843,1.547547 0.412832,1.532316 0.409723,1.522266 0.399271,1.491188 0.393465,1.470745 0.384034,1.43892 0.378793,1.418059 0.370419,1.385571 0.365766,1.364342 0.358481,1.331274 0.354436,1.309726 0.348281,1.276167 0.344863,1.254345 0.339871,1.220379 0.337099,1.198332 0.333308,1.164046 0.331202,1.141821 0.329199,1.116395 0.328085,1.099925 0.326767,1.074405 0.326036,1.057885 0.325417,1.032306 0.325075,1.015754 0.325169,0.990158 0.325224,0.973595 0.326028,0.94803 0.326474,0.931485 0.327974,0.905988 0.328806,0.889479 0.330983,0.864082 0.332194,0.847629 0.335038,0.822367 0.336619,0.80599 0.339168,0.787236 0.340586,0.775066 0.343493,0.756421 0.34511,0.744312 0.348368,0.72579 0.35018,0.713749 0.353786,0.695364 0.355789,0.683402 0.359734,0.665169 0.361927,0.65329 0.366207,0.635224 0.368584,0.623438 0.373193,0.605553 0.375753,0.593867 0.380684,0.576176 0.383424,0.564598 0.389836,0.543404 0.393398,0.529506 0.400265,0.508648 0.404082,0.494934 0.411394,0.474436 0.415458,0.460924 0.423206,0.440811 0.427511,0.427513 0.442522,0.421674 0.452452,0.418429 0.467682,0.412833 0.477733,0.409723 0.508809,0.399272 0.529253,0.393465 0.561079,0.384035 0.581939,0.378794 0.614427,0.37042 0.635655,0.365767 0.668724,0.358484 0.690272,0.354438 0.723831,0.348282 0.745653,0.344863 0.779619,0.339872 0.801666,0.3371 0.835951,0.33331 0.858178,0.331203 0.883604,0.3292 0.900074,0.328086 0.925593,0.326767 0.942113,0.326036 0.967692,0.325418 0.984245,0.325075" style="fill: white" />
  </g>
  <g id="layer8" slic3r:z="2.6e-06">
    <polygon slic3r:type="contour" points="0.993399,0.400063 1.024523,0.400128 1.032546,0.400306 1.063648,0.400843 1.071656,0.401175 1.102712,0.402173 1.1107,0.402659 1.141689,0.404111 1.149646,0.404743 1.180545,0.406639 1.186463,0.407207 1.209464,0.408907 1.215357,0.409553 1.238285,0.41149 1.244151,0.412216 1.266997,0.41439 1.272832,0.415191 1.295587,0.417594 1.301388,0.41847 1.324042,0.421101 1.329805,0.422052 1.352348,0.424907 1.358071,0.42593 1.380493,0.429002 1.386174,0.430098 1.408465,0.433386 1.415298,0.43481 1.442173,0.439085 1.448933,0.440612 1.475583,0.445189 1.482263,0.446815 1.508675,0.451691 1.515268,0.453413 1.541422,0.458579 1.542719,0.463504 1.546611,0.483047 1.547854,0.48802 1.551586,0.507711 1.553909,0.517795 1.560877,0.557584 1.562973,0.567834 1.56926,0.608124 1.57112,0.618522 1.576704,0.659253 1.578322,0.669779 1.583179,0.710897 1.584547,0.721533 1.58865,0.762977 1.589758,0.773703 1.593085,0.815418 1.593928,0.826216 1.596454,0.868143 1.5969,0.876136 1.598237,0.907147 1.59853,0.915161 1.599408,0.946232 1.599546,0.95426 1.599957,0.98537 1.599936,0.9934 1.599872,1.024522 1.599693,1.032547 1.599157,1.063647 1.598824,1.071655 1.597825,1.102713 1.597342,1.110699 1.595889,1.141688 1.595256,1.149646 1.59336,1.180545 1.592792,1.186463 1.591093,1.209464 1.590447,1.215356 1.588509,1.238284 1.587784,1.24415 1.58561,1.266997 1.58481,1.272831 1.582406,1.295586 1.581529,1.301387 1.578899,1.32404 1.577947,1.329804 1.575094,1.352346 1.574069,1.358071 1.570998,1.380491 1.569901,1.386173 1.566613,1.408464 1.565189,1.415297 1.560914,1.442172 1.559387,1.448932 1.55481,1.475582 1.553185,1.482261 1.54831,1.508674 1.546587,1.515268 1.541422,1.541421 1.536497,1.542718 1.516952,1.54661 1.51198,1.547854 1.49229,1.551585 1.482206,1.553908 1.442415,1.560876 1.432164,1.562972 1.391875,1.569259 1.381477,1.571119 1.340745,1.576704 1.330219,1.578323 1.289103,1.583177 1.278467,1.584545 1.237022,1.588649 1.226295,1.589758 1.18458,1.593085 1.173783,1.593927 1.131854,1.596454 1.123862,1.596899 1.092851,1.598236 1.084838,1.598528 1.053766,1.599408 1.04574,1.599544 1.014628,1.599956 1.006598,1.599935 0.975475,1.599871 0.967452,1.599693 0.936352,1.599156 0.928343,1.598823 0.897285,1.597824 0.889298,1.59734 0.858309,1.595887 0.850352,1.595255 0.819452,1.593359 0.813535,1.592792 0.790535,1.591093 0.784642,1.590446 0.761714,1.588508 0.755848,1.587783 0.733001,1.585611 0.727167,1.584809 0.704412,1.582405 0.698611,1.581528 0.675958,1.578898 0.670194,1.577946 0.647652,1.575093 0.641927,1.574068 0.619507,1.570997 0.613825,1.5699 0.591535,1.566613 0.5847,1.565189 0.557826,1.560913 0.551067,1.559387 0.524414,1.554808 0.517736,1.553184 0.491324,1.548309 0.484731,1.546586 0.458577,1.541421 0.45728,1.536496 0.453387,1.516951 0.452143,1.511978 0.448412,1.492288 0.44609,1.482205 0.439122,1.442414 0.437026,1.432163 0.430738,1.391874 0.428877,1.381476 0.423294,1.340745 0.421676,1.330219 0.41682,1.289101 0.415453,1.278466 0.41135,1.237021 0.410242,1.226295 0.406913,1.18458 0.406072,1.173783 0.403544,1.131854 0.403099,1.123862 0.401762,1.092851 0.40147,1.084838 0.400592,1.053767 0.400454,1.045739 0.400042,1.014629 0.400064,1.006598 0.400128,0.975476 0.400306,0.967453 0.400843,0.936351 0.401175,0.928343 0.402174,0.897285 0.402657,0.889299 0.40411,0.858309 0.404743,0.850352 0.406638,0.819454 0.407206,0.813536 0.408905,0.790536 0.409551,0.784643 0.41149,0.761714 0.412214,0.755848 0.414388,0.733002 0.415189,0.727167 0.417594,0.704412 0.41847,0.698612 0.4211,0.675958 0.422051,0.670194 0.424906,0.647651 0.42593,0.641927 0.429002,0.619506 0.430098,0.613825 0.433385,0.591534 0.434809,0.584701 0.439084,0.557826 0.440611,0.551066 0.445188,0.524416 0.446813,0.517737 0.451689,0.491326 0.453412,0.484732 0.458578,0.458578 0.463502,0.457281 0.483046,0.453388 0.488019,0.452145 0.50771,0.448413 0.517794,0.44609 0.557584,0.439122 0.567835,0.437027 0.608123,0.430739 0.618522,0.428878 0.659253,0.423295 0.669779,0.421677 0.710897,0.416821 0.721532,0.415454 0.762977,0.411349 0.773703,0.410241 0.815418,0.406914 0.826216,0.406071 0.868143,0.403545 0.876136,0.4031 0.907147,0.401762 0.915161,0.40147 0.946232,0.400592 0.95426,0.400454 0.985369,0.400042" style="fill: white" />
  </g>
  <g id="layer9" slic3r:z="2.9e-06">
    <polygon slic3r:type="contour" points="0.709432,0.475031 0.724485,0.475211 0.739522,0.475543 0.75454,0.476028 0.769525,0.47666 1.369526,0.47666 1.380691,0.477227 1.391834,0.477873 1.402948,0.478597 1.414033,0.479399 1.425083,0.480276 1.436095,0.481226 1.447068,0.48225 1.457999,0.483347 1.471205,0.48477 1.484337,0.486298 1.510356,0.489645 1.512897,0.509079 1.515219,0.528699 1.517315,0.548487 1.519176,0.56842 1.520795,0.588484 1.522163,0.608655 1.523272,0.628918 1.524113,0.64925 1.524559,0.664273 1.524853,0.679317 1.524988,0.694372 1.524969,0.709433 1.52479,0.724485 1.524456,0.739524 1.523972,0.754539 1.52334,0.769526 1.52334,1.369525 1.522774,1.38069 1.522127,1.391833 1.521403,1.402947 1.520601,1.414032 1.519725,1.425081 1.518774,1.436094 1.517749,1.447069 1.516654,1.457997 1.515228,1.471205 1.513703,1.484336 1.510356,1.510355 1.490921,1.512896 1.471301,1.515218 1.451513,1.517314 1.431578,1.519176 1.411516,1.520794 1.391345,1.522161 1.371081,1.523271 1.350748,1.524113 1.335727,1.524558 1.320682,1.524852 1.305626,1.524989 1.290568,1.524968 1.275514,1.524789 1.260475,1.524455 1.245461,1.523972 1.230473,1.523339 0.630473,1.523339 0.619308,1.522773 0.608165,1.522127 0.59705,1.521401 0.585966,1.5206 0.574917,1.519724 0.563903,1.518773 0.552929,1.517748 0.542001,1.516653 0.528793,1.515227 0.515662,1.513702 0.489644,1.510355 0.487103,1.49092 0.484779,1.471299 0.482684,1.451513 0.480822,1.431578 0.479205,1.411516 0.477837,1.391344 0.476728,1.371082 0.475885,1.350747 0.47544,1.335726 0.475147,1.320682 0.47501,1.305627 0.475032,1.290566 0.47521,1.275514 0.475543,1.260475 0.476026,1.24546 0.476659,1.230473 0.476659,0.630475 0.477226,0.619307 0.477872,0.608165 0.478596,0.597052 0.479398,0.585967 0.480275,0.574916 0.481225,0.563904 0.48225,0.55293 0.483345,0.542001 0.484771,0.528794 0.486296,0.515663 0.489643,0.489645 0.509078,0.487104 0.528699,0.48478 0.548485,0.482685 0.56842,0.480823 0.588482,0.479206 0.608654,0.477838 0.628916,0.476729 0.64925,0.475887 0.664273,0.475441 0.679316,0.475148 0.694372,0.475011" style="fill: white" />
  </g>
  <g id="layer10" slic3r:z="3.2e-06">
    <polygon slic3r:type="contour" points="1.500001,1.5 0.5,1.5 0.5,0.5 1.500001,0.5" style="fill: white" />
  </g>
  <g id="layer11" slic3r:z="3.5e-06">
    <polygon slic3r:type="contour" points="1.500001,1.5 0.5,1.5 0.5,0.5 1.500001,0.5" style="fill: white" />
  </g>
</svg>
